<?xml version="1.0" encoding="utf-8" standalone="no"?>
<!DOCTYPE svg PUBLIC "-//W3C//DTD SVG 1.1//EN"
  "http://www.w3.org/Graphics/SVG/1.1/DTD/svg11.dtd">
<svg xmlns:xlink="http://www.w3.org/1999/xlink" width="713.104219pt" height="317.194375pt" viewBox="0 0 713.104219 317.194375" xmlns="http://www.w3.org/2000/svg" version="1.1">
 <metadata>
  <rdf:RDF xmlns:dc="http://purl.org/dc/elements/1.1/" xmlns:cc="http://creativecommons.org/ns#" xmlns:rdf="http://www.w3.org/1999/02/22-rdf-syntax-ns#">
   <cc:Work>
    <dc:type rdf:resource="http://purl.org/dc/dcmitype/StillImage"/>
    <dc:date>2026-03-02T08:58:21.642816</dc:date>
    <dc:format>image/svg+xml</dc:format>
    <dc:creator>
     <cc:Agent>
      <dc:title>Matplotlib v3.10.8, https://matplotlib.org/</dc:title>
     </cc:Agent>
    </dc:creator>
   </cc:Work>
  </rdf:RDF>
 </metadata>
 <defs>
  <style type="text/css">*{stroke-linejoin: round; stroke-linecap: butt}</style>
 </defs>
 <g id="figure_1">
  <g id="patch_1">
   <path d="M 0 317.194375 
L 713.104219 317.194375 
L 713.104219 0 
L 0 0 
z
" style="fill: #ffffff"/>
  </g>
  <g id="axes_1">
   <g id="patch_2">
    <path d="M 89.804219 279.638125 
L 705.904219 279.638125 
L 705.904219 23.038125 
L 89.804219 23.038125 
z
" style="fill: #ffffff"/>
   </g>
   <g id="patch_3">
    <path d="M 89.804219 267.974489 
L 605.087855 267.974489 
L 605.087855 251.312151 
L 89.804219 251.312151 
z
" clip-path="url(#paf1adc2c79)" style="fill: #2e86ab; opacity: 0.85"/>
   </g>
   <g id="patch_4">
    <path d="M 89.804219 184.6628 
L 537.876946 184.6628 
L 537.876946 168.000463 
L 89.804219 168.000463 
z
" clip-path="url(#paf1adc2c79)" style="fill: #2e86ab; opacity: 0.85"/>
   </g>
   <g id="patch_5">
    <path d="M 89.804219 101.351112 
L 605.087855 101.351112 
L 605.087855 84.688774 
L 89.804219 84.688774 
z
" clip-path="url(#paf1adc2c79)" style="fill: #2e86ab; opacity: 0.85"/>
   </g>
   <g id="patch_6">
    <path d="M 89.804219 251.312151 
L 627.491491 251.312151 
L 627.491491 234.649813 
L 89.804219 234.649813 
z
" clip-path="url(#paf1adc2c79)" style="fill: #28a745; opacity: 0.85"/>
   </g>
   <g id="patch_7">
    <path d="M 89.804219 168.000463 
L 537.876946 168.000463 
L 537.876946 151.338125 
L 89.804219 151.338125 
z
" clip-path="url(#paf1adc2c79)" style="fill: #28a745; opacity: 0.85"/>
   </g>
   <g id="patch_8">
    <path d="M 89.804219 84.688774 
L 627.491491 84.688774 
L 627.491491 68.026437 
L 89.804219 68.026437 
z
" clip-path="url(#paf1adc2c79)" style="fill: #28a745; opacity: 0.85"/>
   </g>
   <g id="patch_9">
    <path d="M 89.804219 234.649813 
L 560.280582 234.649813 
L 560.280582 217.987476 
L 89.804219 217.987476 
z
" clip-path="url(#paf1adc2c79)" style="fill: #ffc107; opacity: 0.85"/>
   </g>
   <g id="patch_10">
    <path d="M 89.804219 151.338125 
L 509.872401 151.338125 
L 509.872401 134.675787 
L 89.804219 134.675787 
z
" clip-path="url(#paf1adc2c79)" style="fill: #ffc107; opacity: 0.85"/>
   </g>
   <g id="patch_11">
    <path d="M 89.804219 68.026437 
L 627.491491 68.026437 
L 627.491491 51.364099 
L 89.804219 51.364099 
z
" clip-path="url(#paf1adc2c79)" style="fill: #ffc107; opacity: 0.85"/>
   </g>
   <g id="patch_12">
    <path d="M 89.804219 217.987476 
L 605.087855 217.987476 
L 605.087855 201.325138 
L 89.804219 201.325138 
z
" clip-path="url(#paf1adc2c79)" style="fill: #a23b72; opacity: 0.85"/>
   </g>
   <g id="patch_13">
    <path d="M 89.804219 134.675787 
L 481.867855 134.675787 
L 481.867855 118.01345 
L 89.804219 118.01345 
z
" clip-path="url(#paf1adc2c79)" style="fill: #a23b72; opacity: 0.85"/>
   </g>
   <g id="patch_14">
    <path d="M 89.804219 51.364099 
L 605.087855 51.364099 
L 605.087855 34.701761 
L 89.804219 34.701761 
z
" clip-path="url(#paf1adc2c79)" style="fill: #a23b72; opacity: 0.85"/>
   </g>
   <g id="matplotlib.axis_1">
    <g id="xtick_1">
     <g id="line2d_1">
      <path d="M 89.804219 279.638125 
L 89.804219 23.038125 
" clip-path="url(#paf1adc2c79)" style="fill: none; stroke-dasharray: 2.96,1.28; stroke-dashoffset: 0; stroke: #b0b0b0; stroke-opacity: 0.5; stroke-width: 0.8"/>
     </g>
     <g id="line2d_2">
      <defs>
       <path id="mfc857fea2c" d="M 0 0 
L 0 3.5 
" style="stroke: #000000; stroke-width: 0.8"/>
      </defs>
      <g>
       <use xlink:href="#mfc857fea2c" x="89.804219" y="279.638125" style="stroke: #000000; stroke-width: 0.8"/>
      </g>
     </g>
     <g id="text_1">
      <!-- 0 -->
      <g transform="translate(86.941094 293.476719) scale(0.09 -0.09)">
       <defs>
        <path id="DejaVuSerif-30" d="M 2034 219 
Q 2513 219 2750 744 
Q 2988 1269 2988 2328 
Q 2988 3391 2750 3916 
Q 2513 4441 2034 4441 
Q 1556 4441 1318 3916 
Q 1081 3391 1081 2328 
Q 1081 1269 1318 744 
Q 1556 219 2034 219 
z
M 2034 -91 
Q 1275 -91 848 546 
Q 422 1184 422 2328 
Q 422 3475 848 4112 
Q 1275 4750 2034 4750 
Q 2797 4750 3222 4112 
Q 3647 3475 3647 2328 
Q 3647 1184 3222 546 
Q 2797 -91 2034 -91 
z
" transform="scale(0.015625)"/>
       </defs>
       <use xlink:href="#DejaVuSerif-30"/>
      </g>
     </g>
    </g>
    <g id="xtick_2">
     <g id="line2d_3">
      <path d="M 201.822401 279.638125 
L 201.822401 23.038125 
" clip-path="url(#paf1adc2c79)" style="fill: none; stroke-dasharray: 2.96,1.28; stroke-dashoffset: 0; stroke: #b0b0b0; stroke-opacity: 0.5; stroke-width: 0.8"/>
     </g>
     <g id="line2d_4">
      <g>
       <use xlink:href="#mfc857fea2c" x="201.822401" y="279.638125" style="stroke: #000000; stroke-width: 0.8"/>
      </g>
     </g>
     <g id="text_2">
      <!-- 2 -->
      <g transform="translate(198.959276 293.476719) scale(0.09 -0.09)">
       <defs>
        <path id="DejaVuSerif-32" d="M 819 3553 
L 469 3553 
L 469 4384 
Q 803 4563 1142 4656 
Q 1481 4750 1806 4750 
Q 2534 4750 2956 4397 
Q 3378 4044 3378 3438 
Q 3378 2753 2422 1800 
Q 2347 1728 2309 1691 
L 1131 513 
L 3078 513 
L 3078 1088 
L 3444 1088 
L 3444 0 
L 434 0 
L 434 341 
L 1850 1753 
Q 2319 2222 2519 2614 
Q 2719 3006 2719 3438 
Q 2719 3909 2473 4175 
Q 2228 4441 1797 4441 
Q 1350 4441 1106 4219 
Q 863 3997 819 3553 
z
" transform="scale(0.015625)"/>
       </defs>
       <use xlink:href="#DejaVuSerif-32"/>
      </g>
     </g>
    </g>
    <g id="xtick_3">
     <g id="line2d_5">
      <path d="M 313.840582 279.638125 
L 313.840582 23.038125 
" clip-path="url(#paf1adc2c79)" style="fill: none; stroke-dasharray: 2.96,1.28; stroke-dashoffset: 0; stroke: #b0b0b0; stroke-opacity: 0.5; stroke-width: 0.8"/>
     </g>
     <g id="line2d_6">
      <g>
       <use xlink:href="#mfc857fea2c" x="313.840582" y="279.638125" style="stroke: #000000; stroke-width: 0.8"/>
      </g>
     </g>
     <g id="text_3">
      <!-- 4 -->
      <g transform="translate(310.977457 293.476719) scale(0.09 -0.09)">
       <defs>
        <path id="DejaVuSerif-34" d="M 2234 1581 
L 2234 4063 
L 641 1581 
L 2234 1581 
z
M 3609 0 
L 1484 0 
L 1484 331 
L 2234 331 
L 2234 1247 
L 197 1247 
L 197 1588 
L 2241 4750 
L 2859 4750 
L 2859 1581 
L 3750 1581 
L 3750 1247 
L 2859 1247 
L 2859 331 
L 3609 331 
L 3609 0 
z
" transform="scale(0.015625)"/>
       </defs>
       <use xlink:href="#DejaVuSerif-34"/>
      </g>
     </g>
    </g>
    <g id="xtick_4">
     <g id="line2d_7">
      <path d="M 425.858764 279.638125 
L 425.858764 23.038125 
" clip-path="url(#paf1adc2c79)" style="fill: none; stroke-dasharray: 2.96,1.28; stroke-dashoffset: 0; stroke: #b0b0b0; stroke-opacity: 0.5; stroke-width: 0.8"/>
     </g>
     <g id="line2d_8">
      <g>
       <use xlink:href="#mfc857fea2c" x="425.858764" y="279.638125" style="stroke: #000000; stroke-width: 0.8"/>
      </g>
     </g>
     <g id="text_4">
      <!-- 6 -->
      <g transform="translate(422.995639 293.476719) scale(0.09 -0.09)">
       <defs>
        <path id="DejaVuSerif-36" d="M 2094 219 
Q 2534 219 2771 542 
Q 3009 866 3009 1472 
Q 3009 2078 2771 2401 
Q 2534 2725 2094 2725 
Q 1647 2725 1412 2412 
Q 1178 2100 1178 1509 
Q 1178 888 1415 553 
Q 1653 219 2094 219 
z
M 1075 2569 
Q 1288 2803 1556 2918 
Q 1825 3034 2163 3034 
Q 2859 3034 3264 2615 
Q 3669 2197 3669 1472 
Q 3669 763 3233 336 
Q 2797 -91 2069 -91 
Q 1278 -91 853 498 
Q 428 1088 428 2181 
Q 428 3406 931 4078 
Q 1434 4750 2350 4750 
Q 2597 4750 2869 4703 
Q 3141 4656 3425 4563 
L 3425 3794 
L 3072 3794 
Q 3034 4109 2831 4275 
Q 2628 4441 2284 4441 
Q 1678 4441 1381 3981 
Q 1084 3522 1075 2569 
z
" transform="scale(0.015625)"/>
       </defs>
       <use xlink:href="#DejaVuSerif-36"/>
      </g>
     </g>
    </g>
    <g id="xtick_5">
     <g id="line2d_9">
      <path d="M 537.876946 279.638125 
L 537.876946 23.038125 
" clip-path="url(#paf1adc2c79)" style="fill: none; stroke-dasharray: 2.96,1.28; stroke-dashoffset: 0; stroke: #b0b0b0; stroke-opacity: 0.5; stroke-width: 0.8"/>
     </g>
     <g id="line2d_10">
      <g>
       <use xlink:href="#mfc857fea2c" x="537.876946" y="279.638125" style="stroke: #000000; stroke-width: 0.8"/>
      </g>
     </g>
     <g id="text_5">
      <!-- 8 -->
      <g transform="translate(535.013821 293.476719) scale(0.09 -0.09)">
       <defs>
        <path id="DejaVuSerif-38" d="M 2981 1275 
Q 2981 1775 2732 2051 
Q 2484 2328 2034 2328 
Q 1584 2328 1336 2051 
Q 1088 1775 1088 1275 
Q 1088 772 1336 495 
Q 1584 219 2034 219 
Q 2484 219 2732 495 
Q 2981 772 2981 1275 
z
M 2853 3541 
Q 2853 3966 2637 4203 
Q 2422 4441 2034 4441 
Q 1650 4441 1433 4203 
Q 1216 3966 1216 3541 
Q 1216 3113 1433 2875 
Q 1650 2638 2034 2638 
Q 2422 2638 2637 2875 
Q 2853 3113 2853 3541 
z
M 2516 2484 
Q 3047 2413 3344 2092 
Q 3641 1772 3641 1275 
Q 3641 619 3225 264 
Q 2809 -91 2034 -91 
Q 1263 -91 845 264 
Q 428 619 428 1275 
Q 428 1772 725 2092 
Q 1022 2413 1556 2484 
Q 1084 2569 832 2842 
Q 581 3116 581 3541 
Q 581 4103 968 4426 
Q 1356 4750 2034 4750 
Q 2713 4750 3100 4426 
Q 3488 4103 3488 3541 
Q 3488 3116 3236 2842 
Q 2984 2569 2516 2484 
z
" transform="scale(0.015625)"/>
       </defs>
       <use xlink:href="#DejaVuSerif-38"/>
      </g>
     </g>
    </g>
    <g id="xtick_6">
     <g id="line2d_11">
      <path d="M 649.895128 279.638125 
L 649.895128 23.038125 
" clip-path="url(#paf1adc2c79)" style="fill: none; stroke-dasharray: 2.96,1.28; stroke-dashoffset: 0; stroke: #b0b0b0; stroke-opacity: 0.5; stroke-width: 0.8"/>
     </g>
     <g id="line2d_12">
      <g>
       <use xlink:href="#mfc857fea2c" x="649.895128" y="279.638125" style="stroke: #000000; stroke-width: 0.8"/>
      </g>
     </g>
     <g id="text_6">
      <!-- 10 -->
      <g transform="translate(644.168878 293.476719) scale(0.09 -0.09)">
       <defs>
        <path id="DejaVuSerif-31" d="M 909 0 
L 909 331 
L 1722 331 
L 1722 4213 
L 781 3603 
L 781 4013 
L 1919 4750 
L 2350 4750 
L 2350 331 
L 3163 331 
L 3163 0 
L 909 0 
z
" transform="scale(0.015625)"/>
       </defs>
       <use xlink:href="#DejaVuSerif-31"/>
       <use xlink:href="#DejaVuSerif-30" transform="translate(63.623047 0)"/>
      </g>
     </g>
    </g>
    <g id="text_7">
     <!-- Оценка (0-10) -->
     <g transform="translate(357.772969 307.706719) scale(0.11 -0.11)">
      <defs>
       <path id="DejaVuSerif-41e" d="M 2625 244 
Q 3391 244 3781 770 
Q 4172 1297 4172 2328 
Q 4172 3363 3781 3889 
Q 3391 4416 2625 4416 
Q 1856 4416 1465 3889 
Q 1075 3363 1075 2328 
Q 1075 1297 1465 770 
Q 1856 244 2625 244 
z
M 2625 -91 
Q 2150 -91 1751 65 
Q 1353 222 1050 525 
Q 700 875 529 1319 
Q 359 1763 359 2328 
Q 359 2894 529 3339 
Q 700 3784 1050 4134 
Q 1356 4441 1750 4595 
Q 2144 4750 2625 4750 
Q 3641 4750 4266 4084 
Q 4891 3419 4891 2328 
Q 4891 1769 4719 1320 
Q 4547 872 4197 525 
Q 3891 219 3497 64 
Q 3103 -91 2625 -91 
z
" transform="scale(0.015625)"/>
       <path id="DejaVuSerif-446" d="M 3203 0 
L 231 0 
L 231 328 
L 750 328 
L 750 2991 
L 231 2991 
L 231 3322 
L 1844 3322 
L 1844 2991 
L 1325 2991 
L 1325 384 
L 2847 384 
L 2847 2991 
L 2328 2991 
L 2328 3322 
L 3941 3322 
L 3941 2991 
L 3422 2991 
L 3422 331 
L 3941 331 
L 3941 -884 
L 3616 -884 
L 3566 -444 
Q 3516 0 3203 0 
z
" transform="scale(0.015625)"/>
       <path id="DejaVuSerif-435" d="M 3469 1600 
L 991 1600 
L 991 1575 
Q 991 903 1244 561 
Q 1497 219 1991 219 
Q 2369 219 2611 417 
Q 2853 616 2950 1006 
L 3413 1006 
Q 3275 459 2904 184 
Q 2534 -91 1931 -91 
Q 1203 -91 761 389 
Q 319 869 319 1663 
Q 319 2450 753 2931 
Q 1188 3413 1894 3413 
Q 2647 3413 3050 2948 
Q 3453 2484 3469 1600 
z
M 2791 1931 
Q 2772 2513 2545 2808 
Q 2319 3103 1894 3103 
Q 1497 3103 1269 2806 
Q 1041 2509 991 1931 
L 2791 1931 
z
" transform="scale(0.015625)"/>
       <path id="DejaVuSerif-43d" d="M 3409 2991 
L 3409 331 
L 3928 331 
L 3928 0 
L 2316 0 
L 2316 331 
L 2834 331 
L 2834 1613 
L 1313 1613 
L 1313 331 
L 1831 331 
L 1831 0 
L 219 0 
L 219 331 
L 738 331 
L 738 2991 
L 219 2991 
L 219 3322 
L 1831 3322 
L 1831 2991 
L 1313 2991 
L 1313 2000 
L 2834 2000 
L 2834 2991 
L 2316 2991 
L 2316 3322 
L 3928 3322 
L 3928 2991 
L 3409 2991 
z
" transform="scale(0.015625)"/>
       <path id="DejaVuSerif-43a" d="M 1831 3322 
L 1831 2991 
L 1313 2991 
L 1313 1697 
L 2713 2991 
L 2234 2991 
L 2234 3322 
L 3738 3322 
L 3738 2991 
L 3169 2991 
L 2181 2075 
L 3444 331 
L 3922 331 
L 3922 0 
L 2284 0 
L 2284 331 
L 2759 331 
L 1766 1697 
L 1313 1275 
L 1313 331 
L 1831 331 
L 1831 0 
L 219 0 
L 219 331 
L 738 331 
L 738 2991 
L 219 2991 
L 219 3322 
L 1831 3322 
z
" transform="scale(0.015625)"/>
       <path id="DejaVuSerif-430" d="M 2547 1044 
L 2547 1747 
L 1806 1747 
Q 1378 1747 1168 1562 
Q 959 1378 959 997 
Q 959 650 1171 447 
Q 1384 244 1747 244 
Q 2106 244 2326 466 
Q 2547 688 2547 1044 
z
M 3122 2075 
L 3122 331 
L 3634 331 
L 3634 0 
L 2547 0 
L 2547 359 
Q 2356 128 2106 18 
Q 1856 -91 1522 -91 
Q 969 -91 644 203 
Q 319 497 319 997 
Q 319 1513 691 1797 
Q 1063 2081 1741 2081 
L 2547 2081 
L 2547 2309 
Q 2547 2688 2317 2895 
Q 2088 3103 1672 3103 
Q 1328 3103 1125 2947 
Q 922 2791 872 2484 
L 575 2484 
L 575 3156 
Q 875 3284 1158 3348 
Q 1441 3413 1709 3413 
Q 2400 3413 2761 3070 
Q 3122 2728 3122 2075 
z
" transform="scale(0.015625)"/>
       <path id="DejaVuSerif-20" transform="scale(0.015625)"/>
       <path id="DejaVuSerif-28" d="M 2041 -997 
Q 1281 -656 893 83 
Q 506 822 506 1931 
Q 506 3044 893 3783 
Q 1281 4522 2041 4863 
L 2041 4556 
Q 1559 4225 1350 3623 
Q 1141 3022 1141 1931 
Q 1141 844 1350 242 
Q 1559 -359 2041 -691 
L 2041 -997 
z
" transform="scale(0.015625)"/>
       <path id="DejaVuSerif-2d" d="M 281 1959 
L 1881 1959 
L 1881 1472 
L 281 1472 
L 281 1959 
z
" transform="scale(0.015625)"/>
       <path id="DejaVuSerif-29" d="M 453 -997 
L 453 -691 
Q 934 -359 1145 242 
Q 1356 844 1356 1931 
Q 1356 3022 1145 3623 
Q 934 4225 453 4556 
L 453 4863 
Q 1216 4522 1603 3783 
Q 1991 3044 1991 1931 
Q 1991 822 1603 83 
Q 1216 -656 453 -997 
z
" transform="scale(0.015625)"/>
      </defs>
      <use xlink:href="#DejaVuSerif-41e"/>
      <use xlink:href="#DejaVuSerif-446" transform="translate(81.982422 0)"/>
      <use xlink:href="#DejaVuSerif-435" transform="translate(146.289062 0)"/>
      <use xlink:href="#DejaVuSerif-43d" transform="translate(205.46875 0)"/>
      <use xlink:href="#DejaVuSerif-43a" transform="translate(272.119141 0)"/>
      <use xlink:href="#DejaVuSerif-430" transform="translate(334.619141 0)"/>
      <use xlink:href="#DejaVuSerif-20" transform="translate(394.238281 0)"/>
      <use xlink:href="#DejaVuSerif-28" transform="translate(426.025391 0)"/>
      <use xlink:href="#DejaVuSerif-30" transform="translate(465.039062 0)"/>
      <use xlink:href="#DejaVuSerif-2d" transform="translate(528.662109 0)"/>
      <use xlink:href="#DejaVuSerif-31" transform="translate(562.451172 0)"/>
      <use xlink:href="#DejaVuSerif-30" transform="translate(626.074219 0)"/>
      <use xlink:href="#DejaVuSerif-29" transform="translate(689.697266 0)"/>
     </g>
    </g>
   </g>
   <g id="matplotlib.axis_2">
    <g id="ytick_1">
     <g id="line2d_13">
      <defs>
       <path id="mde77db8af5" d="M 0 0 
L -3.5 0 
" style="stroke: #000000; stroke-width: 0.8"/>
      </defs>
      <g>
       <use xlink:href="#mde77db8af5" x="89.804219" y="234.649813" style="stroke: #000000; stroke-width: 0.8"/>
      </g>
     </g>
     <g id="text_8">
      <!-- Claude Opus 4.5 -->
      <g transform="translate(7.2 238.06911) scale(0.09 -0.09)">
       <defs>
        <path id="DejaVuSerif-43" d="M 4513 1234 
Q 4306 581 3820 245 
Q 3334 -91 2591 -91 
Q 2134 -91 1743 65 
Q 1353 222 1050 525 
Q 700 875 529 1320 
Q 359 1766 359 2328 
Q 359 3416 987 4083 
Q 1616 4750 2644 4750 
Q 3025 4750 3456 4650 
Q 3888 4550 4384 4347 
L 4384 3272 
L 4031 3272 
Q 3916 3859 3567 4137 
Q 3219 4416 2591 4416 
Q 1844 4416 1459 3886 
Q 1075 3356 1075 2328 
Q 1075 1303 1459 773 
Q 1844 244 2591 244 
Q 3113 244 3450 492 
Q 3788 741 3938 1234 
L 4513 1234 
z
" transform="scale(0.015625)"/>
        <path id="DejaVuSerif-6c" d="M 1313 331 
L 1856 331 
L 1856 0 
L 184 0 
L 184 331 
L 738 331 
L 738 4531 
L 184 4531 
L 184 4863 
L 1313 4863 
L 1313 331 
z
" transform="scale(0.015625)"/>
        <path id="DejaVuSerif-61" d="M 2547 1044 
L 2547 1747 
L 1806 1747 
Q 1378 1747 1168 1562 
Q 959 1378 959 997 
Q 959 650 1171 447 
Q 1384 244 1747 244 
Q 2106 244 2326 466 
Q 2547 688 2547 1044 
z
M 3122 2075 
L 3122 331 
L 3634 331 
L 3634 0 
L 2547 0 
L 2547 359 
Q 2356 128 2106 18 
Q 1856 -91 1522 -91 
Q 969 -91 644 203 
Q 319 497 319 997 
Q 319 1513 691 1797 
Q 1063 2081 1741 2081 
L 2547 2081 
L 2547 2309 
Q 2547 2688 2317 2895 
Q 2088 3103 1672 3103 
Q 1328 3103 1125 2947 
Q 922 2791 872 2484 
L 575 2484 
L 575 3156 
Q 875 3284 1158 3348 
Q 1441 3413 1709 3413 
Q 2400 3413 2761 3070 
Q 3122 2728 3122 2075 
z
" transform="scale(0.015625)"/>
        <path id="DejaVuSerif-75" d="M 2266 3322 
L 3341 3322 
L 3341 331 
L 3884 331 
L 3884 0 
L 2766 0 
L 2766 588 
Q 2606 256 2353 82 
Q 2100 -91 1766 -91 
Q 1213 -91 952 223 
Q 691 538 691 1209 
L 691 2988 
L 172 2988 
L 172 3322 
L 1269 3322 
L 1269 1388 
Q 1269 781 1417 556 
Q 1566 331 1947 331 
Q 2347 331 2556 625 
Q 2766 919 2766 1478 
L 2766 2988 
L 2266 2988 
L 2266 3322 
z
" transform="scale(0.015625)"/>
        <path id="DejaVuSerif-64" d="M 3359 331 
L 3909 331 
L 3909 0 
L 2784 0 
L 2784 519 
Q 2616 206 2355 57 
Q 2094 -91 1709 -91 
Q 1097 -91 708 395 
Q 319 881 319 1663 
Q 319 2444 706 2928 
Q 1094 3413 1709 3413 
Q 2094 3413 2355 3264 
Q 2616 3116 2784 2803 
L 2784 4531 
L 2241 4531 
L 2241 4863 
L 3359 4863 
L 3359 331 
z
M 2784 1497 
L 2784 1825 
Q 2784 2422 2554 2737 
Q 2325 3053 1888 3053 
Q 1444 3053 1217 2703 
Q 991 2353 991 1663 
Q 991 975 1217 622 
Q 1444 269 1888 269 
Q 2325 269 2554 583 
Q 2784 897 2784 1497 
z
" transform="scale(0.015625)"/>
        <path id="DejaVuSerif-65" d="M 3469 1600 
L 991 1600 
L 991 1575 
Q 991 903 1244 561 
Q 1497 219 1991 219 
Q 2369 219 2611 417 
Q 2853 616 2950 1006 
L 3413 1006 
Q 3275 459 2904 184 
Q 2534 -91 1931 -91 
Q 1203 -91 761 389 
Q 319 869 319 1663 
Q 319 2450 753 2931 
Q 1188 3413 1894 3413 
Q 2647 3413 3050 2948 
Q 3453 2484 3469 1600 
z
M 2791 1931 
Q 2772 2513 2545 2808 
Q 2319 3103 1894 3103 
Q 1497 3103 1269 2806 
Q 1041 2509 991 1931 
L 2791 1931 
z
" transform="scale(0.015625)"/>
        <path id="DejaVuSerif-4f" d="M 2625 244 
Q 3391 244 3781 770 
Q 4172 1297 4172 2328 
Q 4172 3363 3781 3889 
Q 3391 4416 2625 4416 
Q 1856 4416 1465 3889 
Q 1075 3363 1075 2328 
Q 1075 1297 1465 770 
Q 1856 244 2625 244 
z
M 2625 -91 
Q 2150 -91 1751 65 
Q 1353 222 1050 525 
Q 700 875 529 1319 
Q 359 1763 359 2328 
Q 359 2894 529 3339 
Q 700 3784 1050 4134 
Q 1356 4441 1750 4595 
Q 2144 4750 2625 4750 
Q 3641 4750 4266 4084 
Q 4891 3419 4891 2328 
Q 4891 1769 4719 1320 
Q 4547 872 4197 525 
Q 3891 219 3497 64 
Q 3103 -91 2625 -91 
z
" transform="scale(0.015625)"/>
        <path id="DejaVuSerif-70" d="M 1313 1825 
L 1313 1497 
Q 1313 897 1542 583 
Q 1772 269 2209 269 
Q 2650 269 2876 622 
Q 3103 975 3103 1663 
Q 3103 2353 2876 2703 
Q 2650 3053 2209 3053 
Q 1772 3053 1542 2737 
Q 1313 2422 1313 1825 
z
M 738 2988 
L 184 2988 
L 184 3322 
L 1313 3322 
L 1313 2803 
Q 1481 3116 1742 3264 
Q 2003 3413 2388 3413 
Q 3000 3413 3387 2928 
Q 3775 2444 3775 1663 
Q 3775 881 3387 395 
Q 3000 -91 2388 -91 
Q 2003 -91 1742 57 
Q 1481 206 1313 519 
L 1313 -997 
L 1856 -997 
L 1856 -1331 
L 184 -1331 
L 184 -997 
L 738 -997 
L 738 2988 
z
" transform="scale(0.015625)"/>
        <path id="DejaVuSerif-73" d="M 359 184 
L 359 959 
L 691 959 
Q 703 588 923 403 
Q 1144 219 1575 219 
Q 1963 219 2166 364 
Q 2369 509 2369 788 
Q 2369 1006 2220 1140 
Q 2072 1275 1594 1428 
L 1178 1569 
Q 750 1706 558 1912 
Q 366 2119 366 2438 
Q 366 2894 700 3153 
Q 1034 3413 1625 3413 
Q 1888 3413 2178 3344 
Q 2469 3275 2778 3144 
L 2778 2419 
L 2447 2419 
Q 2434 2741 2221 2922 
Q 2009 3103 1644 3103 
Q 1281 3103 1095 2975 
Q 909 2847 909 2591 
Q 909 2381 1050 2254 
Q 1191 2128 1613 1997 
L 2069 1856 
Q 2541 1709 2748 1489 
Q 2956 1269 2956 922 
Q 2956 450 2595 179 
Q 2234 -91 1600 -91 
Q 1278 -91 972 -22 
Q 666 47 359 184 
z
" transform="scale(0.015625)"/>
        <path id="DejaVuSerif-2e" d="M 603 325 
Q 603 500 722 622 
Q 841 744 1019 744 
Q 1191 744 1312 622 
Q 1434 500 1434 325 
Q 1434 153 1312 31 
Q 1191 -91 1019 -91 
Q 841 -91 722 29 
Q 603 150 603 325 
z
" transform="scale(0.015625)"/>
        <path id="DejaVuSerif-35" d="M 3219 4666 
L 3219 4153 
L 1081 4153 
L 1081 2816 
Q 1244 2928 1461 2984 
Q 1678 3041 1947 3041 
Q 2703 3041 3140 2622 
Q 3578 2203 3578 1478 
Q 3578 738 3136 323 
Q 2694 -91 1894 -91 
Q 1572 -91 1234 -12 
Q 897 66 544 225 
L 544 1131 
L 897 1131 
Q 925 688 1179 453 
Q 1434 219 1894 219 
Q 2388 219 2653 544 
Q 2919 869 2919 1478 
Q 2919 2084 2655 2407 
Q 2391 2731 1894 2731 
Q 1613 2731 1398 2631 
Q 1184 2531 1019 2322 
L 750 2322 
L 750 4666 
L 3219 4666 
z
" transform="scale(0.015625)"/>
       </defs>
       <use xlink:href="#DejaVuSerif-43"/>
       <use xlink:href="#DejaVuSerif-6c" transform="translate(76.513672 0)"/>
       <use xlink:href="#DejaVuSerif-61" transform="translate(108.496094 0)"/>
       <use xlink:href="#DejaVuSerif-75" transform="translate(168.115234 0)"/>
       <use xlink:href="#DejaVuSerif-64" transform="translate(232.519531 0)"/>
       <use xlink:href="#DejaVuSerif-65" transform="translate(296.533203 0)"/>
       <use xlink:href="#DejaVuSerif-20" transform="translate(355.712891 0)"/>
       <use xlink:href="#DejaVuSerif-4f" transform="translate(387.5 0)"/>
       <use xlink:href="#DejaVuSerif-70" transform="translate(469.482422 0)"/>
       <use xlink:href="#DejaVuSerif-75" transform="translate(533.496094 0)"/>
       <use xlink:href="#DejaVuSerif-73" transform="translate(597.900391 0)"/>
       <use xlink:href="#DejaVuSerif-20" transform="translate(649.21875 0)"/>
       <use xlink:href="#DejaVuSerif-34" transform="translate(681.005859 0)"/>
       <use xlink:href="#DejaVuSerif-2e" transform="translate(744.628906 0)"/>
       <use xlink:href="#DejaVuSerif-35" transform="translate(776.416016 0)"/>
      </g>
     </g>
    </g>
    <g id="ytick_2">
     <g id="line2d_14">
      <g>
       <use xlink:href="#mde77db8af5" x="89.804219" y="151.338125" style="stroke: #000000; stroke-width: 0.8"/>
      </g>
     </g>
     <g id="text_9">
      <!-- GPT-5.2 Codex -->
      <g transform="translate(16.03125 154.757422) scale(0.09 -0.09)">
       <defs>
        <path id="DejaVuSerif-47" d="M 4097 3272 
Q 3988 3856 3641 4136 
Q 3294 4416 2675 4416 
Q 1869 4416 1472 3897 
Q 1075 3378 1075 2328 
Q 1075 1300 1484 772 
Q 1894 244 2688 244 
Q 3041 244 3362 331 
Q 3684 419 3975 594 
L 3975 1797 
L 3097 1797 
L 3097 2131 
L 4609 2131 
L 4609 391 
Q 4194 150 3714 29 
Q 3234 -91 2688 -91 
Q 1631 -91 995 570 
Q 359 1231 359 2328 
Q 359 3434 996 4092 
Q 1634 4750 2713 4750 
Q 3113 4750 3539 4658 
Q 3966 4566 4447 4378 
L 4447 3272 
L 4097 3272 
z
" transform="scale(0.015625)"/>
        <path id="DejaVuSerif-50" d="M 1581 2375 
L 2406 2375 
Q 2872 2375 3115 2626 
Q 3359 2878 3359 3353 
Q 3359 3831 3115 4081 
Q 2872 4331 2406 4331 
L 1581 4331 
L 1581 2375 
z
M 353 0 
L 353 331 
L 947 331 
L 947 4331 
L 353 4331 
L 353 4666 
L 2559 4666 
Q 3259 4666 3668 4311 
Q 4078 3956 4078 3353 
Q 4078 2753 3668 2397 
Q 3259 2041 2559 2041 
L 1581 2041 
L 1581 331 
L 2303 331 
L 2303 0 
L 353 0 
z
" transform="scale(0.015625)"/>
        <path id="DejaVuSerif-54" d="M 1222 0 
L 1222 331 
L 1819 331 
L 1819 4294 
L 447 4294 
L 447 3566 
L 63 3566 
L 63 4666 
L 4206 4666 
L 4206 3566 
L 3822 3566 
L 3822 4294 
L 2450 4294 
L 2450 331 
L 3047 331 
L 3047 0 
L 1222 0 
z
" transform="scale(0.015625)"/>
        <path id="DejaVuSerif-6f" d="M 1925 219 
Q 2388 219 2623 584 
Q 2859 950 2859 1663 
Q 2859 2375 2623 2739 
Q 2388 3103 1925 3103 
Q 1463 3103 1227 2739 
Q 991 2375 991 1663 
Q 991 950 1228 584 
Q 1466 219 1925 219 
z
M 1925 -91 
Q 1200 -91 759 389 
Q 319 869 319 1663 
Q 319 2456 758 2934 
Q 1197 3413 1925 3413 
Q 2653 3413 3092 2934 
Q 3531 2456 3531 1663 
Q 3531 869 3092 389 
Q 2653 -91 1925 -91 
z
" transform="scale(0.015625)"/>
        <path id="DejaVuSerif-78" d="M 1863 2028 
L 2559 2988 
L 2113 2988 
L 2113 3322 
L 3391 3322 
L 3391 2988 
L 2950 2988 
L 2059 1759 
L 3097 331 
L 3531 331 
L 3531 0 
L 1997 0 
L 1997 331 
L 2419 331 
L 1697 1325 
L 972 331 
L 1403 331 
L 1403 0 
L 141 0 
L 141 331 
L 581 331 
L 1497 1594 
L 488 2988 
L 78 2988 
L 78 3322 
L 1563 3322 
L 1563 2988 
L 1166 2988 
L 1863 2028 
z
" transform="scale(0.015625)"/>
       </defs>
       <use xlink:href="#DejaVuSerif-47"/>
       <use xlink:href="#DejaVuSerif-50" transform="translate(79.882812 0)"/>
       <use xlink:href="#DejaVuSerif-54" transform="translate(147.167969 0)"/>
       <use xlink:href="#DejaVuSerif-2d" transform="translate(200.992188 0)"/>
       <use xlink:href="#DejaVuSerif-35" transform="translate(234.78125 0)"/>
       <use xlink:href="#DejaVuSerif-2e" transform="translate(298.404297 0)"/>
       <use xlink:href="#DejaVuSerif-32" transform="translate(330.191406 0)"/>
       <use xlink:href="#DejaVuSerif-20" transform="translate(393.814453 0)"/>
       <use xlink:href="#DejaVuSerif-43" transform="translate(425.601562 0)"/>
       <use xlink:href="#DejaVuSerif-6f" transform="translate(502.115234 0)"/>
       <use xlink:href="#DejaVuSerif-64" transform="translate(562.320312 0)"/>
       <use xlink:href="#DejaVuSerif-65" transform="translate(626.333984 0)"/>
       <use xlink:href="#DejaVuSerif-78" transform="translate(685.513672 0)"/>
      </g>
     </g>
    </g>
    <g id="ytick_3">
     <g id="line2d_15">
      <g>
       <use xlink:href="#mde77db8af5" x="89.804219" y="68.026437" style="stroke: #000000; stroke-width: 0.8"/>
      </g>
     </g>
     <g id="text_10">
      <!-- Gemini 3 Flash -->
      <g transform="translate(13.847344 71.445734) scale(0.09 -0.09)">
       <defs>
        <path id="DejaVuSerif-6d" d="M 3316 2675 
Q 3481 3041 3739 3227 
Q 3997 3413 4341 3413 
Q 4863 3413 5119 3089 
Q 5375 2766 5375 2113 
L 5375 331 
L 5894 331 
L 5894 0 
L 4300 0 
L 4300 331 
L 4800 331 
L 4800 2047 
Q 4800 2556 4650 2772 
Q 4500 2988 4153 2988 
Q 3769 2988 3567 2697 
Q 3366 2406 3366 1850 
L 3366 331 
L 3866 331 
L 3866 0 
L 2291 0 
L 2291 331 
L 2791 331 
L 2791 2069 
Q 2791 2566 2641 2777 
Q 2491 2988 2144 2988 
Q 1759 2988 1557 2697 
Q 1356 2406 1356 1850 
L 1356 331 
L 1856 331 
L 1856 0 
L 263 0 
L 263 331 
L 781 331 
L 781 2994 
L 231 2994 
L 231 3322 
L 1356 3322 
L 1356 2731 
Q 1516 3063 1762 3238 
Q 2009 3413 2322 3413 
Q 2709 3413 2968 3220 
Q 3228 3028 3316 2675 
z
" transform="scale(0.015625)"/>
        <path id="DejaVuSerif-69" d="M 622 4353 
Q 622 4497 726 4603 
Q 831 4709 978 4709 
Q 1122 4709 1226 4603 
Q 1331 4497 1331 4353 
Q 1331 4206 1228 4103 
Q 1125 4000 978 4000 
Q 831 4000 726 4103 
Q 622 4206 622 4353 
z
M 1356 331 
L 1900 331 
L 1900 0 
L 231 0 
L 231 331 
L 781 331 
L 781 2988 
L 231 2988 
L 231 3322 
L 1356 3322 
L 1356 331 
z
" transform="scale(0.015625)"/>
        <path id="DejaVuSerif-6e" d="M 263 0 
L 263 331 
L 781 331 
L 781 2988 
L 231 2988 
L 231 3322 
L 1356 3322 
L 1356 2731 
Q 1516 3069 1770 3241 
Q 2025 3413 2363 3413 
Q 2913 3413 3172 3097 
Q 3431 2781 3431 2113 
L 3431 331 
L 3944 331 
L 3944 0 
L 2356 0 
L 2356 331 
L 2853 331 
L 2853 1931 
Q 2853 2541 2703 2767 
Q 2553 2994 2175 2994 
Q 1775 2994 1565 2701 
Q 1356 2409 1356 1850 
L 1356 331 
L 1856 331 
L 1856 0 
L 263 0 
z
" transform="scale(0.015625)"/>
        <path id="DejaVuSerif-33" d="M 622 4469 
Q 988 4606 1323 4678 
Q 1659 4750 1953 4750 
Q 2638 4750 3022 4454 
Q 3406 4159 3406 3634 
Q 3406 3213 3140 2930 
Q 2875 2647 2388 2547 
Q 2963 2466 3280 2130 
Q 3597 1794 3597 1259 
Q 3597 606 3158 257 
Q 2719 -91 1894 -91 
Q 1528 -91 1179 -12 
Q 831 66 488 225 
L 488 1131 
L 838 1131 
Q 869 681 1141 450 
Q 1413 219 1906 219 
Q 2384 219 2661 495 
Q 2938 772 2938 1253 
Q 2938 1803 2653 2086 
Q 2369 2369 1819 2369 
L 1522 2369 
L 1522 2688 
L 1678 2688 
Q 2225 2688 2498 2914 
Q 2772 3141 2772 3597 
Q 2772 4006 2547 4223 
Q 2322 4441 1900 4441 
Q 1478 4441 1245 4241 
Q 1013 4041 972 3647 
L 622 3647 
L 622 4469 
z
" transform="scale(0.015625)"/>
        <path id="DejaVuSerif-46" d="M 353 0 
L 353 331 
L 947 331 
L 947 4331 
L 353 4331 
L 353 4666 
L 4172 4666 
L 4172 3628 
L 3788 3628 
L 3788 4281 
L 1581 4281 
L 1581 2719 
L 3175 2719 
L 3175 3303 
L 3559 3303 
L 3559 1753 
L 3175 1753 
L 3175 2338 
L 1581 2338 
L 1581 331 
L 2328 331 
L 2328 0 
L 353 0 
z
" transform="scale(0.015625)"/>
        <path id="DejaVuSerif-68" d="M 263 0 
L 263 331 
L 781 331 
L 781 4531 
L 231 4531 
L 231 4863 
L 1356 4863 
L 1356 2731 
Q 1516 3069 1770 3241 
Q 2025 3413 2363 3413 
Q 2913 3413 3172 3097 
Q 3431 2781 3431 2113 
L 3431 331 
L 3944 331 
L 3944 0 
L 2356 0 
L 2356 331 
L 2853 331 
L 2853 1931 
Q 2853 2541 2704 2764 
Q 2556 2988 2175 2988 
Q 1775 2988 1565 2697 
Q 1356 2406 1356 1850 
L 1356 331 
L 1856 331 
L 1856 0 
L 263 0 
z
" transform="scale(0.015625)"/>
       </defs>
       <use xlink:href="#DejaVuSerif-47"/>
       <use xlink:href="#DejaVuSerif-65" transform="translate(79.882812 0)"/>
       <use xlink:href="#DejaVuSerif-6d" transform="translate(139.0625 0)"/>
       <use xlink:href="#DejaVuSerif-69" transform="translate(233.886719 0)"/>
       <use xlink:href="#DejaVuSerif-6e" transform="translate(265.869141 0)"/>
       <use xlink:href="#DejaVuSerif-69" transform="translate(330.273438 0)"/>
       <use xlink:href="#DejaVuSerif-20" transform="translate(362.255859 0)"/>
       <use xlink:href="#DejaVuSerif-33" transform="translate(394.042969 0)"/>
       <use xlink:href="#DejaVuSerif-20" transform="translate(457.666016 0)"/>
       <use xlink:href="#DejaVuSerif-46" transform="translate(489.453125 0)"/>
       <use xlink:href="#DejaVuSerif-6c" transform="translate(558.837891 0)"/>
       <use xlink:href="#DejaVuSerif-61" transform="translate(590.820312 0)"/>
       <use xlink:href="#DejaVuSerif-73" transform="translate(650.439453 0)"/>
       <use xlink:href="#DejaVuSerif-68" transform="translate(701.757812 0)"/>
      </g>
     </g>
    </g>
   </g>
   <g id="patch_15">
    <path d="M 89.804219 279.638125 
L 89.804219 23.038125 
" style="fill: none; stroke: #000000; stroke-width: 0.8; stroke-linejoin: miter; stroke-linecap: square"/>
   </g>
   <g id="patch_16">
    <path d="M 705.904219 279.638125 
L 705.904219 23.038125 
" style="fill: none; stroke: #000000; stroke-width: 0.8; stroke-linejoin: miter; stroke-linecap: square"/>
   </g>
   <g id="patch_17">
    <path d="M 89.804219 279.638125 
L 705.904219 279.638125 
" style="fill: none; stroke: #000000; stroke-width: 0.8; stroke-linejoin: miter; stroke-linecap: square"/>
   </g>
   <g id="patch_18">
    <path d="M 89.804219 23.038125 
L 705.904219 23.038125 
" style="fill: none; stroke: #000000; stroke-width: 0.8; stroke-linejoin: miter; stroke-linecap: square"/>
   </g>
   <g id="text_11">
    <!-- 9.2 -->
    <g transform="translate(610.688764 261.85082) scale(0.08 -0.08)">
     <defs>
      <path id="DejaVuSerif-39" d="M 2994 2091 
Q 2784 1856 2512 1740 
Q 2241 1625 1900 1625 
Q 1206 1625 804 2044 
Q 403 2463 403 3188 
Q 403 3897 839 4323 
Q 1275 4750 2003 4750 
Q 2794 4750 3217 4161 
Q 3641 3572 3641 2478 
Q 3641 1253 3137 581 
Q 2634 -91 1722 -91 
Q 1475 -91 1203 -44 
Q 931 3 647 97 
L 647 872 
L 997 872 
Q 1038 556 1241 387 
Q 1444 219 1784 219 
Q 2391 219 2687 676 
Q 2984 1134 2994 2091 
z
M 1978 4441 
Q 1534 4441 1298 4117 
Q 1063 3794 1063 3188 
Q 1063 2581 1298 2256 
Q 1534 1931 1978 1931 
Q 2422 1931 2658 2245 
Q 2894 2559 2894 3150 
Q 2894 3772 2656 4106 
Q 2419 4441 1978 4441 
z
" transform="scale(0.015625)"/>
     </defs>
     <use xlink:href="#DejaVuSerif-39"/>
     <use xlink:href="#DejaVuSerif-2e" transform="translate(63.623047 0)"/>
     <use xlink:href="#DejaVuSerif-32" transform="translate(95.410156 0)"/>
    </g>
   </g>
   <g id="text_12">
    <!-- 8.0 -->
    <g transform="translate(543.477855 178.539131) scale(0.08 -0.08)">
     <use xlink:href="#DejaVuSerif-38"/>
     <use xlink:href="#DejaVuSerif-2e" transform="translate(63.623047 0)"/>
     <use xlink:href="#DejaVuSerif-30" transform="translate(95.410156 0)"/>
    </g>
   </g>
   <g id="text_13">
    <!-- 9.2 -->
    <g transform="translate(610.688764 95.227443) scale(0.08 -0.08)">
     <use xlink:href="#DejaVuSerif-39"/>
     <use xlink:href="#DejaVuSerif-2e" transform="translate(63.623047 0)"/>
     <use xlink:href="#DejaVuSerif-32" transform="translate(95.410156 0)"/>
    </g>
   </g>
   <g id="text_14">
    <!-- 9.6 -->
    <g transform="translate(633.092401 245.188482) scale(0.08 -0.08)">
     <use xlink:href="#DejaVuSerif-39"/>
     <use xlink:href="#DejaVuSerif-2e" transform="translate(63.623047 0)"/>
     <use xlink:href="#DejaVuSerif-36" transform="translate(95.410156 0)"/>
    </g>
   </g>
   <g id="text_15">
    <!-- 8.0 -->
    <g transform="translate(543.477855 161.876794) scale(0.08 -0.08)">
     <use xlink:href="#DejaVuSerif-38"/>
     <use xlink:href="#DejaVuSerif-2e" transform="translate(63.623047 0)"/>
     <use xlink:href="#DejaVuSerif-30" transform="translate(95.410156 0)"/>
    </g>
   </g>
   <g id="text_16">
    <!-- 9.6 -->
    <g transform="translate(633.092401 78.565106) scale(0.08 -0.08)">
     <use xlink:href="#DejaVuSerif-39"/>
     <use xlink:href="#DejaVuSerif-2e" transform="translate(63.623047 0)"/>
     <use xlink:href="#DejaVuSerif-36" transform="translate(95.410156 0)"/>
    </g>
   </g>
   <g id="text_17">
    <!-- 8.4 -->
    <g transform="translate(565.881491 228.526144) scale(0.08 -0.08)">
     <use xlink:href="#DejaVuSerif-38"/>
     <use xlink:href="#DejaVuSerif-2e" transform="translate(63.623047 0)"/>
     <use xlink:href="#DejaVuSerif-34" transform="translate(95.410156 0)"/>
    </g>
   </g>
   <g id="text_18">
    <!-- 7.5 -->
    <g transform="translate(515.47331 145.214456) scale(0.08 -0.08)">
     <defs>
      <path id="DejaVuSerif-37" d="M 3609 4347 
L 1784 0 
L 1319 0 
L 3059 4153 
L 903 4153 
L 903 3578 
L 538 3578 
L 538 4666 
L 3609 4666 
L 3609 4347 
z
" transform="scale(0.015625)"/>
     </defs>
     <use xlink:href="#DejaVuSerif-37"/>
     <use xlink:href="#DejaVuSerif-2e" transform="translate(63.623047 0)"/>
     <use xlink:href="#DejaVuSerif-35" transform="translate(95.410156 0)"/>
    </g>
   </g>
   <g id="text_19">
    <!-- 9.6 -->
    <g transform="translate(633.092401 61.902768) scale(0.08 -0.08)">
     <use xlink:href="#DejaVuSerif-39"/>
     <use xlink:href="#DejaVuSerif-2e" transform="translate(63.623047 0)"/>
     <use xlink:href="#DejaVuSerif-36" transform="translate(95.410156 0)"/>
    </g>
   </g>
   <g id="text_20">
    <!-- 9.2 -->
    <g transform="translate(610.688764 211.863807) scale(0.08 -0.08)">
     <use xlink:href="#DejaVuSerif-39"/>
     <use xlink:href="#DejaVuSerif-2e" transform="translate(63.623047 0)"/>
     <use xlink:href="#DejaVuSerif-32" transform="translate(95.410156 0)"/>
    </g>
   </g>
   <g id="text_21">
    <!-- 7.0 -->
    <g transform="translate(487.468764 128.552119) scale(0.08 -0.08)">
     <use xlink:href="#DejaVuSerif-37"/>
     <use xlink:href="#DejaVuSerif-2e" transform="translate(63.623047 0)"/>
     <use xlink:href="#DejaVuSerif-30" transform="translate(95.410156 0)"/>
    </g>
   </g>
   <g id="text_22">
    <!-- 9.2 -->
    <g transform="translate(610.688764 45.24043) scale(0.08 -0.08)">
     <use xlink:href="#DejaVuSerif-39"/>
     <use xlink:href="#DejaVuSerif-2e" transform="translate(63.623047 0)"/>
     <use xlink:href="#DejaVuSerif-32" transform="translate(95.410156 0)"/>
    </g>
   </g>
   <g id="text_23">
    <!-- Сравнение моделей по метрикам SMOP -->
    <g transform="translate(258.142344 17.038125) scale(0.12 -0.12)">
     <defs>
      <path id="DejaVuSerif-Bold-421" d="M 4769 1331 
Q 4584 609 4106 259 
Q 3628 -91 2822 -91 
Q 1641 -91 955 561 
Q 269 1213 269 2328 
Q 269 3447 955 4098 
Q 1641 4750 2822 4750 
Q 3238 4750 3688 4650 
Q 4138 4550 4641 4347 
L 4641 3200 
L 4244 3200 
Q 4122 3788 3800 4080 
Q 3478 4372 2950 4372 
Q 2269 4372 1937 3870 
Q 1606 3369 1606 2328 
Q 1606 1288 1937 788 
Q 2269 288 2956 288 
Q 3422 288 3717 547 
Q 4013 806 4147 1331 
L 4769 1331 
z
" transform="scale(0.015625)"/>
      <path id="DejaVuSerif-Bold-440" d="M 1728 1825 
L 1728 1497 
Q 1728 916 1876 656 
Q 2025 397 2356 397 
Q 2697 397 2836 672 
Q 2975 947 2975 1663 
Q 2975 2378 2836 2651 
Q 2697 2925 2356 2925 
Q 2025 2925 1876 2665 
Q 1728 2406 1728 1825 
z
M 622 2944 
L 147 2944 
L 147 3322 
L 1728 3322 
L 1728 2900 
Q 1869 3159 2106 3286 
Q 2344 3413 2694 3413 
Q 3403 3413 3811 2945 
Q 4219 2478 4219 1663 
Q 4219 847 3811 378 
Q 3403 -91 2694 -91 
Q 2344 -91 2106 36 
Q 1869 163 1728 422 
L 1728 -953 
L 2241 -953 
L 2241 -1331 
L 147 -1331 
L 147 -953 
L 622 -953 
L 622 2944 
z
" transform="scale(0.015625)"/>
      <path id="DejaVuSerif-Bold-430" d="M 3525 2041 
L 3525 378 
L 4000 378 
L 4000 0 
L 2419 0 
L 2419 422 
Q 2200 159 1931 34 
Q 1663 -91 1319 -91 
Q 809 -91 536 182 
Q 263 456 263 966 
Q 263 1525 655 1803 
Q 1047 2081 1838 2081 
L 2419 2081 
L 2419 2278 
Q 2419 2681 2228 2873 
Q 2038 3066 1638 3066 
Q 1306 3066 1126 2930 
Q 947 2794 872 2484 
L 519 2484 
L 519 3200 
Q 816 3306 1134 3359 
Q 1453 3413 1806 3413 
Q 2697 3413 3111 3081 
Q 3525 2750 3525 2041 
z
M 2419 1044 
L 2419 1709 
L 2003 1709 
Q 1694 1709 1528 1540 
Q 1363 1372 1363 1056 
Q 1363 741 1483 584 
Q 1603 428 1850 428 
Q 2106 428 2262 597 
Q 2419 766 2419 1044 
z
" transform="scale(0.015625)"/>
      <path id="DejaVuSerif-Bold-432" d="M 1797 378 
L 2078 378 
Q 2447 378 2748 517 
Q 3050 656 3050 963 
Q 3050 1253 2775 1406 
Q 2500 1559 2078 1559 
L 1797 1559 
L 1797 378 
z
M 1797 2044 
L 2044 2044 
Q 2391 2044 2667 2159 
Q 2944 2275 2944 2500 
Q 2944 2713 2680 2828 
Q 2416 2944 2044 2944 
L 1797 2944 
L 1797 2044 
z
M 219 0 
L 219 378 
L 691 378 
L 691 2944 
L 219 2944 
L 219 3322 
L 2463 3322 
Q 3944 3322 3944 2500 
Q 3944 2203 3673 2028 
Q 3403 1853 2944 1813 
Q 3513 1769 3852 1547 
Q 4191 1325 4191 963 
Q 4191 469 3720 234 
Q 3250 0 2306 0 
L 219 0 
z
" transform="scale(0.015625)"/>
      <path id="DejaVuSerif-Bold-43d" d="M 219 0 
L 219 378 
L 691 378 
L 691 2944 
L 219 2944 
L 219 3322 
L 2203 3322 
L 2203 2944 
L 1797 2944 
L 1797 1947 
L 2888 1947 
L 2888 2944 
L 2478 2944 
L 2478 3322 
L 4469 3322 
L 4469 2944 
L 3994 2944 
L 3994 378 
L 4469 378 
L 4469 0 
L 2478 0 
L 2478 378 
L 2888 378 
L 2888 1569 
L 1797 1569 
L 1797 378 
L 2203 378 
L 2203 0 
L 219 0 
z
" transform="scale(0.015625)"/>
      <path id="DejaVuSerif-Bold-435" d="M 2566 1875 
Q 2566 2531 2444 2795 
Q 2322 3059 2028 3059 
Q 1744 3059 1620 2800 
Q 1497 2541 1497 1931 
L 1497 1875 
L 2566 1875 
z
M 3781 1503 
L 1497 1503 
L 1497 1478 
Q 1497 834 1690 548 
Q 1884 263 2316 263 
Q 2675 263 2897 453 
Q 3119 644 3181 1006 
L 3700 1006 
Q 3566 441 3166 175 
Q 2766 -91 2047 -91 
Q 1184 -91 723 364 
Q 263 819 263 1663 
Q 263 2488 734 2950 
Q 1206 3413 2047 3413 
Q 2872 3413 3312 2927 
Q 3753 2441 3781 1503 
z
" transform="scale(0.015625)"/>
      <path id="DejaVuSerif-Bold-438" d="M 219 0 
L 219 378 
L 691 378 
L 691 2944 
L 219 2944 
L 219 3322 
L 2203 3322 
L 2203 2944 
L 1797 2944 
L 1797 1438 
L 2950 2572 
L 2950 2944 
L 2541 2944 
L 2541 3322 
L 4531 3322 
L 4531 2944 
L 4056 2944 
L 4056 378 
L 4531 378 
L 4531 0 
L 2541 0 
L 2541 378 
L 2950 378 
L 2950 1866 
L 1797 731 
L 1797 378 
L 2203 378 
L 2203 0 
L 219 0 
z
" transform="scale(0.015625)"/>
      <path id="DejaVuSerif-Bold-20" transform="scale(0.015625)"/>
      <path id="DejaVuSerif-Bold-43c" d="M 219 0 
L 219 378 
L 691 378 
L 691 2944 
L 219 2944 
L 219 3322 
L 1991 3322 
L 2788 1334 
L 3581 3322 
L 5341 3322 
L 5341 2944 
L 4869 2944 
L 4869 366 
L 5341 366 
L 5341 0 
L 3291 0 
L 3291 366 
L 3763 366 
L 3763 2709 
L 2875 491 
L 1988 491 
L 1097 2709 
L 1097 378 
L 1569 378 
L 1569 0 
L 219 0 
z
" transform="scale(0.015625)"/>
      <path id="DejaVuSerif-Bold-43e" d="M 2138 263 
Q 2488 263 2630 563 
Q 2772 863 2772 1663 
Q 2772 2463 2631 2761 
Q 2491 3059 2138 3059 
Q 1784 3059 1640 2757 
Q 1497 2456 1497 1663 
Q 1497 869 1640 566 
Q 1784 263 2138 263 
z
M 2138 -91 
Q 1259 -91 761 376 
Q 263 844 263 1663 
Q 263 2484 761 2948 
Q 1259 3413 2138 3413 
Q 3019 3413 3516 2948 
Q 4013 2484 4013 1663 
Q 4013 844 3514 376 
Q 3016 -91 2138 -91 
z
" transform="scale(0.015625)"/>
      <path id="DejaVuSerif-Bold-434" d="M 219 -884 
L 219 378 
L 425 378 
Q 759 378 892 939 
Q 1025 1500 1025 2403 
L 1025 2944 
L 553 2944 
L 553 3322 
L 4003 3322 
L 4003 2944 
L 3531 2944 
L 3531 378 
L 4047 378 
L 4047 -884 
L 3675 -884 
L 3625 -444 
Q 3575 0 3263 0 
L 1003 0 
Q 691 0 641 -444 
L 591 -884 
L 219 -884 
z
M 1188 422 
Q 1188 378 1291 378 
L 2425 378 
L 2425 2944 
L 1431 2944 
L 1431 2400 
Q 1431 1519 1309 973 
Q 1188 428 1188 422 
z
" transform="scale(0.015625)"/>
      <path id="DejaVuSerif-Bold-43b" d="M 609 -91 
Q 413 -91 131 0 
L 113 391 
Q 347 294 544 294 
Q 738 294 838 409 
Q 1066 678 1136 1018 
Q 1206 1359 1229 1615 
Q 1253 1872 1253 2403 
L 1253 2944 
L 781 2944 
L 781 3322 
L 4294 3322 
L 4294 2944 
L 3822 2944 
L 3822 378 
L 4294 378 
L 4294 0 
L 2244 0 
L 2244 378 
L 2716 378 
L 2716 2944 
L 1659 2944 
L 1659 2400 
Q 1659 1556 1534 959 
Q 1316 -91 609 -91 
z
" transform="scale(0.015625)"/>
      <path id="DejaVuSerif-Bold-439" d="M 2867 4491 
Q 2673 4619 2673 4812 
Q 2673 5006 2796 5126 
Q 2920 5247 3088 5247 
Q 3257 5247 3376 5126 
Q 3495 5006 3495 4838 
Q 3495 4428 3164 4122 
Q 2879 3866 2385 3866 
Q 1892 3866 1574 4130 
Q 1257 4394 1257 4838 
Q 1257 5006 1380 5126 
Q 1504 5247 1673 5247 
Q 1842 5247 1960 5126 
Q 2079 5006 2079 4811 
Q 2079 4616 1889 4491 
Q 2064 4366 2364 4366 
Q 2664 4366 2867 4491 
z
M 219 0 
L 219 378 
L 691 378 
L 691 2944 
L 219 2944 
L 219 3322 
L 2203 3322 
L 2203 2944 
L 1797 2944 
L 1797 1438 
L 2950 2572 
L 2950 2944 
L 2541 2944 
L 2541 3322 
L 4531 3322 
L 4531 2944 
L 4056 2944 
L 4056 378 
L 4531 378 
L 4531 0 
L 2541 0 
L 2541 378 
L 2950 378 
L 2950 1866 
L 1797 731 
L 1797 378 
L 2203 378 
L 2203 0 
L 219 0 
z
" transform="scale(0.015625)"/>
      <path id="DejaVuSerif-Bold-43f" d="M 219 0 
L 219 378 
L 691 378 
L 691 2944 
L 219 2944 
L 219 3322 
L 4469 3322 
L 4469 2944 
L 3994 2944 
L 3994 378 
L 4469 378 
L 4469 0 
L 2478 0 
L 2478 378 
L 2888 378 
L 2888 2944 
L 1797 2944 
L 1797 378 
L 2203 378 
L 2203 0 
L 219 0 
z
" transform="scale(0.015625)"/>
      <path id="DejaVuSerif-Bold-442" d="M 206 2419 
L 206 3322 
L 3669 3322 
L 3669 2419 
L 3291 2419 
L 3291 2944 
L 2491 2944 
L 2491 378 
L 2897 378 
L 2897 0 
L 913 0 
L 913 378 
L 1384 378 
L 1384 2944 
L 584 2944 
L 584 2419 
L 206 2419 
z
" transform="scale(0.015625)"/>
      <path id="DejaVuSerif-Bold-43a" d="M 219 0 
L 219 378 
L 691 378 
L 691 2947 
L 219 2947 
L 219 3322 
L 2203 3322 
L 2203 2947 
L 1797 2947 
L 1797 1741 
L 3138 2944 
L 2741 2944 
L 2741 3322 
L 4256 3322 
L 4256 2944 
L 3641 2944 
L 2784 2175 
L 4184 378 
L 4544 378 
L 4544 0 
L 2638 0 
L 2638 378 
L 3028 378 
L 2106 1563 
L 1797 1288 
L 1797 378 
L 2203 378 
L 2203 0 
L 219 0 
z
" transform="scale(0.015625)"/>
      <path id="DejaVuSerif-Bold-53" d="M 494 225 
L 494 1331 
L 891 1331 
Q 981 806 1318 547 
Q 1656 288 2253 288 
Q 2738 288 2991 472 
Q 3244 656 3244 1013 
Q 3244 1294 3072 1450 
Q 2900 1606 2363 1741 
L 1663 1913 
Q 978 2088 700 2398 
Q 422 2709 422 3284 
Q 422 3978 883 4364 
Q 1344 4750 2175 4750 
Q 2584 4750 3026 4681 
Q 3469 4613 3944 4475 
L 3944 3444 
L 3547 3444 
Q 3456 3925 3150 4148 
Q 2844 4372 2278 4372 
Q 1816 4372 1580 4211 
Q 1344 4050 1344 3731 
Q 1344 3441 1506 3289 
Q 1669 3138 2303 2975 
L 3003 2803 
Q 3653 2641 3945 2297 
Q 4238 1953 4238 1350 
Q 4238 644 3750 276 
Q 3263 -91 2316 -91 
Q 1859 -91 1409 -12 
Q 959 66 494 225 
z
" transform="scale(0.015625)"/>
      <path id="DejaVuSerif-Bold-4d" d="M 269 0 
L 269 378 
L 863 378 
L 863 4288 
L 269 4288 
L 269 4666 
L 2194 4666 
L 3525 1672 
L 4863 4666 
L 6784 4666 
L 6784 4288 
L 6188 4288 
L 6188 378 
L 6784 378 
L 6784 0 
L 4384 0 
L 4384 378 
L 4978 378 
L 4978 3938 
L 3531 684 
L 2741 684 
L 1300 3938 
L 1300 378 
L 1894 378 
L 1894 0 
L 269 0 
z
" transform="scale(0.015625)"/>
      <path id="DejaVuSerif-Bold-4f" d="M 2784 288 
Q 3381 288 3672 791 
Q 3963 1294 3963 2328 
Q 3963 3366 3672 3869 
Q 3381 4372 2784 4372 
Q 2191 4372 1898 3864 
Q 1606 3356 1606 2328 
Q 1606 1303 1898 795 
Q 2191 288 2784 288 
z
M 2784 -91 
Q 1606 -91 937 553 
Q 269 1197 269 2328 
Q 269 3459 939 4104 
Q 1609 4750 2784 4750 
Q 3963 4750 4631 4106 
Q 5300 3463 5300 2328 
Q 5300 1197 4629 553 
Q 3959 -91 2784 -91 
z
" transform="scale(0.015625)"/>
      <path id="DejaVuSerif-Bold-50" d="M 300 0 
L 300 378 
L 897 378 
L 897 4288 
L 300 4288 
L 300 4666 
L 2956 4666 
Q 3734 4666 4193 4295 
Q 4653 3925 4653 3303 
Q 4653 2678 4192 2304 
Q 3731 1931 2956 1931 
L 2100 1931 
L 2100 378 
L 2853 378 
L 2853 0 
L 300 0 
z
M 2100 2309 
L 2450 2309 
Q 2856 2309 3098 2579 
Q 3341 2850 3341 3303 
Q 3341 3753 3100 4020 
Q 2859 4288 2450 4288 
L 2100 4288 
L 2100 2309 
z
" transform="scale(0.015625)"/>
     </defs>
     <use xlink:href="#DejaVuSerif-Bold-421"/>
     <use xlink:href="#DejaVuSerif-Bold-440" transform="translate(79.589844 0)"/>
     <use xlink:href="#DejaVuSerif-Bold-430" transform="translate(149.511719 0)"/>
     <use xlink:href="#DejaVuSerif-Bold-432" transform="translate(214.306641 0)"/>
     <use xlink:href="#DejaVuSerif-Bold-43d" transform="translate(283.789062 0)"/>
     <use xlink:href="#DejaVuSerif-Bold-435" transform="translate(356.982422 0)"/>
     <use xlink:href="#DejaVuSerif-Bold-43d" transform="translate(420.605469 0)"/>
     <use xlink:href="#DejaVuSerif-Bold-438" transform="translate(493.798828 0)"/>
     <use xlink:href="#DejaVuSerif-Bold-435" transform="translate(567.96875 0)"/>
     <use xlink:href="#DejaVuSerif-Bold-20" transform="translate(631.591797 0)"/>
     <use xlink:href="#DejaVuSerif-Bold-43c" transform="translate(666.40625 0)"/>
     <use xlink:href="#DejaVuSerif-Bold-43e" transform="translate(753.271484 0)"/>
     <use xlink:href="#DejaVuSerif-Bold-434" transform="translate(819.970703 0)"/>
     <use xlink:href="#DejaVuSerif-Bold-435" transform="translate(886.621094 0)"/>
     <use xlink:href="#DejaVuSerif-Bold-43b" transform="translate(950.244141 0)"/>
     <use xlink:href="#DejaVuSerif-Bold-435" transform="translate(1020.751953 0)"/>
     <use xlink:href="#DejaVuSerif-Bold-439" transform="translate(1084.375 0)"/>
     <use xlink:href="#DejaVuSerif-Bold-20" transform="translate(1158.544922 0)"/>
     <use xlink:href="#DejaVuSerif-Bold-43f" transform="translate(1193.359375 0)"/>
     <use xlink:href="#DejaVuSerif-Bold-43e" transform="translate(1266.552734 0)"/>
     <use xlink:href="#DejaVuSerif-Bold-20" transform="translate(1333.251953 0)"/>
     <use xlink:href="#DejaVuSerif-Bold-43c" transform="translate(1368.066406 0)"/>
     <use xlink:href="#DejaVuSerif-Bold-435" transform="translate(1454.931641 0)"/>
     <use xlink:href="#DejaVuSerif-Bold-442" transform="translate(1518.554688 0)"/>
     <use xlink:href="#DejaVuSerif-Bold-440" transform="translate(1580.517578 0)"/>
     <use xlink:href="#DejaVuSerif-Bold-438" transform="translate(1650.439453 0)"/>
     <use xlink:href="#DejaVuSerif-Bold-43a" transform="translate(1724.609375 0)"/>
     <use xlink:href="#DejaVuSerif-Bold-430" transform="translate(1796.826172 0)"/>
     <use xlink:href="#DejaVuSerif-Bold-43c" transform="translate(1861.621094 0)"/>
     <use xlink:href="#DejaVuSerif-Bold-20" transform="translate(1948.486328 0)"/>
     <use xlink:href="#DejaVuSerif-Bold-53" transform="translate(1983.300781 0)"/>
     <use xlink:href="#DejaVuSerif-Bold-4d" transform="translate(2055.517578 0)"/>
     <use xlink:href="#DejaVuSerif-Bold-4f" transform="translate(2166.210938 0)"/>
     <use xlink:href="#DejaVuSerif-Bold-50" transform="translate(2253.320312 0)"/>
    </g>
   </g>
   <g id="legend_1">
    <g id="patch_19">
     <path d="M 661.589062 275.138125 
L 699.604219 275.138125 
Q 701.404219 275.138125 701.404219 273.338125 
L 701.404219 221.396875 
Q 701.404219 219.596875 699.604219 219.596875 
L 661.589062 219.596875 
Q 659.789062 219.596875 659.789062 221.396875 
L 659.789062 273.338125 
Q 659.789062 275.138125 661.589062 275.138125 
z
" style="fill: #ffffff; opacity: 0.8; stroke: #cccccc; stroke-linejoin: miter"/>
    </g>
    <g id="patch_20">
     <path d="M 663.389063 230.035469 
L 681.389063 230.035469 
L 681.389063 223.735469 
L 663.389063 223.735469 
z
" style="fill: #2e86ab; opacity: 0.85"/>
    </g>
    <g id="text_24">
     <!-- S -->
     <g transform="translate(688.589063 230.035469) scale(0.09 -0.09)">
      <defs>
       <path id="DejaVuSerif-53" d="M 594 225 
L 594 1288 
L 953 1284 
Q 969 753 1261 498 
Q 1553 244 2150 244 
Q 2706 244 2998 464 
Q 3291 684 3291 1106 
Q 3291 1444 3114 1625 
Q 2938 1806 2369 1978 
L 1753 2163 
Q 1084 2366 811 2669 
Q 538 2972 538 3500 
Q 538 4094 959 4422 
Q 1381 4750 2144 4750 
Q 2469 4750 2856 4679 
Q 3244 4609 3681 4475 
L 3681 3481 
L 3328 3481 
Q 3275 3975 2998 4195 
Q 2722 4416 2156 4416 
Q 1663 4416 1405 4214 
Q 1147 4013 1147 3628 
Q 1147 3294 1340 3103 
Q 1534 2913 2163 2725 
L 2741 2553 
Q 3375 2363 3645 2067 
Q 3916 1772 3916 1275 
Q 3916 597 3481 253 
Q 3047 -91 2188 -91 
Q 1803 -91 1404 -12 
Q 1006 66 594 225 
z
" transform="scale(0.015625)"/>
      </defs>
      <use xlink:href="#DejaVuSerif-53"/>
     </g>
    </g>
    <g id="patch_21">
     <path d="M 663.389063 243.245781 
L 681.389063 243.245781 
L 681.389063 236.945781 
L 663.389063 236.945781 
z
" style="fill: #28a745; opacity: 0.85"/>
    </g>
    <g id="text_25">
     <!-- M -->
     <g transform="translate(688.589063 243.245781) scale(0.09 -0.09)">
      <defs>
       <path id="DejaVuSerif-4d" d="M 353 0 
L 353 331 
L 947 331 
L 947 4331 
L 319 4331 
L 319 4666 
L 1678 4666 
L 3316 1344 
L 4953 4666 
L 6228 4666 
L 6228 4331 
L 5606 4331 
L 5606 331 
L 6203 331 
L 6203 0 
L 4378 0 
L 4378 331 
L 4972 331 
L 4972 3938 
L 3372 684 
L 2931 684 
L 1331 3938 
L 1331 331 
L 1925 331 
L 1925 0 
L 353 0 
z
" transform="scale(0.015625)"/>
      </defs>
      <use xlink:href="#DejaVuSerif-4d"/>
     </g>
    </g>
    <g id="patch_22">
     <path d="M 663.389063 256.456094 
L 681.389063 256.456094 
L 681.389063 250.156094 
L 663.389063 250.156094 
z
" style="fill: #ffc107; opacity: 0.85"/>
    </g>
    <g id="text_26">
     <!-- O -->
     <g transform="translate(688.589063 256.456094) scale(0.09 -0.09)">
      <use xlink:href="#DejaVuSerif-4f"/>
     </g>
    </g>
    <g id="patch_23">
     <path d="M 663.389063 269.666406 
L 681.389063 269.666406 
L 681.389063 263.366406 
L 663.389063 263.366406 
z
" style="fill: #a23b72; opacity: 0.85"/>
    </g>
    <g id="text_27">
     <!-- P -->
     <g transform="translate(688.589063 269.666406) scale(0.09 -0.09)">
      <use xlink:href="#DejaVuSerif-50"/>
     </g>
    </g>
   </g>
  </g>
 </g>
 <defs>
  <clipPath id="paf1adc2c79">
   <rect x="89.804219" y="23.038125" width="616.1" height="256.6"/>
  </clipPath>
 </defs>
</svg>
