<?xml version="1.0" encoding="utf-8" standalone="no"?>
<!DOCTYPE svg PUBLIC "-//W3C//DTD SVG 1.1//EN"
  "http://www.w3.org/Graphics/SVG/1.1/DTD/svg11.dtd">
<svg xmlns:xlink="http://www.w3.org/1999/xlink" width="605.702562pt" height="528.171562pt" viewBox="0 0 605.702562 528.171562" xmlns="http://www.w3.org/2000/svg" version="1.1">
 <metadata>
  <rdf:RDF xmlns:dc="http://purl.org/dc/elements/1.1/" xmlns:cc="http://creativecommons.org/ns#" xmlns:rdf="http://www.w3.org/1999/02/22-rdf-syntax-ns#">
   <cc:Work>
    <dc:type rdf:resource="http://purl.org/dc/dcmitype/StillImage"/>
    <dc:date>2026-03-02T08:58:21.033015</dc:date>
    <dc:format>image/svg+xml</dc:format>
    <dc:creator>
     <cc:Agent>
      <dc:title>Matplotlib v3.10.8, https://matplotlib.org/</dc:title>
     </cc:Agent>
    </dc:creator>
   </cc:Work>
  </rdf:RDF>
 </metadata>
 <defs>
  <style type="text/css">*{stroke-linejoin: round; stroke-linecap: butt}</style>
 </defs>
 <g id="figure_1">
  <g id="patch_1">
   <path d="M 0 528.171562 
L 605.702562 528.171562 
L 605.702562 0 
L 0 0 
z
" style="fill: #ffffff"/>
  </g>
  <g id="axes_1">
   <g id="patch_2">
    <path d="M 469.946562 279.404687 
C 469.946562 250.283431 464.21031 221.445342 453.066088 194.54081 
C 441.921865 167.636277 425.5864 143.188526 404.994562 122.596688 
C 384.402724 102.00485 359.954973 85.669385 333.05044 74.525162 
C 306.145908 63.38094 277.307819 57.644687 248.186562 57.644687 
C 219.065306 57.644687 190.227217 63.38094 163.322685 74.525162 
C 136.418152 85.669385 111.970401 102.00485 91.378563 122.596688 
C 70.786725 143.188526 54.45126 167.636277 43.307037 194.54081 
C 32.162815 221.445342 26.426562 250.283431 26.426562 279.404687 
C 26.426562 308.525944 32.162815 337.364033 43.307037 364.268565 
C 54.45126 391.173098 70.786725 415.620849 91.378563 436.212687 
C 111.970401 456.804525 136.418152 473.13999 163.322685 484.284213 
C 190.227217 495.428435 219.065306 501.164687 248.186562 501.164687 
C 277.307819 501.164687 306.145908 495.428435 333.05044 484.284213 
C 359.954973 473.13999 384.402724 456.804525 404.994562 436.212687 
C 425.5864 415.620849 441.921865 391.173098 453.066088 364.268565 
C 464.21031 337.364033 469.946562 308.525944 469.946562 279.404687 
M 248.186562 279.404687 
C 248.186562 279.404687 248.186562 279.404687 248.186562 279.404687 
C 248.186562 279.404687 248.186562 279.404687 248.186562 279.404687 
C 248.186562 279.404687 248.186562 279.404687 248.186562 279.404687 
C 248.186562 279.404687 248.186562 279.404687 248.186562 279.404687 
C 248.186562 279.404687 248.186562 279.404687 248.186562 279.404687 
C 248.186562 279.404687 248.186562 279.404687 248.186562 279.404687 
C 248.186562 279.404687 248.186562 279.404687 248.186562 279.404687 
C 248.186562 279.404687 248.186562 279.404687 248.186562 279.404687 
C 248.186562 279.404687 248.186562 279.404687 248.186562 279.404687 
C 248.186562 279.404687 248.186562 279.404687 248.186562 279.404687 
C 248.186562 279.404687 248.186562 279.404687 248.186562 279.404687 
C 248.186562 279.404687 248.186562 279.404687 248.186562 279.404687 
C 248.186562 279.404687 248.186562 279.404687 248.186562 279.404687 
C 248.186562 279.404687 248.186562 279.404687 248.186562 279.404687 
C 248.186562 279.404687 248.186562 279.404687 248.186562 279.404687 
C 248.186562 279.404687 248.186562 279.404687 248.186562 279.404687 
z
" style="fill: #ffffff"/>
   </g>
   <g id="patch_3">
    <path d="M 452.205762 279.404687 
L 248.186845 66.515087 
L 61.908162 279.404193 
L 248.18575 483.423887 
z
" clip-path="url(#pb2ebc3d01a)" style="fill: #2e86ab; opacity: 0.15; stroke: #2e86ab; stroke-linejoin: miter"/>
   </g>
   <g id="patch_4">
    <path d="M 425.594562 279.404687 
L 248.186798 101.996687 
L 81.866562 279.404246 
L 248.185945 434.636687 
z
" clip-path="url(#pb2ebc3d01a)" style="fill: #a23b72; opacity: 0.15; stroke: #a23b72; stroke-linejoin: miter"/>
   </g>
   <g id="patch_5">
    <path d="M 452.205762 279.404687 
L 248.186845 66.515087 
L 35.296962 279.404123 
L 248.18575 483.423887 
z
" clip-path="url(#pb2ebc3d01a)" style="fill: #28a745; opacity: 0.15; stroke: #28a745; stroke-linejoin: miter"/>
   </g>
   <g id="matplotlib.axis_1">
    <g id="xtick_1">
     <g id="line2d_1">
      <path d="M 248.186562 279.404687 
L 469.946562 279.404687 
" clip-path="url(#pb2ebc3d01a)" style="fill: none; stroke-dasharray: 2.96,1.28; stroke-dashoffset: 0; stroke: #b0b0b0; stroke-opacity: 0.7; stroke-width: 0.8"/>
     </g>
     <g id="text_1">
      <!-- S -->
      <g transform="translate(479.613437 282.715937) scale(0.12 -0.12)">
       <defs>
        <path id="DejaVuSerif-Bold-53" d="M 494 225 
L 494 1331 
L 891 1331 
Q 981 806 1318 547 
Q 1656 288 2253 288 
Q 2738 288 2991 472 
Q 3244 656 3244 1013 
Q 3244 1294 3072 1450 
Q 2900 1606 2363 1741 
L 1663 1913 
Q 978 2088 700 2398 
Q 422 2709 422 3284 
Q 422 3978 883 4364 
Q 1344 4750 2175 4750 
Q 2584 4750 3026 4681 
Q 3469 4613 3944 4475 
L 3944 3444 
L 3547 3444 
Q 3456 3925 3150 4148 
Q 2844 4372 2278 4372 
Q 1816 4372 1580 4211 
Q 1344 4050 1344 3731 
Q 1344 3441 1506 3289 
Q 1669 3138 2303 2975 
L 3003 2803 
Q 3653 2641 3945 2297 
Q 4238 1953 4238 1350 
Q 4238 644 3750 276 
Q 3263 -91 2316 -91 
Q 1859 -91 1409 -12 
Q 959 66 494 225 
z
" transform="scale(0.015625)"/>
       </defs>
       <use xlink:href="#DejaVuSerif-Bold-53"/>
      </g>
     </g>
    </g>
    <g id="xtick_2">
     <g id="line2d_2">
      <path d="M 248.186562 279.404687 
L 248.186857 57.644687 
" clip-path="url(#pb2ebc3d01a)" style="fill: none; stroke-dasharray: 2.96,1.28; stroke-dashoffset: 0; stroke: #b0b0b0; stroke-opacity: 0.7; stroke-width: 0.8"/>
     </g>
     <g id="text_2">
      <!-- M -->
      <g transform="translate(241.545625 46.955938) scale(0.12 -0.12)">
       <defs>
        <path id="DejaVuSerif-Bold-4d" d="M 269 0 
L 269 378 
L 863 378 
L 863 4288 
L 269 4288 
L 269 4666 
L 2194 4666 
L 3525 1672 
L 4863 4666 
L 6784 4666 
L 6784 4288 
L 6188 4288 
L 6188 378 
L 6784 378 
L 6784 0 
L 4384 0 
L 4384 378 
L 4978 378 
L 4978 3938 
L 3531 684 
L 2741 684 
L 1300 3938 
L 1300 378 
L 1894 378 
L 1894 0 
L 269 0 
z
" transform="scale(0.015625)"/>
       </defs>
       <use xlink:href="#DejaVuSerif-Bold-4d"/>
      </g>
     </g>
    </g>
    <g id="xtick_3">
     <g id="line2d_3">
      <path d="M 248.186562 279.404687 
L 26.426562 279.404099 
" clip-path="url(#pb2ebc3d01a)" style="fill: none; stroke-dasharray: 2.96,1.28; stroke-dashoffset: 0; stroke: #b0b0b0; stroke-opacity: 0.7; stroke-width: 0.8"/>
     </g>
     <g id="text_3">
      <!-- O -->
      <g transform="translate(7.2 282.715312) scale(0.12 -0.12)">
       <defs>
        <path id="DejaVuSerif-Bold-4f" d="M 2784 288 
Q 3381 288 3672 791 
Q 3963 1294 3963 2328 
Q 3963 3366 3672 3869 
Q 3381 4372 2784 4372 
Q 2191 4372 1898 3864 
Q 1606 3356 1606 2328 
Q 1606 1303 1898 795 
Q 2191 288 2784 288 
z
M 2784 -91 
Q 1606 -91 937 553 
Q 269 1197 269 2328 
Q 269 3459 939 4104 
Q 1609 4750 2784 4750 
Q 3963 4750 4631 4106 
Q 5300 3463 5300 2328 
Q 5300 1197 4629 553 
Q 3959 -91 2784 -91 
z
" transform="scale(0.015625)"/>
       </defs>
       <use xlink:href="#DejaVuSerif-Bold-4f"/>
      </g>
     </g>
    </g>
    <g id="xtick_4">
     <g id="line2d_4">
      <path d="M 248.186562 279.404687 
L 248.18568 501.164687 
" clip-path="url(#pb2ebc3d01a)" style="fill: none; stroke-dasharray: 2.96,1.28; stroke-dashoffset: 0; stroke: #b0b0b0; stroke-opacity: 0.7; stroke-width: 0.8"/>
     </g>
     <g id="text_4">
      <!-- P -->
      <g transform="translate(243.673437 518.475937) scale(0.12 -0.12)">
       <defs>
        <path id="DejaVuSerif-Bold-50" d="M 300 0 
L 300 378 
L 897 378 
L 897 4288 
L 300 4288 
L 300 4666 
L 2956 4666 
Q 3734 4666 4193 4295 
Q 4653 3925 4653 3303 
Q 4653 2678 4192 2304 
Q 3731 1931 2956 1931 
L 2100 1931 
L 2100 378 
L 2853 378 
L 2853 0 
L 300 0 
z
M 2100 2309 
L 2450 2309 
Q 2856 2309 3098 2579 
Q 3341 2850 3341 3303 
Q 3341 3753 3100 4020 
Q 2859 4288 2450 4288 
L 2100 4288 
L 2100 2309 
z
" transform="scale(0.015625)"/>
       </defs>
       <use xlink:href="#DejaVuSerif-Bold-50"/>
      </g>
     </g>
    </g>
   </g>
   <g id="matplotlib.axis_2">
    <g id="ytick_1">
     <g id="line2d_5">
      <path d="M 292.538562 279.404687 
C 292.538562 273.580436 291.391312 267.812818 289.162468 262.431912 
C 286.933623 257.051005 283.66653 252.161455 279.548162 248.043088 
C 275.429795 243.92472 270.540245 240.657627 265.159338 238.428782 
C 259.778432 236.199938 254.010814 235.052687 248.186562 235.052687 
C 242.362311 235.052687 236.594693 236.199938 231.213787 238.428782 
C 225.83288 240.657627 220.94333 243.92472 216.824963 248.043088 
C 212.706595 252.161455 209.439502 257.051005 207.210657 262.431912 
C 204.981813 267.812818 203.834562 273.580436 203.834562 279.404687 
C 203.834562 285.228939 204.981813 290.996557 207.210657 296.377463 
C 209.439502 301.75837 212.706595 306.64792 216.824963 310.766287 
C 220.94333 314.884655 225.83288 318.151748 231.213787 320.380593 
C 236.594693 322.609437 242.362311 323.756687 248.186562 323.756687 
C 254.010814 323.756687 259.778432 322.609437 265.159338 320.380593 
C 270.540245 318.151748 275.429795 314.884655 279.548162 310.766287 
C 283.66653 306.64792 286.933623 301.75837 289.162468 296.377463 
C 291.391312 290.996557 292.538562 285.228939 292.538562 279.404687 
" clip-path="url(#pb2ebc3d01a)" style="fill: none; stroke-dasharray: 2.96,1.28; stroke-dashoffset: 0; stroke: #b0b0b0; stroke-opacity: 0.7; stroke-width: 0.8"/>
     </g>
     <g id="text_5">
      <!-- 2 -->
      <g transform="translate(289.162468 260.768162) scale(0.08 -0.08)">
       <defs>
        <path id="DejaVuSerif-32" d="M 819 3553 
L 469 3553 
L 469 4384 
Q 803 4563 1142 4656 
Q 1481 4750 1806 4750 
Q 2534 4750 2956 4397 
Q 3378 4044 3378 3438 
Q 3378 2753 2422 1800 
Q 2347 1728 2309 1691 
L 1131 513 
L 3078 513 
L 3078 1088 
L 3444 1088 
L 3444 0 
L 434 0 
L 434 341 
L 1850 1753 
Q 2319 2222 2519 2614 
Q 2719 3006 2719 3438 
Q 2719 3909 2473 4175 
Q 2228 4441 1797 4441 
Q 1350 4441 1106 4219 
Q 863 3997 819 3553 
z
" transform="scale(0.015625)"/>
       </defs>
       <use xlink:href="#DejaVuSerif-32"/>
      </g>
     </g>
    </g>
    <g id="ytick_2">
     <g id="line2d_6">
      <path d="M 336.890562 279.404687 
C 336.890562 267.756185 334.596061 256.220949 330.138373 245.459136 
C 325.680684 234.697323 319.146498 224.918223 310.909762 216.681488 
C 302.673027 208.444752 292.893927 201.910566 282.132114 197.452877 
C 271.370301 192.995189 259.835065 190.700687 248.186562 190.700687 
C 236.53806 190.700687 225.002824 192.995189 214.241011 197.452877 
C 203.479198 201.910566 193.700098 208.444752 185.463363 216.681488 
C 177.226627 224.918223 170.692441 234.697323 166.234752 245.459136 
C 161.777064 256.220949 159.482562 267.756185 159.482562 279.404687 
C 159.482562 291.05319 161.777064 302.588426 166.234752 313.350239 
C 170.692441 324.112052 177.226627 333.891152 185.463363 342.127887 
C 193.700098 350.364623 203.479198 356.898809 214.241011 361.356498 
C 225.002824 365.814186 236.53806 368.108687 248.186562 368.108687 
C 259.835065 368.108687 271.370301 365.814186 282.132114 361.356498 
C 292.893927 356.898809 302.673027 350.364623 310.909762 342.127887 
C 319.146498 333.891152 325.680684 324.112052 330.138373 313.350239 
C 334.596061 302.588426 336.890562 291.05319 336.890562 279.404687 
" clip-path="url(#pb2ebc3d01a)" style="fill: none; stroke-dasharray: 2.96,1.28; stroke-dashoffset: 0; stroke: #b0b0b0; stroke-opacity: 0.7; stroke-width: 0.8"/>
     </g>
     <g id="text_6">
      <!-- 4 -->
      <g transform="translate(330.138373 243.795386) scale(0.08 -0.08)">
       <defs>
        <path id="DejaVuSerif-34" d="M 2234 1581 
L 2234 4063 
L 641 1581 
L 2234 1581 
z
M 3609 0 
L 1484 0 
L 1484 331 
L 2234 331 
L 2234 1247 
L 197 1247 
L 197 1588 
L 2241 4750 
L 2859 4750 
L 2859 1581 
L 3750 1581 
L 3750 1247 
L 2859 1247 
L 2859 331 
L 3609 331 
L 3609 0 
z
" transform="scale(0.015625)"/>
       </defs>
       <use xlink:href="#DejaVuSerif-34"/>
      </g>
     </g>
    </g>
    <g id="ytick_3">
     <g id="line2d_7">
      <path d="M 381.242562 279.404687 
C 381.242562 261.931934 377.800811 244.62908 371.114278 228.486361 
C 364.427744 212.343641 354.626465 197.67499 342.271362 185.319888 
C 329.91626 172.964785 315.247609 163.163506 299.104889 156.476972 
C 282.96217 149.790439 265.659316 146.348687 248.186562 146.348687 
C 230.713809 146.348687 213.410955 149.790439 197.268236 156.476972 
C 181.125516 163.163506 166.456865 172.964785 154.101763 185.319888 
C 141.74666 197.67499 131.945381 212.343641 125.258847 228.486361 
C 118.572314 244.62908 115.130562 261.931934 115.130562 279.404687 
C 115.130562 296.877441 118.572314 314.180295 125.258847 330.323014 
C 131.945381 346.465734 141.74666 361.134385 154.101763 373.489487 
C 166.456865 385.84459 181.125516 395.645869 197.268236 402.332403 
C 213.410955 409.018936 230.713809 412.460687 248.186562 412.460687 
C 265.659316 412.460687 282.96217 409.018936 299.104889 402.332403 
C 315.247609 395.645869 329.91626 385.84459 342.271362 373.489487 
C 354.626465 361.134385 364.427744 346.465734 371.114278 330.323014 
C 377.800811 314.180295 381.242562 296.877441 381.242562 279.404687 
" clip-path="url(#pb2ebc3d01a)" style="fill: none; stroke-dasharray: 2.96,1.28; stroke-dashoffset: 0; stroke: #b0b0b0; stroke-opacity: 0.7; stroke-width: 0.8"/>
     </g>
     <g id="text_7">
      <!-- 6 -->
      <g transform="translate(371.114278 226.822611) scale(0.08 -0.08)">
       <defs>
        <path id="DejaVuSerif-36" d="M 2094 219 
Q 2534 219 2771 542 
Q 3009 866 3009 1472 
Q 3009 2078 2771 2401 
Q 2534 2725 2094 2725 
Q 1647 2725 1412 2412 
Q 1178 2100 1178 1509 
Q 1178 888 1415 553 
Q 1653 219 2094 219 
z
M 1075 2569 
Q 1288 2803 1556 2918 
Q 1825 3034 2163 3034 
Q 2859 3034 3264 2615 
Q 3669 2197 3669 1472 
Q 3669 763 3233 336 
Q 2797 -91 2069 -91 
Q 1278 -91 853 498 
Q 428 1088 428 2181 
Q 428 3406 931 4078 
Q 1434 4750 2350 4750 
Q 2597 4750 2869 4703 
Q 3141 4656 3425 4563 
L 3425 3794 
L 3072 3794 
Q 3034 4109 2831 4275 
Q 2628 4441 2284 4441 
Q 1678 4441 1381 3981 
Q 1084 3522 1075 2569 
z
" transform="scale(0.015625)"/>
       </defs>
       <use xlink:href="#DejaVuSerif-36"/>
      </g>
     </g>
    </g>
    <g id="ytick_4">
     <g id="line2d_8">
      <path d="M 425.594562 279.404687 
C 425.594562 256.107682 421.00556 233.037211 412.090183 211.513585 
C 403.174805 189.989959 390.106433 170.431758 373.632962 153.958288 
C 357.159492 137.484817 337.601291 124.416445 316.077665 115.501067 
C 294.554039 106.58569 271.483568 101.996687 248.186562 101.996687 
C 224.889557 101.996687 201.819086 106.58569 180.29546 115.501067 
C 158.771834 124.416445 139.213633 137.484817 122.740163 153.958288 
C 106.266692 170.431758 93.19832 189.989959 84.282942 211.513585 
C 75.367565 233.037211 70.778562 256.107682 70.778562 279.404687 
C 70.778562 302.701693 75.367565 325.772164 84.282942 347.29579 
C 93.19832 368.819416 106.266692 388.377617 122.740163 404.851087 
C 139.213633 421.324558 158.771834 434.39293 180.29546 443.308308 
C 201.819086 452.223685 224.889557 456.812687 248.186562 456.812687 
C 271.483568 456.812687 294.554039 452.223685 316.077665 443.308308 
C 337.601291 434.39293 357.159492 421.324558 373.632962 404.851087 
C 390.106433 388.377617 403.174805 368.819416 412.090183 347.29579 
C 421.00556 325.772164 425.594562 302.701693 425.594562 279.404687 
" clip-path="url(#pb2ebc3d01a)" style="fill: none; stroke-dasharray: 2.96,1.28; stroke-dashoffset: 0; stroke: #b0b0b0; stroke-opacity: 0.7; stroke-width: 0.8"/>
     </g>
     <g id="text_8">
      <!-- 8 -->
      <g transform="translate(412.090183 209.849835) scale(0.08 -0.08)">
       <defs>
        <path id="DejaVuSerif-38" d="M 2981 1275 
Q 2981 1775 2732 2051 
Q 2484 2328 2034 2328 
Q 1584 2328 1336 2051 
Q 1088 1775 1088 1275 
Q 1088 772 1336 495 
Q 1584 219 2034 219 
Q 2484 219 2732 495 
Q 2981 772 2981 1275 
z
M 2853 3541 
Q 2853 3966 2637 4203 
Q 2422 4441 2034 4441 
Q 1650 4441 1433 4203 
Q 1216 3966 1216 3541 
Q 1216 3113 1433 2875 
Q 1650 2638 2034 2638 
Q 2422 2638 2637 2875 
Q 2853 3113 2853 3541 
z
M 2516 2484 
Q 3047 2413 3344 2092 
Q 3641 1772 3641 1275 
Q 3641 619 3225 264 
Q 2809 -91 2034 -91 
Q 1263 -91 845 264 
Q 428 619 428 1275 
Q 428 1772 725 2092 
Q 1022 2413 1556 2484 
Q 1084 2569 832 2842 
Q 581 3116 581 3541 
Q 581 4103 968 4426 
Q 1356 4750 2034 4750 
Q 2713 4750 3100 4426 
Q 3488 4103 3488 3541 
Q 3488 3116 3236 2842 
Q 2984 2569 2516 2484 
z
" transform="scale(0.015625)"/>
       </defs>
       <use xlink:href="#DejaVuSerif-38"/>
      </g>
     </g>
    </g>
    <g id="ytick_5">
     <g id="line2d_9">
      <path d="M 469.946562 279.404687 
C 469.946562 250.283431 464.21031 221.445342 453.066088 194.54081 
C 441.921865 167.636277 425.5864 143.188526 404.994562 122.596688 
C 384.402724 102.00485 359.954973 85.669385 333.05044 74.525162 
C 306.145908 63.38094 277.307819 57.644687 248.186562 57.644687 
C 219.065306 57.644687 190.227217 63.38094 163.322685 74.525162 
C 136.418152 85.669385 111.970401 102.00485 91.378563 122.596688 
C 70.786725 143.188526 54.45126 167.636277 43.307037 194.54081 
C 32.162815 221.445342 26.426562 250.283431 26.426562 279.404687 
C 26.426562 308.525944 32.162815 337.364033 43.307037 364.268565 
C 54.45126 391.173098 70.786725 415.620849 91.378563 436.212687 
C 111.970401 456.804525 136.418152 473.13999 163.322685 484.284213 
C 190.227217 495.428435 219.065306 501.164687 248.186562 501.164687 
C 277.307819 501.164687 306.145908 495.428435 333.05044 484.284213 
C 359.954973 473.13999 384.402724 456.804525 404.994562 436.212687 
C 425.5864 415.620849 441.921865 391.173098 453.066088 364.268565 
C 464.21031 337.364033 469.946562 308.525944 469.946562 279.404687 
" clip-path="url(#pb2ebc3d01a)" style="fill: none; stroke-dasharray: 2.96,1.28; stroke-dashoffset: 0; stroke: #b0b0b0; stroke-opacity: 0.7; stroke-width: 0.8"/>
     </g>
     <g id="text_9">
      <!-- 10 -->
      <g transform="translate(453.066088 192.87706) scale(0.08 -0.08)">
       <defs>
        <path id="DejaVuSerif-31" d="M 909 0 
L 909 331 
L 1722 331 
L 1722 4213 
L 781 3603 
L 781 4013 
L 1919 4750 
L 2350 4750 
L 2350 331 
L 3163 331 
L 3163 0 
L 909 0 
z
" transform="scale(0.015625)"/>
        <path id="DejaVuSerif-30" d="M 2034 219 
Q 2513 219 2750 744 
Q 2988 1269 2988 2328 
Q 2988 3391 2750 3916 
Q 2513 4441 2034 4441 
Q 1556 4441 1318 3916 
Q 1081 3391 1081 2328 
Q 1081 1269 1318 744 
Q 1556 219 2034 219 
z
M 2034 -91 
Q 1275 -91 848 546 
Q 422 1184 422 2328 
Q 422 3475 848 4112 
Q 1275 4750 2034 4750 
Q 2797 4750 3222 4112 
Q 3647 3475 3647 2328 
Q 3647 1184 3222 546 
Q 2797 -91 2034 -91 
z
" transform="scale(0.015625)"/>
       </defs>
       <use xlink:href="#DejaVuSerif-31"/>
       <use xlink:href="#DejaVuSerif-30" transform="translate(63.623047 0)"/>
      </g>
     </g>
    </g>
   </g>
   <g id="line2d_10">
    <path d="M 452.205762 279.404687 
L 248.186845 66.515087 
L 61.908162 279.404193 
L 248.18575 483.423887 
L 452.205762 279.404687 
" clip-path="url(#pb2ebc3d01a)" style="fill: none; stroke: #2e86ab; stroke-width: 2; stroke-linecap: square"/>
    <defs>
     <path id="mc6ad337c24" d="M 0 3 
C 0.795609 3 1.55874 2.683901 2.12132 2.12132 
C 2.683901 1.55874 3 0.795609 3 0 
C 3 -0.795609 2.683901 -1.55874 2.12132 -2.12132 
C 1.55874 -2.683901 0.795609 -3 0 -3 
C -0.795609 -3 -1.55874 -2.683901 -2.12132 -2.12132 
C -2.683901 -1.55874 -3 -0.795609 -3 0 
C -3 0.795609 -2.683901 1.55874 -2.12132 2.12132 
C -1.55874 2.683901 -0.795609 3 0 3 
z
" style="stroke: #2e86ab"/>
    </defs>
    <g clip-path="url(#pb2ebc3d01a)">
     <use xlink:href="#mc6ad337c24" x="452.205762" y="279.404687" style="fill: #2e86ab; stroke: #2e86ab"/>
     <use xlink:href="#mc6ad337c24" x="248.186845" y="66.515087" style="fill: #2e86ab; stroke: #2e86ab"/>
     <use xlink:href="#mc6ad337c24" x="61.908162" y="279.404193" style="fill: #2e86ab; stroke: #2e86ab"/>
     <use xlink:href="#mc6ad337c24" x="248.18575" y="483.423887" style="fill: #2e86ab; stroke: #2e86ab"/>
     <use xlink:href="#mc6ad337c24" x="452.205762" y="279.404687" style="fill: #2e86ab; stroke: #2e86ab"/>
    </g>
   </g>
   <g id="line2d_11">
    <path d="M 425.594562 279.404687 
L 248.186798 101.996687 
L 81.866562 279.404246 
L 248.185945 434.636687 
L 425.594562 279.404687 
" clip-path="url(#pb2ebc3d01a)" style="fill: none; stroke: #a23b72; stroke-width: 2; stroke-linecap: square"/>
    <defs>
     <path id="m2aa20e7a79" d="M 0 3 
C 0.795609 3 1.55874 2.683901 2.12132 2.12132 
C 2.683901 1.55874 3 0.795609 3 0 
C 3 -0.795609 2.683901 -1.55874 2.12132 -2.12132 
C 1.55874 -2.683901 0.795609 -3 0 -3 
C -0.795609 -3 -1.55874 -2.683901 -2.12132 -2.12132 
C -2.683901 -1.55874 -3 -0.795609 -3 0 
C -3 0.795609 -2.683901 1.55874 -2.12132 2.12132 
C -1.55874 2.683901 -0.795609 3 0 3 
z
" style="stroke: #a23b72"/>
    </defs>
    <g clip-path="url(#pb2ebc3d01a)">
     <use xlink:href="#m2aa20e7a79" x="425.594562" y="279.404687" style="fill: #a23b72; stroke: #a23b72"/>
     <use xlink:href="#m2aa20e7a79" x="248.186798" y="101.996687" style="fill: #a23b72; stroke: #a23b72"/>
     <use xlink:href="#m2aa20e7a79" x="81.866562" y="279.404246" style="fill: #a23b72; stroke: #a23b72"/>
     <use xlink:href="#m2aa20e7a79" x="248.185945" y="434.636687" style="fill: #a23b72; stroke: #a23b72"/>
     <use xlink:href="#m2aa20e7a79" x="425.594562" y="279.404687" style="fill: #a23b72; stroke: #a23b72"/>
    </g>
   </g>
   <g id="line2d_12">
    <path d="M 452.205762 279.404687 
L 248.186845 66.515087 
L 35.296962 279.404123 
L 248.18575 483.423887 
L 452.205762 279.404687 
" clip-path="url(#pb2ebc3d01a)" style="fill: none; stroke: #28a745; stroke-width: 2; stroke-linecap: square"/>
    <defs>
     <path id="md43d0f8bff" d="M 0 3 
C 0.795609 3 1.55874 2.683901 2.12132 2.12132 
C 2.683901 1.55874 3 0.795609 3 0 
C 3 -0.795609 2.683901 -1.55874 2.12132 -2.12132 
C 1.55874 -2.683901 0.795609 -3 0 -3 
C -0.795609 -3 -1.55874 -2.683901 -2.12132 -2.12132 
C -2.683901 -1.55874 -3 -0.795609 -3 0 
C -3 0.795609 -2.683901 1.55874 -2.12132 2.12132 
C -1.55874 2.683901 -0.795609 3 0 3 
z
" style="stroke: #28a745"/>
    </defs>
    <g clip-path="url(#pb2ebc3d01a)">
     <use xlink:href="#md43d0f8bff" x="452.205762" y="279.404687" style="fill: #28a745; stroke: #28a745"/>
     <use xlink:href="#md43d0f8bff" x="248.186845" y="66.515087" style="fill: #28a745; stroke: #28a745"/>
     <use xlink:href="#md43d0f8bff" x="35.296962" y="279.404123" style="fill: #28a745; stroke: #28a745"/>
     <use xlink:href="#md43d0f8bff" x="248.18575" y="483.423887" style="fill: #28a745; stroke: #28a745"/>
     <use xlink:href="#md43d0f8bff" x="452.205762" y="279.404687" style="fill: #28a745; stroke: #28a745"/>
    </g>
   </g>
   <g id="patch_6">
    <path d="M 469.946562 279.404687 
C 469.946562 250.283431 464.21031 221.445342 453.066088 194.54081 
C 441.921865 167.636277 425.5864 143.188526 404.994562 122.596688 
C 384.402724 102.00485 359.954973 85.669385 333.05044 74.525162 
C 306.145908 63.38094 277.307819 57.644687 248.186562 57.644687 
C 219.065306 57.644687 190.227217 63.38094 163.322685 74.525162 
C 136.418152 85.669385 111.970401 102.00485 91.378563 122.596688 
C 70.786725 143.188526 54.45126 167.636277 43.307037 194.54081 
C 32.162815 221.445342 26.426562 250.283431 26.426562 279.404687 
C 26.426562 308.525944 32.162815 337.364033 43.307037 364.268565 
C 54.45126 391.173098 70.786725 415.620849 91.378563 436.212687 
C 111.970401 456.804525 136.418152 473.13999 163.322685 484.284213 
C 190.227217 495.428435 219.065306 501.164687 248.186562 501.164687 
C 277.307819 501.164687 306.145908 495.428435 333.05044 484.284213 
C 359.954973 473.13999 384.402724 456.804525 404.994562 436.212687 
C 425.5864 415.620849 441.921865 391.173098 453.066088 364.268565 
C 464.21031 337.364033 469.946562 308.525944 469.946562 279.404687 
" style="fill: none; stroke: #000000; stroke-width: 0.8; stroke-linejoin: miter; stroke-linecap: square"/>
   </g>
   <g id="text_10">
    <!-- Профиль SMOP по моделям -->
    <g transform="translate(133.494844 17.837813) scale(0.14 -0.14)">
     <defs>
      <path id="DejaVuSerif-Bold-41f" d="M 5756 4666 
L 5756 4288 
L 5159 4288 
L 5159 378 
L 5756 378 
L 5756 0 
L 3359 0 
L 3359 378 
L 3956 378 
L 3956 4238 
L 2100 4238 
L 2100 378 
L 2697 378 
L 2697 0 
L 300 0 
L 300 378 
L 897 378 
L 897 4288 
L 300 4288 
L 300 4666 
L 5756 4666 
z
" transform="scale(0.015625)"/>
      <path id="DejaVuSerif-Bold-440" d="M 1728 1825 
L 1728 1497 
Q 1728 916 1876 656 
Q 2025 397 2356 397 
Q 2697 397 2836 672 
Q 2975 947 2975 1663 
Q 2975 2378 2836 2651 
Q 2697 2925 2356 2925 
Q 2025 2925 1876 2665 
Q 1728 2406 1728 1825 
z
M 622 2944 
L 147 2944 
L 147 3322 
L 1728 3322 
L 1728 2900 
Q 1869 3159 2106 3286 
Q 2344 3413 2694 3413 
Q 3403 3413 3811 2945 
Q 4219 2478 4219 1663 
Q 4219 847 3811 378 
Q 3403 -91 2694 -91 
Q 2344 -91 2106 36 
Q 1869 163 1728 422 
L 1728 -953 
L 2241 -953 
L 2241 -1331 
L 147 -1331 
L 147 -953 
L 622 -953 
L 622 2944 
z
" transform="scale(0.015625)"/>
      <path id="DejaVuSerif-Bold-43e" d="M 2138 263 
Q 2488 263 2630 563 
Q 2772 863 2772 1663 
Q 2772 2463 2631 2761 
Q 2491 3059 2138 3059 
Q 1784 3059 1640 2757 
Q 1497 2456 1497 1663 
Q 1497 869 1640 566 
Q 1784 263 2138 263 
z
M 2138 -91 
Q 1259 -91 761 376 
Q 263 844 263 1663 
Q 263 2484 761 2948 
Q 1259 3413 2138 3413 
Q 3019 3413 3516 2948 
Q 4013 2484 4013 1663 
Q 4013 844 3514 376 
Q 3016 -91 2138 -91 
z
" transform="scale(0.015625)"/>
      <path id="DejaVuSerif-Bold-444" d="M 1494 1663 
Q 1494 863 1626 588 
Q 1759 313 1919 313 
Q 2175 313 2291 484 
L 2334 553 
L 2334 2772 
L 2291 2838 
Q 2175 3009 1919 3009 
Q 1759 3009 1626 2734 
Q 1494 2459 1494 1663 
z
M 3441 553 
L 3484 484 
Q 3600 313 3856 313 
Q 4016 313 4148 588 
Q 4281 863 4281 1663 
Q 4281 2459 4148 2734 
Q 4016 3009 3856 3009 
Q 3600 3009 3484 2838 
L 3441 2772 
L 3441 553 
z
M 259 1663 
Q 259 2481 750 2947 
Q 1241 3413 1700 3413 
Q 2150 3413 2291 3191 
L 2334 3125 
L 2334 4488 
L 1841 4488 
L 1841 4863 
L 3441 4863 
L 3441 3125 
L 3484 3191 
Q 3625 3413 4075 3413 
Q 4534 3413 5025 2947 
Q 5516 2481 5516 1663 
Q 5516 841 5025 375 
Q 4534 -91 4075 -91 
Q 3625 -91 3484 131 
L 3441 200 
L 3441 -953 
L 3916 -953 
L 3916 -1331 
L 1859 -1331 
L 1859 -953 
L 2334 -953 
L 2334 200 
L 2291 131 
Q 2150 -91 1700 -91 
Q 1241 -91 750 375 
Q 259 841 259 1663 
z
" transform="scale(0.015625)"/>
      <path id="DejaVuSerif-Bold-438" d="M 219 0 
L 219 378 
L 691 378 
L 691 2944 
L 219 2944 
L 219 3322 
L 2203 3322 
L 2203 2944 
L 1797 2944 
L 1797 1438 
L 2950 2572 
L 2950 2944 
L 2541 2944 
L 2541 3322 
L 4531 3322 
L 4531 2944 
L 4056 2944 
L 4056 378 
L 4531 378 
L 4531 0 
L 2541 0 
L 2541 378 
L 2950 378 
L 2950 1866 
L 1797 731 
L 1797 378 
L 2203 378 
L 2203 0 
L 219 0 
z
" transform="scale(0.015625)"/>
      <path id="DejaVuSerif-Bold-43b" d="M 609 -91 
Q 413 -91 131 0 
L 113 391 
Q 347 294 544 294 
Q 738 294 838 409 
Q 1066 678 1136 1018 
Q 1206 1359 1229 1615 
Q 1253 1872 1253 2403 
L 1253 2944 
L 781 2944 
L 781 3322 
L 4294 3322 
L 4294 2944 
L 3822 2944 
L 3822 378 
L 4294 378 
L 4294 0 
L 2244 0 
L 2244 378 
L 2716 378 
L 2716 2944 
L 1659 2944 
L 1659 2400 
Q 1659 1556 1534 959 
Q 1316 -91 609 -91 
z
" transform="scale(0.015625)"/>
      <path id="DejaVuSerif-Bold-44c" d="M 266 0 
L 266 378 
L 738 378 
L 738 2944 
L 266 2944 
L 266 3322 
L 2316 3322 
L 2316 2944 
L 1844 2944 
L 1844 1919 
L 2334 1919 
Q 3213 1919 3650 1686 
Q 4088 1453 4088 959 
Q 4088 466 3650 233 
Q 3213 0 2334 0 
L 266 0 
z
M 1844 378 
L 2256 378 
Q 2500 378 2723 528 
Q 2947 678 2947 959 
Q 2947 1241 2723 1391 
Q 2500 1541 2256 1541 
L 1844 1541 
L 1844 378 
z
" transform="scale(0.015625)"/>
      <path id="DejaVuSerif-Bold-20" transform="scale(0.015625)"/>
      <path id="DejaVuSerif-Bold-43f" d="M 219 0 
L 219 378 
L 691 378 
L 691 2944 
L 219 2944 
L 219 3322 
L 4469 3322 
L 4469 2944 
L 3994 2944 
L 3994 378 
L 4469 378 
L 4469 0 
L 2478 0 
L 2478 378 
L 2888 378 
L 2888 2944 
L 1797 2944 
L 1797 378 
L 2203 378 
L 2203 0 
L 219 0 
z
" transform="scale(0.015625)"/>
      <path id="DejaVuSerif-Bold-43c" d="M 219 0 
L 219 378 
L 691 378 
L 691 2944 
L 219 2944 
L 219 3322 
L 1991 3322 
L 2788 1334 
L 3581 3322 
L 5341 3322 
L 5341 2944 
L 4869 2944 
L 4869 366 
L 5341 366 
L 5341 0 
L 3291 0 
L 3291 366 
L 3763 366 
L 3763 2709 
L 2875 491 
L 1988 491 
L 1097 2709 
L 1097 378 
L 1569 378 
L 1569 0 
L 219 0 
z
" transform="scale(0.015625)"/>
      <path id="DejaVuSerif-Bold-434" d="M 219 -884 
L 219 378 
L 425 378 
Q 759 378 892 939 
Q 1025 1500 1025 2403 
L 1025 2944 
L 553 2944 
L 553 3322 
L 4003 3322 
L 4003 2944 
L 3531 2944 
L 3531 378 
L 4047 378 
L 4047 -884 
L 3675 -884 
L 3625 -444 
Q 3575 0 3263 0 
L 1003 0 
Q 691 0 641 -444 
L 591 -884 
L 219 -884 
z
M 1188 422 
Q 1188 378 1291 378 
L 2425 378 
L 2425 2944 
L 1431 2944 
L 1431 2400 
Q 1431 1519 1309 973 
Q 1188 428 1188 422 
z
" transform="scale(0.015625)"/>
      <path id="DejaVuSerif-Bold-435" d="M 2566 1875 
Q 2566 2531 2444 2795 
Q 2322 3059 2028 3059 
Q 1744 3059 1620 2800 
Q 1497 2541 1497 1931 
L 1497 1875 
L 2566 1875 
z
M 3781 1503 
L 1497 1503 
L 1497 1478 
Q 1497 834 1690 548 
Q 1884 263 2316 263 
Q 2675 263 2897 453 
Q 3119 644 3181 1006 
L 3700 1006 
Q 3566 441 3166 175 
Q 2766 -91 2047 -91 
Q 1184 -91 723 364 
Q 263 819 263 1663 
Q 263 2488 734 2950 
Q 1206 3413 2047 3413 
Q 2872 3413 3312 2927 
Q 3753 2441 3781 1503 
z
" transform="scale(0.015625)"/>
      <path id="DejaVuSerif-Bold-44f" d="M 1773 2787 
Q 1581 2631 1581 2422 
Q 1581 2213 1767 2039 
Q 1953 1866 2272 1866 
L 2931 1866 
L 2931 2944 
L 2272 2944 
Q 1966 2944 1773 2787 
z
M 156 0 
L 156 378 
L 659 378 
L 1416 1613 
Q 1119 1709 831 1882 
Q 544 2056 544 2453 
Q 544 2850 947 3086 
Q 1350 3322 2000 3322 
L 4509 3322 
L 4509 2944 
L 4038 2944 
L 4038 378 
L 4509 378 
L 4509 0 
L 2522 0 
L 2522 378 
L 2931 378 
L 2931 1488 
L 2484 1488 
L 1572 0 
L 156 0 
z
" transform="scale(0.015625)"/>
     </defs>
     <use xlink:href="#DejaVuSerif-Bold-41f"/>
     <use xlink:href="#DejaVuSerif-Bold-440" transform="translate(94.433594 0)"/>
     <use xlink:href="#DejaVuSerif-Bold-43e" transform="translate(164.355469 0)"/>
     <use xlink:href="#DejaVuSerif-Bold-444" transform="translate(231.054688 0)"/>
     <use xlink:href="#DejaVuSerif-Bold-438" transform="translate(321.240234 0)"/>
     <use xlink:href="#DejaVuSerif-Bold-43b" transform="translate(395.410156 0)"/>
     <use xlink:href="#DejaVuSerif-Bold-44c" transform="translate(465.917969 0)"/>
     <use xlink:href="#DejaVuSerif-Bold-20" transform="translate(533.789062 0)"/>
     <use xlink:href="#DejaVuSerif-Bold-53" transform="translate(568.603516 0)"/>
     <use xlink:href="#DejaVuSerif-Bold-4d" transform="translate(640.820312 0)"/>
     <use xlink:href="#DejaVuSerif-Bold-4f" transform="translate(751.513672 0)"/>
     <use xlink:href="#DejaVuSerif-Bold-50" transform="translate(838.623047 0)"/>
     <use xlink:href="#DejaVuSerif-Bold-20" transform="translate(913.818359 0)"/>
     <use xlink:href="#DejaVuSerif-Bold-43f" transform="translate(948.632812 0)"/>
     <use xlink:href="#DejaVuSerif-Bold-43e" transform="translate(1021.826172 0)"/>
     <use xlink:href="#DejaVuSerif-Bold-20" transform="translate(1088.525391 0)"/>
     <use xlink:href="#DejaVuSerif-Bold-43c" transform="translate(1123.339844 0)"/>
     <use xlink:href="#DejaVuSerif-Bold-43e" transform="translate(1210.205078 0)"/>
     <use xlink:href="#DejaVuSerif-Bold-434" transform="translate(1276.904297 0)"/>
     <use xlink:href="#DejaVuSerif-Bold-435" transform="translate(1343.554688 0)"/>
     <use xlink:href="#DejaVuSerif-Bold-43b" transform="translate(1407.177734 0)"/>
     <use xlink:href="#DejaVuSerif-Bold-44f" transform="translate(1477.685547 0)"/>
     <use xlink:href="#DejaVuSerif-Bold-43c" transform="translate(1551.5625 0)"/>
    </g>
   </g>
   <g id="legend_1">
    <g id="patch_7">
     <path d="M 492.298344 104.475625 
L 596.702562 104.475625 
Q 598.502562 104.475625 598.502562 102.675625 
L 598.502562 63.944687 
Q 598.502562 62.144687 596.702562 62.144687 
L 492.298344 62.144687 
Q 490.498344 62.144687 490.498344 63.944687 
L 490.498344 102.675625 
Q 490.498344 104.475625 492.298344 104.475625 
z
" style="fill: #ffffff; opacity: 0.8; stroke: #cccccc; stroke-linejoin: miter"/>
    </g>
    <g id="line2d_13">
     <path d="M 494.098344 69.433281 
L 503.098344 69.433281 
L 512.098344 69.433281 
" style="fill: none; stroke: #2e86ab; stroke-width: 2; stroke-linecap: square"/>
     <g>
      <use xlink:href="#mc6ad337c24" x="503.098344" y="69.433281" style="fill: #2e86ab; stroke: #2e86ab"/>
     </g>
    </g>
    <g id="text_11">
     <!-- Claude Opus 4.5 -->
     <g transform="translate(519.298344 72.583281) scale(0.09 -0.09)">
      <defs>
       <path id="DejaVuSerif-43" d="M 4513 1234 
Q 4306 581 3820 245 
Q 3334 -91 2591 -91 
Q 2134 -91 1743 65 
Q 1353 222 1050 525 
Q 700 875 529 1320 
Q 359 1766 359 2328 
Q 359 3416 987 4083 
Q 1616 4750 2644 4750 
Q 3025 4750 3456 4650 
Q 3888 4550 4384 4347 
L 4384 3272 
L 4031 3272 
Q 3916 3859 3567 4137 
Q 3219 4416 2591 4416 
Q 1844 4416 1459 3886 
Q 1075 3356 1075 2328 
Q 1075 1303 1459 773 
Q 1844 244 2591 244 
Q 3113 244 3450 492 
Q 3788 741 3938 1234 
L 4513 1234 
z
" transform="scale(0.015625)"/>
       <path id="DejaVuSerif-6c" d="M 1313 331 
L 1856 331 
L 1856 0 
L 184 0 
L 184 331 
L 738 331 
L 738 4531 
L 184 4531 
L 184 4863 
L 1313 4863 
L 1313 331 
z
" transform="scale(0.015625)"/>
       <path id="DejaVuSerif-61" d="M 2547 1044 
L 2547 1747 
L 1806 1747 
Q 1378 1747 1168 1562 
Q 959 1378 959 997 
Q 959 650 1171 447 
Q 1384 244 1747 244 
Q 2106 244 2326 466 
Q 2547 688 2547 1044 
z
M 3122 2075 
L 3122 331 
L 3634 331 
L 3634 0 
L 2547 0 
L 2547 359 
Q 2356 128 2106 18 
Q 1856 -91 1522 -91 
Q 969 -91 644 203 
Q 319 497 319 997 
Q 319 1513 691 1797 
Q 1063 2081 1741 2081 
L 2547 2081 
L 2547 2309 
Q 2547 2688 2317 2895 
Q 2088 3103 1672 3103 
Q 1328 3103 1125 2947 
Q 922 2791 872 2484 
L 575 2484 
L 575 3156 
Q 875 3284 1158 3348 
Q 1441 3413 1709 3413 
Q 2400 3413 2761 3070 
Q 3122 2728 3122 2075 
z
" transform="scale(0.015625)"/>
       <path id="DejaVuSerif-75" d="M 2266 3322 
L 3341 3322 
L 3341 331 
L 3884 331 
L 3884 0 
L 2766 0 
L 2766 588 
Q 2606 256 2353 82 
Q 2100 -91 1766 -91 
Q 1213 -91 952 223 
Q 691 538 691 1209 
L 691 2988 
L 172 2988 
L 172 3322 
L 1269 3322 
L 1269 1388 
Q 1269 781 1417 556 
Q 1566 331 1947 331 
Q 2347 331 2556 625 
Q 2766 919 2766 1478 
L 2766 2988 
L 2266 2988 
L 2266 3322 
z
" transform="scale(0.015625)"/>
       <path id="DejaVuSerif-64" d="M 3359 331 
L 3909 331 
L 3909 0 
L 2784 0 
L 2784 519 
Q 2616 206 2355 57 
Q 2094 -91 1709 -91 
Q 1097 -91 708 395 
Q 319 881 319 1663 
Q 319 2444 706 2928 
Q 1094 3413 1709 3413 
Q 2094 3413 2355 3264 
Q 2616 3116 2784 2803 
L 2784 4531 
L 2241 4531 
L 2241 4863 
L 3359 4863 
L 3359 331 
z
M 2784 1497 
L 2784 1825 
Q 2784 2422 2554 2737 
Q 2325 3053 1888 3053 
Q 1444 3053 1217 2703 
Q 991 2353 991 1663 
Q 991 975 1217 622 
Q 1444 269 1888 269 
Q 2325 269 2554 583 
Q 2784 897 2784 1497 
z
" transform="scale(0.015625)"/>
       <path id="DejaVuSerif-65" d="M 3469 1600 
L 991 1600 
L 991 1575 
Q 991 903 1244 561 
Q 1497 219 1991 219 
Q 2369 219 2611 417 
Q 2853 616 2950 1006 
L 3413 1006 
Q 3275 459 2904 184 
Q 2534 -91 1931 -91 
Q 1203 -91 761 389 
Q 319 869 319 1663 
Q 319 2450 753 2931 
Q 1188 3413 1894 3413 
Q 2647 3413 3050 2948 
Q 3453 2484 3469 1600 
z
M 2791 1931 
Q 2772 2513 2545 2808 
Q 2319 3103 1894 3103 
Q 1497 3103 1269 2806 
Q 1041 2509 991 1931 
L 2791 1931 
z
" transform="scale(0.015625)"/>
       <path id="DejaVuSerif-20" transform="scale(0.015625)"/>
       <path id="DejaVuSerif-4f" d="M 2625 244 
Q 3391 244 3781 770 
Q 4172 1297 4172 2328 
Q 4172 3363 3781 3889 
Q 3391 4416 2625 4416 
Q 1856 4416 1465 3889 
Q 1075 3363 1075 2328 
Q 1075 1297 1465 770 
Q 1856 244 2625 244 
z
M 2625 -91 
Q 2150 -91 1751 65 
Q 1353 222 1050 525 
Q 700 875 529 1319 
Q 359 1763 359 2328 
Q 359 2894 529 3339 
Q 700 3784 1050 4134 
Q 1356 4441 1750 4595 
Q 2144 4750 2625 4750 
Q 3641 4750 4266 4084 
Q 4891 3419 4891 2328 
Q 4891 1769 4719 1320 
Q 4547 872 4197 525 
Q 3891 219 3497 64 
Q 3103 -91 2625 -91 
z
" transform="scale(0.015625)"/>
       <path id="DejaVuSerif-70" d="M 1313 1825 
L 1313 1497 
Q 1313 897 1542 583 
Q 1772 269 2209 269 
Q 2650 269 2876 622 
Q 3103 975 3103 1663 
Q 3103 2353 2876 2703 
Q 2650 3053 2209 3053 
Q 1772 3053 1542 2737 
Q 1313 2422 1313 1825 
z
M 738 2988 
L 184 2988 
L 184 3322 
L 1313 3322 
L 1313 2803 
Q 1481 3116 1742 3264 
Q 2003 3413 2388 3413 
Q 3000 3413 3387 2928 
Q 3775 2444 3775 1663 
Q 3775 881 3387 395 
Q 3000 -91 2388 -91 
Q 2003 -91 1742 57 
Q 1481 206 1313 519 
L 1313 -997 
L 1856 -997 
L 1856 -1331 
L 184 -1331 
L 184 -997 
L 738 -997 
L 738 2988 
z
" transform="scale(0.015625)"/>
       <path id="DejaVuSerif-73" d="M 359 184 
L 359 959 
L 691 959 
Q 703 588 923 403 
Q 1144 219 1575 219 
Q 1963 219 2166 364 
Q 2369 509 2369 788 
Q 2369 1006 2220 1140 
Q 2072 1275 1594 1428 
L 1178 1569 
Q 750 1706 558 1912 
Q 366 2119 366 2438 
Q 366 2894 700 3153 
Q 1034 3413 1625 3413 
Q 1888 3413 2178 3344 
Q 2469 3275 2778 3144 
L 2778 2419 
L 2447 2419 
Q 2434 2741 2221 2922 
Q 2009 3103 1644 3103 
Q 1281 3103 1095 2975 
Q 909 2847 909 2591 
Q 909 2381 1050 2254 
Q 1191 2128 1613 1997 
L 2069 1856 
Q 2541 1709 2748 1489 
Q 2956 1269 2956 922 
Q 2956 450 2595 179 
Q 2234 -91 1600 -91 
Q 1278 -91 972 -22 
Q 666 47 359 184 
z
" transform="scale(0.015625)"/>
       <path id="DejaVuSerif-2e" d="M 603 325 
Q 603 500 722 622 
Q 841 744 1019 744 
Q 1191 744 1312 622 
Q 1434 500 1434 325 
Q 1434 153 1312 31 
Q 1191 -91 1019 -91 
Q 841 -91 722 29 
Q 603 150 603 325 
z
" transform="scale(0.015625)"/>
       <path id="DejaVuSerif-35" d="M 3219 4666 
L 3219 4153 
L 1081 4153 
L 1081 2816 
Q 1244 2928 1461 2984 
Q 1678 3041 1947 3041 
Q 2703 3041 3140 2622 
Q 3578 2203 3578 1478 
Q 3578 738 3136 323 
Q 2694 -91 1894 -91 
Q 1572 -91 1234 -12 
Q 897 66 544 225 
L 544 1131 
L 897 1131 
Q 925 688 1179 453 
Q 1434 219 1894 219 
Q 2388 219 2653 544 
Q 2919 869 2919 1478 
Q 2919 2084 2655 2407 
Q 2391 2731 1894 2731 
Q 1613 2731 1398 2631 
Q 1184 2531 1019 2322 
L 750 2322 
L 750 4666 
L 3219 4666 
z
" transform="scale(0.015625)"/>
      </defs>
      <use xlink:href="#DejaVuSerif-43"/>
      <use xlink:href="#DejaVuSerif-6c" transform="translate(76.513672 0)"/>
      <use xlink:href="#DejaVuSerif-61" transform="translate(108.496094 0)"/>
      <use xlink:href="#DejaVuSerif-75" transform="translate(168.115234 0)"/>
      <use xlink:href="#DejaVuSerif-64" transform="translate(232.519531 0)"/>
      <use xlink:href="#DejaVuSerif-65" transform="translate(296.533203 0)"/>
      <use xlink:href="#DejaVuSerif-20" transform="translate(355.712891 0)"/>
      <use xlink:href="#DejaVuSerif-4f" transform="translate(387.5 0)"/>
      <use xlink:href="#DejaVuSerif-70" transform="translate(469.482422 0)"/>
      <use xlink:href="#DejaVuSerif-75" transform="translate(533.496094 0)"/>
      <use xlink:href="#DejaVuSerif-73" transform="translate(597.900391 0)"/>
      <use xlink:href="#DejaVuSerif-20" transform="translate(649.21875 0)"/>
      <use xlink:href="#DejaVuSerif-34" transform="translate(681.005859 0)"/>
      <use xlink:href="#DejaVuSerif-2e" transform="translate(744.628906 0)"/>
      <use xlink:href="#DejaVuSerif-35" transform="translate(776.416016 0)"/>
     </g>
    </g>
    <g id="line2d_14">
     <path d="M 494.098344 82.643594 
L 503.098344 82.643594 
L 512.098344 82.643594 
" style="fill: none; stroke: #a23b72; stroke-width: 2; stroke-linecap: square"/>
     <g>
      <use xlink:href="#m2aa20e7a79" x="503.098344" y="82.643594" style="fill: #a23b72; stroke: #a23b72"/>
     </g>
    </g>
    <g id="text_12">
     <!-- GPT-5.2 Codex -->
     <g transform="translate(519.298344 85.793594) scale(0.09 -0.09)">
      <defs>
       <path id="DejaVuSerif-47" d="M 4097 3272 
Q 3988 3856 3641 4136 
Q 3294 4416 2675 4416 
Q 1869 4416 1472 3897 
Q 1075 3378 1075 2328 
Q 1075 1300 1484 772 
Q 1894 244 2688 244 
Q 3041 244 3362 331 
Q 3684 419 3975 594 
L 3975 1797 
L 3097 1797 
L 3097 2131 
L 4609 2131 
L 4609 391 
Q 4194 150 3714 29 
Q 3234 -91 2688 -91 
Q 1631 -91 995 570 
Q 359 1231 359 2328 
Q 359 3434 996 4092 
Q 1634 4750 2713 4750 
Q 3113 4750 3539 4658 
Q 3966 4566 4447 4378 
L 4447 3272 
L 4097 3272 
z
" transform="scale(0.015625)"/>
       <path id="DejaVuSerif-50" d="M 1581 2375 
L 2406 2375 
Q 2872 2375 3115 2626 
Q 3359 2878 3359 3353 
Q 3359 3831 3115 4081 
Q 2872 4331 2406 4331 
L 1581 4331 
L 1581 2375 
z
M 353 0 
L 353 331 
L 947 331 
L 947 4331 
L 353 4331 
L 353 4666 
L 2559 4666 
Q 3259 4666 3668 4311 
Q 4078 3956 4078 3353 
Q 4078 2753 3668 2397 
Q 3259 2041 2559 2041 
L 1581 2041 
L 1581 331 
L 2303 331 
L 2303 0 
L 353 0 
z
" transform="scale(0.015625)"/>
       <path id="DejaVuSerif-54" d="M 1222 0 
L 1222 331 
L 1819 331 
L 1819 4294 
L 447 4294 
L 447 3566 
L 63 3566 
L 63 4666 
L 4206 4666 
L 4206 3566 
L 3822 3566 
L 3822 4294 
L 2450 4294 
L 2450 331 
L 3047 331 
L 3047 0 
L 1222 0 
z
" transform="scale(0.015625)"/>
       <path id="DejaVuSerif-2d" d="M 281 1959 
L 1881 1959 
L 1881 1472 
L 281 1472 
L 281 1959 
z
" transform="scale(0.015625)"/>
       <path id="DejaVuSerif-6f" d="M 1925 219 
Q 2388 219 2623 584 
Q 2859 950 2859 1663 
Q 2859 2375 2623 2739 
Q 2388 3103 1925 3103 
Q 1463 3103 1227 2739 
Q 991 2375 991 1663 
Q 991 950 1228 584 
Q 1466 219 1925 219 
z
M 1925 -91 
Q 1200 -91 759 389 
Q 319 869 319 1663 
Q 319 2456 758 2934 
Q 1197 3413 1925 3413 
Q 2653 3413 3092 2934 
Q 3531 2456 3531 1663 
Q 3531 869 3092 389 
Q 2653 -91 1925 -91 
z
" transform="scale(0.015625)"/>
       <path id="DejaVuSerif-78" d="M 1863 2028 
L 2559 2988 
L 2113 2988 
L 2113 3322 
L 3391 3322 
L 3391 2988 
L 2950 2988 
L 2059 1759 
L 3097 331 
L 3531 331 
L 3531 0 
L 1997 0 
L 1997 331 
L 2419 331 
L 1697 1325 
L 972 331 
L 1403 331 
L 1403 0 
L 141 0 
L 141 331 
L 581 331 
L 1497 1594 
L 488 2988 
L 78 2988 
L 78 3322 
L 1563 3322 
L 1563 2988 
L 1166 2988 
L 1863 2028 
z
" transform="scale(0.015625)"/>
      </defs>
      <use xlink:href="#DejaVuSerif-47"/>
      <use xlink:href="#DejaVuSerif-50" transform="translate(79.882812 0)"/>
      <use xlink:href="#DejaVuSerif-54" transform="translate(147.167969 0)"/>
      <use xlink:href="#DejaVuSerif-2d" transform="translate(200.992188 0)"/>
      <use xlink:href="#DejaVuSerif-35" transform="translate(234.78125 0)"/>
      <use xlink:href="#DejaVuSerif-2e" transform="translate(298.404297 0)"/>
      <use xlink:href="#DejaVuSerif-32" transform="translate(330.191406 0)"/>
      <use xlink:href="#DejaVuSerif-20" transform="translate(393.814453 0)"/>
      <use xlink:href="#DejaVuSerif-43" transform="translate(425.601562 0)"/>
      <use xlink:href="#DejaVuSerif-6f" transform="translate(502.115234 0)"/>
      <use xlink:href="#DejaVuSerif-64" transform="translate(562.320312 0)"/>
      <use xlink:href="#DejaVuSerif-65" transform="translate(626.333984 0)"/>
      <use xlink:href="#DejaVuSerif-78" transform="translate(685.513672 0)"/>
     </g>
    </g>
    <g id="line2d_15">
     <path d="M 494.098344 95.853906 
L 503.098344 95.853906 
L 512.098344 95.853906 
" style="fill: none; stroke: #28a745; stroke-width: 2; stroke-linecap: square"/>
     <g>
      <use xlink:href="#md43d0f8bff" x="503.098344" y="95.853906" style="fill: #28a745; stroke: #28a745"/>
     </g>
    </g>
    <g id="text_13">
     <!-- Gemini 3 Flash -->
     <g transform="translate(519.298344 99.003906) scale(0.09 -0.09)">
      <defs>
       <path id="DejaVuSerif-6d" d="M 3316 2675 
Q 3481 3041 3739 3227 
Q 3997 3413 4341 3413 
Q 4863 3413 5119 3089 
Q 5375 2766 5375 2113 
L 5375 331 
L 5894 331 
L 5894 0 
L 4300 0 
L 4300 331 
L 4800 331 
L 4800 2047 
Q 4800 2556 4650 2772 
Q 4500 2988 4153 2988 
Q 3769 2988 3567 2697 
Q 3366 2406 3366 1850 
L 3366 331 
L 3866 331 
L 3866 0 
L 2291 0 
L 2291 331 
L 2791 331 
L 2791 2069 
Q 2791 2566 2641 2777 
Q 2491 2988 2144 2988 
Q 1759 2988 1557 2697 
Q 1356 2406 1356 1850 
L 1356 331 
L 1856 331 
L 1856 0 
L 263 0 
L 263 331 
L 781 331 
L 781 2994 
L 231 2994 
L 231 3322 
L 1356 3322 
L 1356 2731 
Q 1516 3063 1762 3238 
Q 2009 3413 2322 3413 
Q 2709 3413 2968 3220 
Q 3228 3028 3316 2675 
z
" transform="scale(0.015625)"/>
       <path id="DejaVuSerif-69" d="M 622 4353 
Q 622 4497 726 4603 
Q 831 4709 978 4709 
Q 1122 4709 1226 4603 
Q 1331 4497 1331 4353 
Q 1331 4206 1228 4103 
Q 1125 4000 978 4000 
Q 831 4000 726 4103 
Q 622 4206 622 4353 
z
M 1356 331 
L 1900 331 
L 1900 0 
L 231 0 
L 231 331 
L 781 331 
L 781 2988 
L 231 2988 
L 231 3322 
L 1356 3322 
L 1356 331 
z
" transform="scale(0.015625)"/>
       <path id="DejaVuSerif-6e" d="M 263 0 
L 263 331 
L 781 331 
L 781 2988 
L 231 2988 
L 231 3322 
L 1356 3322 
L 1356 2731 
Q 1516 3069 1770 3241 
Q 2025 3413 2363 3413 
Q 2913 3413 3172 3097 
Q 3431 2781 3431 2113 
L 3431 331 
L 3944 331 
L 3944 0 
L 2356 0 
L 2356 331 
L 2853 331 
L 2853 1931 
Q 2853 2541 2703 2767 
Q 2553 2994 2175 2994 
Q 1775 2994 1565 2701 
Q 1356 2409 1356 1850 
L 1356 331 
L 1856 331 
L 1856 0 
L 263 0 
z
" transform="scale(0.015625)"/>
       <path id="DejaVuSerif-33" d="M 622 4469 
Q 988 4606 1323 4678 
Q 1659 4750 1953 4750 
Q 2638 4750 3022 4454 
Q 3406 4159 3406 3634 
Q 3406 3213 3140 2930 
Q 2875 2647 2388 2547 
Q 2963 2466 3280 2130 
Q 3597 1794 3597 1259 
Q 3597 606 3158 257 
Q 2719 -91 1894 -91 
Q 1528 -91 1179 -12 
Q 831 66 488 225 
L 488 1131 
L 838 1131 
Q 869 681 1141 450 
Q 1413 219 1906 219 
Q 2384 219 2661 495 
Q 2938 772 2938 1253 
Q 2938 1803 2653 2086 
Q 2369 2369 1819 2369 
L 1522 2369 
L 1522 2688 
L 1678 2688 
Q 2225 2688 2498 2914 
Q 2772 3141 2772 3597 
Q 2772 4006 2547 4223 
Q 2322 4441 1900 4441 
Q 1478 4441 1245 4241 
Q 1013 4041 972 3647 
L 622 3647 
L 622 4469 
z
" transform="scale(0.015625)"/>
       <path id="DejaVuSerif-46" d="M 353 0 
L 353 331 
L 947 331 
L 947 4331 
L 353 4331 
L 353 4666 
L 4172 4666 
L 4172 3628 
L 3788 3628 
L 3788 4281 
L 1581 4281 
L 1581 2719 
L 3175 2719 
L 3175 3303 
L 3559 3303 
L 3559 1753 
L 3175 1753 
L 3175 2338 
L 1581 2338 
L 1581 331 
L 2328 331 
L 2328 0 
L 353 0 
z
" transform="scale(0.015625)"/>
       <path id="DejaVuSerif-68" d="M 263 0 
L 263 331 
L 781 331 
L 781 4531 
L 231 4531 
L 231 4863 
L 1356 4863 
L 1356 2731 
Q 1516 3069 1770 3241 
Q 2025 3413 2363 3413 
Q 2913 3413 3172 3097 
Q 3431 2781 3431 2113 
L 3431 331 
L 3944 331 
L 3944 0 
L 2356 0 
L 2356 331 
L 2853 331 
L 2853 1931 
Q 2853 2541 2704 2764 
Q 2556 2988 2175 2988 
Q 1775 2988 1565 2697 
Q 1356 2406 1356 1850 
L 1356 331 
L 1856 331 
L 1856 0 
L 263 0 
z
" transform="scale(0.015625)"/>
      </defs>
      <use xlink:href="#DejaVuSerif-47"/>
      <use xlink:href="#DejaVuSerif-65" transform="translate(79.882812 0)"/>
      <use xlink:href="#DejaVuSerif-6d" transform="translate(139.0625 0)"/>
      <use xlink:href="#DejaVuSerif-69" transform="translate(233.886719 0)"/>
      <use xlink:href="#DejaVuSerif-6e" transform="translate(265.869141 0)"/>
      <use xlink:href="#DejaVuSerif-69" transform="translate(330.273438 0)"/>
      <use xlink:href="#DejaVuSerif-20" transform="translate(362.255859 0)"/>
      <use xlink:href="#DejaVuSerif-33" transform="translate(394.042969 0)"/>
      <use xlink:href="#DejaVuSerif-20" transform="translate(457.666016 0)"/>
      <use xlink:href="#DejaVuSerif-46" transform="translate(489.453125 0)"/>
      <use xlink:href="#DejaVuSerif-6c" transform="translate(558.837891 0)"/>
      <use xlink:href="#DejaVuSerif-61" transform="translate(590.820312 0)"/>
      <use xlink:href="#DejaVuSerif-73" transform="translate(650.439453 0)"/>
      <use xlink:href="#DejaVuSerif-68" transform="translate(701.757812 0)"/>
     </g>
    </g>
   </g>
  </g>
 </g>
 <defs>
  <clipPath id="pb2ebc3d01a">
   <path d="M 469.946562 279.404687 
C 469.946562 250.283431 464.21031 221.445342 453.066088 194.54081 
C 441.921865 167.636277 425.5864 143.188526 404.994562 122.596688 
C 384.402724 102.00485 359.954973 85.669385 333.05044 74.525162 
C 306.145908 63.38094 277.307819 57.644687 248.186562 57.644687 
C 219.065306 57.644687 190.227217 63.38094 163.322685 74.525162 
C 136.418152 85.669385 111.970401 102.00485 91.378563 122.596688 
C 70.786725 143.188526 54.45126 167.636277 43.307037 194.54081 
C 32.162815 221.445342 26.426562 250.283431 26.426562 279.404687 
C 26.426562 308.525944 32.162815 337.364033 43.307037 364.268565 
C 54.45126 391.173098 70.786725 415.620849 91.378563 436.212687 
C 111.970401 456.804525 136.418152 473.13999 163.322685 484.284213 
C 190.227217 495.428435 219.065306 501.164687 248.186562 501.164687 
C 277.307819 501.164687 306.145908 495.428435 333.05044 484.284213 
C 359.954973 473.13999 384.402724 456.804525 404.994562 436.212687 
C 425.5864 415.620849 441.921865 391.173098 453.066088 364.268565 
C 464.21031 337.364033 469.946562 308.525944 469.946562 279.404687 
M 248.186562 279.404687 
C 248.186562 279.404687 248.186562 279.404687 248.186562 279.404687 
C 248.186562 279.404687 248.186562 279.404687 248.186562 279.404687 
C 248.186562 279.404687 248.186562 279.404687 248.186562 279.404687 
C 248.186562 279.404687 248.186562 279.404687 248.186562 279.404687 
C 248.186562 279.404687 248.186562 279.404687 248.186562 279.404687 
C 248.186562 279.404687 248.186562 279.404687 248.186562 279.404687 
C 248.186562 279.404687 248.186562 279.404687 248.186562 279.404687 
C 248.186562 279.404687 248.186562 279.404687 248.186562 279.404687 
C 248.186562 279.404687 248.186562 279.404687 248.186562 279.404687 
C 248.186562 279.404687 248.186562 279.404687 248.186562 279.404687 
C 248.186562 279.404687 248.186562 279.404687 248.186562 279.404687 
C 248.186562 279.404687 248.186562 279.404687 248.186562 279.404687 
C 248.186562 279.404687 248.186562 279.404687 248.186562 279.404687 
C 248.186562 279.404687 248.186562 279.404687 248.186562 279.404687 
C 248.186562 279.404687 248.186562 279.404687 248.186562 279.404687 
C 248.186562 279.404687 248.186562 279.404687 248.186562 279.404687 
z
"/>
  </clipPath>
 </defs>
</svg>
