<?xml version="1.0" encoding="utf-8" standalone="no"?>
<!DOCTYPE svg PUBLIC "-//W3C//DTD SVG 1.1//EN"
  "http://www.w3.org/Graphics/SVG/1.1/DTD/svg11.dtd">
<svg xmlns:xlink="http://www.w3.org/1999/xlink" width="708.778258pt" height="568.909375pt" viewBox="0 0 708.778258 568.909375" xmlns="http://www.w3.org/2000/svg" version="1.1">
 <metadata>
  <rdf:RDF xmlns:dc="http://purl.org/dc/elements/1.1/" xmlns:cc="http://creativecommons.org/ns#" xmlns:rdf="http://www.w3.org/1999/02/22-rdf-syntax-ns#">
   <cc:Work>
    <dc:type rdf:resource="http://purl.org/dc/dcmitype/StillImage"/>
    <dc:date>2026-03-02T12:04:46.793697</dc:date>
    <dc:format>image/svg+xml</dc:format>
    <dc:creator>
     <cc:Agent>
      <dc:title>Matplotlib v3.10.8, https://matplotlib.org/</dc:title>
     </cc:Agent>
    </dc:creator>
   </cc:Work>
  </rdf:RDF>
 </metadata>
 <defs>
  <style type="text/css">*{stroke-linejoin: round; stroke-linecap: butt}</style>
 </defs>
 <g id="figure_1">
  <g id="patch_1">
   <path d="M -0 568.909375 
L 708.778258 568.909375 
L 708.778258 0 
L -0 0 
z
" style="fill: #ffffff"/>
  </g>
  <g id="axes_1">
   <g id="patch_2">
    <path d="M 40.298438 531.353125 
L 683.982074 531.353125 
L 683.982074 22.318125 
L 40.298438 22.318125 
z
" style="fill: #ffffff"/>
   </g>
   <g id="PathCollection_1">
    <defs>
     <path id="C0_0_79d4d07947" d="M 0 5 
C 1.326016 5 2.597899 4.473168 3.535534 3.535534 
C 4.473168 2.597899 5 1.326016 5 -0 
C 5 -1.326016 4.473168 -2.597899 3.535534 -3.535534 
C 2.597899 -4.473168 1.326016 -5 0 -5 
C -1.326016 -5 -2.597899 -4.473168 -3.535534 -3.535534 
C -4.473168 -2.597899 -5 -1.326016 -5 0 
C -5 1.326016 -4.473168 2.597899 -3.535534 3.535534 
C -2.597899 4.473168 -1.326016 5 0 5 
z
"/>
    </defs>
    <g clip-path="url(#p42f2216692)">
     <use xlink:href="#C0_0_79d4d07947" x="654.723727" y="114.869943" style="fill: #28a745; fill-opacity: 0.7; stroke: #000000; stroke-opacity: 0.7"/>
    </g>
    <g clip-path="url(#p42f2216692)">
     <use xlink:href="#C0_0_79d4d07947" x="654.723727" y="276.835625" style="fill: #ffc107; fill-opacity: 0.7; stroke: #000000; stroke-opacity: 0.7"/>
    </g>
    <g clip-path="url(#p42f2216692)">
     <use xlink:href="#C0_0_79d4d07947" x="654.723727" y="161.145852" style="fill: #28a745; fill-opacity: 0.7; stroke: #000000; stroke-opacity: 0.7"/>
    </g>
    <g clip-path="url(#p42f2216692)">
     <use xlink:href="#C0_0_79d4d07947" x="654.723727" y="161.145852" style="fill: #28a745; fill-opacity: 0.7; stroke: #000000; stroke-opacity: 0.7"/>
    </g>
    <g clip-path="url(#p42f2216692)">
     <use xlink:href="#C0_0_79d4d07947" x="654.723727" y="230.559716" style="fill: #ffc107; fill-opacity: 0.7; stroke: #000000; stroke-opacity: 0.7"/>
    </g>
    <g clip-path="url(#p42f2216692)">
     <use xlink:href="#C0_0_79d4d07947" x="654.723727" y="207.421761" style="fill: #ffc107; fill-opacity: 0.7; stroke: #000000; stroke-opacity: 0.7"/>
    </g>
    <g clip-path="url(#p42f2216692)">
     <use xlink:href="#C0_0_79d4d07947" x="654.723727" y="114.869943" style="fill: #28a745; fill-opacity: 0.7; stroke: #000000; stroke-opacity: 0.7"/>
    </g>
    <g clip-path="url(#p42f2216692)">
     <use xlink:href="#C0_0_79d4d07947" x="654.723727" y="438.801307" style="fill: #dc3545; fill-opacity: 0.7; stroke: #000000; stroke-opacity: 0.7"/>
    </g>
    <g clip-path="url(#p42f2216692)">
     <use xlink:href="#C0_0_79d4d07947" x="654.723727" y="299.97358" style="fill: #ffc107; fill-opacity: 0.7; stroke: #000000; stroke-opacity: 0.7"/>
    </g>
    <g clip-path="url(#p42f2216692)">
     <use xlink:href="#C0_0_79d4d07947" x="654.723727" y="207.421761" style="fill: #ffc107; fill-opacity: 0.7; stroke: #000000; stroke-opacity: 0.7"/>
    </g>
    <g clip-path="url(#p42f2216692)">
     <use xlink:href="#C0_0_79d4d07947" x="654.723727" y="323.111534" style="fill: #dc3545; fill-opacity: 0.7; stroke: #000000; stroke-opacity: 0.7"/>
    </g>
    <g clip-path="url(#p42f2216692)">
     <use xlink:href="#C0_0_79d4d07947" x="654.723727" y="161.145852" style="fill: #28a745; fill-opacity: 0.7; stroke: #000000; stroke-opacity: 0.7"/>
    </g>
    <g clip-path="url(#p42f2216692)">
     <use xlink:href="#C0_0_79d4d07947" x="654.723727" y="114.869943" style="fill: #28a745; fill-opacity: 0.7; stroke: #000000; stroke-opacity: 0.7"/>
    </g>
    <g clip-path="url(#p42f2216692)">
     <use xlink:href="#C0_0_79d4d07947" x="654.723727" y="253.69767" style="fill: #ffc107; fill-opacity: 0.7; stroke: #000000; stroke-opacity: 0.7"/>
    </g>
    <g clip-path="url(#p42f2216692)">
     <use xlink:href="#C0_0_79d4d07947" x="654.723727" y="184.283807" style="fill: #ffc107; fill-opacity: 0.7; stroke: #000000; stroke-opacity: 0.7"/>
    </g>
   </g>
   <g id="matplotlib.axis_1">
    <g id="xtick_1">
     <g id="line2d_1">
      <path d="M 69.556785 531.353125 
L 69.556785 22.318125 
" clip-path="url(#p42f2216692)" style="fill: none; stroke-dasharray: 2.96,1.28; stroke-dashoffset: 0; stroke: #b0b0b0; stroke-opacity: 0.5; stroke-width: 0.8"/>
     </g>
     <g id="line2d_2">
      <defs>
       <path id="m112684a82c" d="M 0 0 
L 0 3.5 
" style="stroke: #000000; stroke-width: 0.8"/>
      </defs>
      <g>
       <use xlink:href="#m112684a82c" x="69.556785" y="531.353125" style="stroke: #000000; stroke-width: 0.8"/>
      </g>
     </g>
     <g id="text_1">
      <!-- 0 -->
      <g transform="translate(66.69366 545.191719) scale(0.09 -0.09)">
       <defs>
        <path id="DejaVuSerif-30" d="M 2034 219 
Q 2513 219 2750 744 
Q 2988 1269 2988 2328 
Q 2988 3391 2750 3916 
Q 2513 4441 2034 4441 
Q 1556 4441 1318 3916 
Q 1081 3391 1081 2328 
Q 1081 1269 1318 744 
Q 1556 219 2034 219 
z
M 2034 -91 
Q 1275 -91 848 546 
Q 422 1184 422 2328 
Q 422 3475 848 4112 
Q 1275 4750 2034 4750 
Q 2797 4750 3222 4112 
Q 3647 3475 3647 2328 
Q 3647 1184 3222 546 
Q 2797 -91 2034 -91 
z
" transform="scale(0.015625)"/>
       </defs>
       <use xlink:href="#DejaVuSerif-30"/>
      </g>
     </g>
    </g>
    <g id="xtick_2">
     <g id="line2d_3">
      <path d="M 186.590173 531.353125 
L 186.590173 22.318125 
" clip-path="url(#p42f2216692)" style="fill: none; stroke-dasharray: 2.96,1.28; stroke-dashoffset: 0; stroke: #b0b0b0; stroke-opacity: 0.5; stroke-width: 0.8"/>
     </g>
     <g id="line2d_4">
      <g>
       <use xlink:href="#m112684a82c" x="186.590173" y="531.353125" style="stroke: #000000; stroke-width: 0.8"/>
      </g>
     </g>
     <g id="text_2">
      <!-- 20 -->
      <g transform="translate(180.863923 545.191719) scale(0.09 -0.09)">
       <defs>
        <path id="DejaVuSerif-32" d="M 819 3553 
L 469 3553 
L 469 4384 
Q 803 4563 1142 4656 
Q 1481 4750 1806 4750 
Q 2534 4750 2956 4397 
Q 3378 4044 3378 3438 
Q 3378 2753 2422 1800 
Q 2347 1728 2309 1691 
L 1131 513 
L 3078 513 
L 3078 1088 
L 3444 1088 
L 3444 0 
L 434 0 
L 434 341 
L 1850 1753 
Q 2319 2222 2519 2614 
Q 2719 3006 2719 3438 
Q 2719 3909 2473 4175 
Q 2228 4441 1797 4441 
Q 1350 4441 1106 4219 
Q 863 3997 819 3553 
z
" transform="scale(0.015625)"/>
       </defs>
       <use xlink:href="#DejaVuSerif-32"/>
       <use xlink:href="#DejaVuSerif-30" transform="translate(63.623047 0)"/>
      </g>
     </g>
    </g>
    <g id="xtick_3">
     <g id="line2d_5">
      <path d="M 303.623561 531.353125 
L 303.623561 22.318125 
" clip-path="url(#p42f2216692)" style="fill: none; stroke-dasharray: 2.96,1.28; stroke-dashoffset: 0; stroke: #b0b0b0; stroke-opacity: 0.5; stroke-width: 0.8"/>
     </g>
     <g id="line2d_6">
      <g>
       <use xlink:href="#m112684a82c" x="303.623561" y="531.353125" style="stroke: #000000; stroke-width: 0.8"/>
      </g>
     </g>
     <g id="text_3">
      <!-- 40 -->
      <g transform="translate(297.897311 545.191719) scale(0.09 -0.09)">
       <defs>
        <path id="DejaVuSerif-34" d="M 2234 1581 
L 2234 4063 
L 641 1581 
L 2234 1581 
z
M 3609 0 
L 1484 0 
L 1484 331 
L 2234 331 
L 2234 1247 
L 197 1247 
L 197 1588 
L 2241 4750 
L 2859 4750 
L 2859 1581 
L 3750 1581 
L 3750 1247 
L 2859 1247 
L 2859 331 
L 3609 331 
L 3609 0 
z
" transform="scale(0.015625)"/>
       </defs>
       <use xlink:href="#DejaVuSerif-34"/>
       <use xlink:href="#DejaVuSerif-30" transform="translate(63.623047 0)"/>
      </g>
     </g>
    </g>
    <g id="xtick_4">
     <g id="line2d_7">
      <path d="M 420.65695 531.353125 
L 420.65695 22.318125 
" clip-path="url(#p42f2216692)" style="fill: none; stroke-dasharray: 2.96,1.28; stroke-dashoffset: 0; stroke: #b0b0b0; stroke-opacity: 0.5; stroke-width: 0.8"/>
     </g>
     <g id="line2d_8">
      <g>
       <use xlink:href="#m112684a82c" x="420.65695" y="531.353125" style="stroke: #000000; stroke-width: 0.8"/>
      </g>
     </g>
     <g id="text_4">
      <!-- 60 -->
      <g transform="translate(414.9307 545.191719) scale(0.09 -0.09)">
       <defs>
        <path id="DejaVuSerif-36" d="M 2094 219 
Q 2534 219 2771 542 
Q 3009 866 3009 1472 
Q 3009 2078 2771 2401 
Q 2534 2725 2094 2725 
Q 1647 2725 1412 2412 
Q 1178 2100 1178 1509 
Q 1178 888 1415 553 
Q 1653 219 2094 219 
z
M 1075 2569 
Q 1288 2803 1556 2918 
Q 1825 3034 2163 3034 
Q 2859 3034 3264 2615 
Q 3669 2197 3669 1472 
Q 3669 763 3233 336 
Q 2797 -91 2069 -91 
Q 1278 -91 853 498 
Q 428 1088 428 2181 
Q 428 3406 931 4078 
Q 1434 4750 2350 4750 
Q 2597 4750 2869 4703 
Q 3141 4656 3425 4563 
L 3425 3794 
L 3072 3794 
Q 3034 4109 2831 4275 
Q 2628 4441 2284 4441 
Q 1678 4441 1381 3981 
Q 1084 3522 1075 2569 
z
" transform="scale(0.015625)"/>
       </defs>
       <use xlink:href="#DejaVuSerif-36"/>
       <use xlink:href="#DejaVuSerif-30" transform="translate(63.623047 0)"/>
      </g>
     </g>
    </g>
    <g id="xtick_5">
     <g id="line2d_9">
      <path d="M 537.690338 531.353125 
L 537.690338 22.318125 
" clip-path="url(#p42f2216692)" style="fill: none; stroke-dasharray: 2.96,1.28; stroke-dashoffset: 0; stroke: #b0b0b0; stroke-opacity: 0.5; stroke-width: 0.8"/>
     </g>
     <g id="line2d_10">
      <g>
       <use xlink:href="#m112684a82c" x="537.690338" y="531.353125" style="stroke: #000000; stroke-width: 0.8"/>
      </g>
     </g>
     <g id="text_5">
      <!-- 80 -->
      <g transform="translate(531.964088 545.191719) scale(0.09 -0.09)">
       <defs>
        <path id="DejaVuSerif-38" d="M 2981 1275 
Q 2981 1775 2732 2051 
Q 2484 2328 2034 2328 
Q 1584 2328 1336 2051 
Q 1088 1775 1088 1275 
Q 1088 772 1336 495 
Q 1584 219 2034 219 
Q 2484 219 2732 495 
Q 2981 772 2981 1275 
z
M 2853 3541 
Q 2853 3966 2637 4203 
Q 2422 4441 2034 4441 
Q 1650 4441 1433 4203 
Q 1216 3966 1216 3541 
Q 1216 3113 1433 2875 
Q 1650 2638 2034 2638 
Q 2422 2638 2637 2875 
Q 2853 3113 2853 3541 
z
M 2516 2484 
Q 3047 2413 3344 2092 
Q 3641 1772 3641 1275 
Q 3641 619 3225 264 
Q 2809 -91 2034 -91 
Q 1263 -91 845 264 
Q 428 619 428 1275 
Q 428 1772 725 2092 
Q 1022 2413 1556 2484 
Q 1084 2569 832 2842 
Q 581 3116 581 3541 
Q 581 4103 968 4426 
Q 1356 4750 2034 4750 
Q 2713 4750 3100 4426 
Q 3488 4103 3488 3541 
Q 3488 3116 3236 2842 
Q 2984 2569 2516 2484 
z
" transform="scale(0.015625)"/>
       </defs>
       <use xlink:href="#DejaVuSerif-38"/>
       <use xlink:href="#DejaVuSerif-30" transform="translate(63.623047 0)"/>
      </g>
     </g>
    </g>
    <g id="xtick_6">
     <g id="line2d_11">
      <path d="M 654.723727 531.353125 
L 654.723727 22.318125 
" clip-path="url(#p42f2216692)" style="fill: none; stroke-dasharray: 2.96,1.28; stroke-dashoffset: 0; stroke: #b0b0b0; stroke-opacity: 0.5; stroke-width: 0.8"/>
     </g>
     <g id="line2d_12">
      <g>
       <use xlink:href="#m112684a82c" x="654.723727" y="531.353125" style="stroke: #000000; stroke-width: 0.8"/>
      </g>
     </g>
     <g id="text_6">
      <!-- 100 -->
      <g transform="translate(646.134352 545.191719) scale(0.09 -0.09)">
       <defs>
        <path id="DejaVuSerif-31" d="M 909 0 
L 909 331 
L 1722 331 
L 1722 4213 
L 781 3603 
L 781 4013 
L 1919 4750 
L 2350 4750 
L 2350 331 
L 3163 331 
L 3163 0 
L 909 0 
z
" transform="scale(0.015625)"/>
       </defs>
       <use xlink:href="#DejaVuSerif-31"/>
       <use xlink:href="#DejaVuSerif-30" transform="translate(63.623047 0)"/>
       <use xlink:href="#DejaVuSerif-30" transform="translate(127.246094 0)"/>
      </g>
     </g>
    </g>
    <g id="text_7">
     <!-- Детерминизм (%) -->
     <g transform="translate(310.774553 559.421719) scale(0.11 -0.11)">
      <defs>
       <path id="DejaVuSerif-414" d="M 1756 4281 
L 1756 3375 
Q 1756 1431 1615 934 
Q 1475 438 1475 403 
Q 1475 378 1497 354 
Q 1519 331 1619 331 
L 3522 331 
L 3522 4281 
L 1756 4281 
z
M 1372 4331 
L 778 4331 
L 778 4666 
L 4750 4666 
L 4750 4331 
L 4156 4331 
L 4156 331 
L 4878 331 
L 4878 -1003 
L 4547 -1003 
Q 4547 -997 4506 -517 
Q 4466 -38 4122 0 
L 1075 0 
Q 763 0 706 -498 
Q 650 -997 650 -1003 
L 319 -1003 
L 319 331 
L 625 331 
Q 1106 331 1214 995 
Q 1322 1659 1347 2348 
Q 1372 3038 1372 3375 
L 1372 4331 
z
" transform="scale(0.015625)"/>
       <path id="DejaVuSerif-435" d="M 3469 1600 
L 991 1600 
L 991 1575 
Q 991 903 1244 561 
Q 1497 219 1991 219 
Q 2369 219 2611 417 
Q 2853 616 2950 1006 
L 3413 1006 
Q 3275 459 2904 184 
Q 2534 -91 1931 -91 
Q 1203 -91 761 389 
Q 319 869 319 1663 
Q 319 2450 753 2931 
Q 1188 3413 1894 3413 
Q 2647 3413 3050 2948 
Q 3453 2484 3469 1600 
z
M 2791 1931 
Q 2772 2513 2545 2808 
Q 2319 3103 1894 3103 
Q 1497 3103 1269 2806 
Q 1041 2509 991 1931 
L 2791 1931 
z
" transform="scale(0.015625)"/>
       <path id="DejaVuSerif-442" d="M 3297 3322 
L 3297 2419 
L 2969 2419 
L 2969 2938 
L 2066 2938 
L 2066 331 
L 2584 331 
L 2584 0 
L 972 0 
L 972 331 
L 1491 331 
L 1491 2938 
L 588 2938 
L 588 2419 
L 259 2419 
L 259 3322 
L 3297 3322 
z
" transform="scale(0.015625)"/>
       <path id="DejaVuSerif-440" d="M 1313 1825 
L 1313 1497 
Q 1313 897 1542 583 
Q 1772 269 2209 269 
Q 2650 269 2876 622 
Q 3103 975 3103 1663 
Q 3103 2353 2876 2703 
Q 2650 3053 2209 3053 
Q 1772 3053 1542 2737 
Q 1313 2422 1313 1825 
z
M 738 2988 
L 184 2988 
L 184 3322 
L 1313 3322 
L 1313 2803 
Q 1481 3116 1742 3264 
Q 2003 3413 2388 3413 
Q 3000 3413 3387 2928 
Q 3775 2444 3775 1663 
Q 3775 881 3387 395 
Q 3000 -91 2388 -91 
Q 2003 -91 1742 57 
Q 1481 206 1313 519 
L 1313 -997 
L 1856 -997 
L 1856 -1331 
L 184 -1331 
L 184 -997 
L 738 -997 
L 738 2988 
z
" transform="scale(0.015625)"/>
       <path id="DejaVuSerif-43c" d="M 231 0 
L 231 331 
L 750 331 
L 750 2991 
L 231 2991 
L 231 3322 
L 1578 3322 
L 2513 1038 
L 3447 3322 
L 4747 3322 
L 4747 2991 
L 4228 2991 
L 4228 331 
L 4747 331 
L 4747 0 
L 3134 0 
L 3134 331 
L 3653 331 
L 3653 2900 
L 2603 334 
L 2181 334 
L 1134 2900 
L 1134 331 
L 1653 331 
L 1653 0 
L 231 0 
z
" transform="scale(0.015625)"/>
       <path id="DejaVuSerif-438" d="M 219 0 
L 219 331 
L 738 331 
L 738 2991 
L 219 2991 
L 219 3322 
L 1831 3322 
L 1831 2991 
L 1313 2991 
L 1313 1084 
L 2834 2694 
L 2834 2991 
L 2316 2991 
L 2316 3322 
L 3928 3322 
L 3928 2991 
L 3409 2991 
L 3409 331 
L 3928 331 
L 3928 0 
L 2316 0 
L 2316 331 
L 2834 331 
L 2834 2188 
L 1313 578 
L 1313 331 
L 1831 331 
L 1831 0 
L 219 0 
z
" transform="scale(0.015625)"/>
       <path id="DejaVuSerif-43d" d="M 3409 2991 
L 3409 331 
L 3928 331 
L 3928 0 
L 2316 0 
L 2316 331 
L 2834 331 
L 2834 1613 
L 1313 1613 
L 1313 331 
L 1831 331 
L 1831 0 
L 219 0 
L 219 331 
L 738 331 
L 738 2991 
L 219 2991 
L 219 3322 
L 1831 3322 
L 1831 2991 
L 1313 2991 
L 1313 2000 
L 2834 2000 
L 2834 2991 
L 2316 2991 
L 2316 3322 
L 3928 3322 
L 3928 2991 
L 3409 2991 
z
" transform="scale(0.015625)"/>
       <path id="DejaVuSerif-437" d="M 409 3181 
Q 956 3413 1672 3413 
Q 2991 3413 2991 2531 
Q 2991 2038 2658 1900 
Q 2325 1763 2247 1756 
Q 2709 1694 2940 1517 
Q 3172 1341 3172 869 
Q 3172 400 2748 154 
Q 2325 -91 1694 -91 
Q 1119 -91 742 170 
Q 366 431 281 809 
L 744 809 
Q 950 219 1713 219 
Q 2097 219 2350 417 
Q 2603 616 2603 894 
Q 2603 1175 2329 1376 
Q 2056 1578 1513 1578 
L 1225 1578 
L 1225 1909 
L 1375 1909 
Q 1922 1909 2183 2068 
Q 2444 2228 2444 2478 
Q 2444 2763 2222 2922 
Q 2000 3081 1622 3081 
Q 816 3081 747 2547 
L 409 2547 
L 409 3181 
z
" transform="scale(0.015625)"/>
       <path id="DejaVuSerif-20" transform="scale(0.015625)"/>
       <path id="DejaVuSerif-28" d="M 2041 -997 
Q 1281 -656 893 83 
Q 506 822 506 1931 
Q 506 3044 893 3783 
Q 1281 4522 2041 4863 
L 2041 4556 
Q 1559 4225 1350 3623 
Q 1141 3022 1141 1931 
Q 1141 844 1350 242 
Q 1559 -359 2041 -691 
L 2041 -997 
z
" transform="scale(0.015625)"/>
       <path id="DejaVuSerif-25" d="M 1434 4459 
Q 1159 4459 1004 4200 
Q 850 3941 850 3475 
Q 850 3016 1008 2753 
Q 1166 2491 1434 2491 
Q 1700 2491 1854 2752 
Q 2009 3013 2009 3475 
Q 2009 3938 1854 4198 
Q 1700 4459 1434 4459 
z
M 4653 2169 
Q 4381 2169 4226 1906 
Q 4072 1644 4072 1178 
Q 4072 719 4228 458 
Q 4384 197 4653 197 
Q 4922 197 5075 458 
Q 5228 719 5228 1178 
Q 5228 1641 5073 1905 
Q 4919 2169 4653 2169 
z
M 4653 2450 
Q 5147 2450 5437 2106 
Q 5728 1763 5728 1178 
Q 5728 594 5436 251 
Q 5144 -91 4653 -91 
Q 4153 -91 3862 251 
Q 3572 594 3572 1178 
Q 3572 1766 3864 2108 
Q 4156 2450 4653 2450 
z
M 4263 4750 
L 4738 4750 
L 1819 -91 
L 1344 -91 
L 4263 4750 
z
M 1428 4750 
Q 1922 4750 2215 4408 
Q 2509 4066 2509 3481 
Q 2509 2891 2217 2550 
Q 1925 2209 1428 2209 
Q 931 2209 642 2551 
Q 353 2894 353 3481 
Q 353 4063 643 4406 
Q 934 4750 1428 4750 
z
" transform="scale(0.015625)"/>
       <path id="DejaVuSerif-29" d="M 453 -997 
L 453 -691 
Q 934 -359 1145 242 
Q 1356 844 1356 1931 
Q 1356 3022 1145 3623 
Q 934 4225 453 4556 
L 453 4863 
Q 1216 4522 1603 3783 
Q 1991 3044 1991 1931 
Q 1991 822 1603 83 
Q 1216 -656 453 -997 
z
" transform="scale(0.015625)"/>
      </defs>
      <use xlink:href="#DejaVuSerif-414"/>
      <use xlink:href="#DejaVuSerif-435" transform="translate(81.298828 0)"/>
      <use xlink:href="#DejaVuSerif-442" transform="translate(140.478516 0)"/>
      <use xlink:href="#DejaVuSerif-435" transform="translate(195.800781 0)"/>
      <use xlink:href="#DejaVuSerif-440" transform="translate(254.980469 0)"/>
      <use xlink:href="#DejaVuSerif-43c" transform="translate(318.994141 0)"/>
      <use xlink:href="#DejaVuSerif-438" transform="translate(396.777344 0)"/>
      <use xlink:href="#DejaVuSerif-43d" transform="translate(463.427734 0)"/>
      <use xlink:href="#DejaVuSerif-438" transform="translate(530.078125 0)"/>
      <use xlink:href="#DejaVuSerif-437" transform="translate(596.728516 0)"/>
      <use xlink:href="#DejaVuSerif-43c" transform="translate(651.269531 0)"/>
      <use xlink:href="#DejaVuSerif-20" transform="translate(729.052734 0)"/>
      <use xlink:href="#DejaVuSerif-28" transform="translate(760.839844 0)"/>
      <use xlink:href="#DejaVuSerif-25" transform="translate(799.853516 0)"/>
      <use xlink:href="#DejaVuSerif-29" transform="translate(894.873047 0)"/>
     </g>
    </g>
   </g>
   <g id="matplotlib.axis_2">
    <g id="ytick_1">
     <g id="line2d_13">
      <path d="M 40.298438 531.353125 
L 683.982074 531.353125 
" clip-path="url(#p42f2216692)" style="fill: none; stroke-dasharray: 2.96,1.28; stroke-dashoffset: 0; stroke: #b0b0b0; stroke-opacity: 0.5; stroke-width: 0.8"/>
     </g>
     <g id="line2d_14">
      <defs>
       <path id="mbd7da3bb19" d="M 0 0 
L -3.5 0 
" style="stroke: #000000; stroke-width: 0.8"/>
      </defs>
      <g>
       <use xlink:href="#mbd7da3bb19" x="40.298438" y="531.353125" style="stroke: #000000; stroke-width: 0.8"/>
      </g>
     </g>
     <g id="text_8">
      <!-- 0 -->
      <g transform="translate(27.572188 534.772422) scale(0.09 -0.09)">
       <use xlink:href="#DejaVuSerif-30"/>
      </g>
     </g>
    </g>
    <g id="ytick_2">
     <g id="line2d_15">
      <path d="M 40.298438 438.801307 
L 683.982074 438.801307 
" clip-path="url(#p42f2216692)" style="fill: none; stroke-dasharray: 2.96,1.28; stroke-dashoffset: 0; stroke: #b0b0b0; stroke-opacity: 0.5; stroke-width: 0.8"/>
     </g>
     <g id="line2d_16">
      <g>
       <use xlink:href="#mbd7da3bb19" x="40.298438" y="438.801307" style="stroke: #000000; stroke-width: 0.8"/>
      </g>
     </g>
     <g id="text_9">
      <!-- 2 -->
      <g transform="translate(27.572188 442.220604) scale(0.09 -0.09)">
       <use xlink:href="#DejaVuSerif-32"/>
      </g>
     </g>
    </g>
    <g id="ytick_3">
     <g id="line2d_17">
      <path d="M 40.298438 346.249489 
L 683.982074 346.249489 
" clip-path="url(#p42f2216692)" style="fill: none; stroke-dasharray: 2.96,1.28; stroke-dashoffset: 0; stroke: #b0b0b0; stroke-opacity: 0.5; stroke-width: 0.8"/>
     </g>
     <g id="line2d_18">
      <g>
       <use xlink:href="#mbd7da3bb19" x="40.298438" y="346.249489" style="stroke: #000000; stroke-width: 0.8"/>
      </g>
     </g>
     <g id="text_10">
      <!-- 4 -->
      <g transform="translate(27.572188 349.668786) scale(0.09 -0.09)">
       <use xlink:href="#DejaVuSerif-34"/>
      </g>
     </g>
    </g>
    <g id="ytick_4">
     <g id="line2d_19">
      <path d="M 40.298438 253.69767 
L 683.982074 253.69767 
" clip-path="url(#p42f2216692)" style="fill: none; stroke-dasharray: 2.96,1.28; stroke-dashoffset: 0; stroke: #b0b0b0; stroke-opacity: 0.5; stroke-width: 0.8"/>
     </g>
     <g id="line2d_20">
      <g>
       <use xlink:href="#mbd7da3bb19" x="40.298438" y="253.69767" style="stroke: #000000; stroke-width: 0.8"/>
      </g>
     </g>
     <g id="text_11">
      <!-- 6 -->
      <g transform="translate(27.572188 257.116967) scale(0.09 -0.09)">
       <use xlink:href="#DejaVuSerif-36"/>
      </g>
     </g>
    </g>
    <g id="ytick_5">
     <g id="line2d_21">
      <path d="M 40.298438 161.145852 
L 683.982074 161.145852 
" clip-path="url(#p42f2216692)" style="fill: none; stroke-dasharray: 2.96,1.28; stroke-dashoffset: 0; stroke: #b0b0b0; stroke-opacity: 0.5; stroke-width: 0.8"/>
     </g>
     <g id="line2d_22">
      <g>
       <use xlink:href="#mbd7da3bb19" x="40.298438" y="161.145852" style="stroke: #000000; stroke-width: 0.8"/>
      </g>
     </g>
     <g id="text_12">
      <!-- 8 -->
      <g transform="translate(27.572188 164.565149) scale(0.09 -0.09)">
       <use xlink:href="#DejaVuSerif-38"/>
      </g>
     </g>
    </g>
    <g id="ytick_6">
     <g id="line2d_23">
      <path d="M 40.298438 68.594034 
L 683.982074 68.594034 
" clip-path="url(#p42f2216692)" style="fill: none; stroke-dasharray: 2.96,1.28; stroke-dashoffset: 0; stroke: #b0b0b0; stroke-opacity: 0.5; stroke-width: 0.8"/>
     </g>
     <g id="line2d_24">
      <g>
       <use xlink:href="#mbd7da3bb19" x="40.298438" y="68.594034" style="stroke: #000000; stroke-width: 0.8"/>
      </g>
     </g>
     <g id="text_13">
      <!-- 10 -->
      <g transform="translate(21.845938 72.013331) scale(0.09 -0.09)">
       <use xlink:href="#DejaVuSerif-31"/>
       <use xlink:href="#DejaVuSerif-30" transform="translate(63.623047 0)"/>
      </g>
     </g>
    </g>
    <g id="text_14">
     <!-- Интегральный показатель Q -->
     <g transform="translate(15.558281 360.241406) rotate(-90) scale(0.11 -0.11)">
      <defs>
       <path id="DejaVuSerif-418" d="M 353 0 
L 353 331 
L 947 331 
L 947 4331 
L 353 4331 
L 353 4666 
L 2175 4666 
L 2175 4331 
L 1581 4331 
L 1581 1447 
L 4000 3803 
L 4000 4331 
L 3406 4331 
L 3406 4666 
L 5228 4666 
L 5228 4331 
L 4634 4331 
L 4634 331 
L 5228 331 
L 5228 0 
L 3406 0 
L 3406 331 
L 4000 331 
L 4000 3216 
L 1581 859 
L 1581 331 
L 2175 331 
L 2175 0 
L 353 0 
z
" transform="scale(0.015625)"/>
       <path id="DejaVuSerif-433" d="M 3075 3322 
L 3075 2419 
L 2744 2419 
L 2744 2938 
L 1313 2938 
L 1313 331 
L 1759 331 
L 1759 0 
L 219 0 
L 219 331 
L 738 331 
L 738 2991 
L 184 2991 
L 184 3322 
L 3075 3322 
z
" transform="scale(0.015625)"/>
       <path id="DejaVuSerif-430" d="M 2547 1044 
L 2547 1747 
L 1806 1747 
Q 1378 1747 1168 1562 
Q 959 1378 959 997 
Q 959 650 1171 447 
Q 1384 244 1747 244 
Q 2106 244 2326 466 
Q 2547 688 2547 1044 
z
M 3122 2075 
L 3122 331 
L 3634 331 
L 3634 0 
L 2547 0 
L 2547 359 
Q 2356 128 2106 18 
Q 1856 -91 1522 -91 
Q 969 -91 644 203 
Q 319 497 319 997 
Q 319 1513 691 1797 
Q 1063 2081 1741 2081 
L 2547 2081 
L 2547 2309 
Q 2547 2688 2317 2895 
Q 2088 3103 1672 3103 
Q 1328 3103 1125 2947 
Q 922 2791 872 2484 
L 575 2484 
L 575 3156 
Q 875 3284 1158 3348 
Q 1441 3413 1709 3413 
Q 2400 3413 2761 3070 
Q 3122 2728 3122 2075 
z
" transform="scale(0.015625)"/>
       <path id="DejaVuSerif-43b" d="M 925 472 
Q 981 603 1034 908 
Q 1088 1213 1131 1538 
Q 1163 1778 1163 2403 
L 1163 2991 
L 644 2991 
L 644 3322 
L 3834 3322 
L 3834 2991 
L 3319 2991 
L 3319 331 
L 3834 331 
L 3834 0 
L 2225 0 
L 2225 331 
L 2744 331 
L 2744 2944 
L 1547 2944 
L 1547 2400 
Q 1547 1903 1516 1538 
Q 1494 1278 1431 954 
Q 1369 631 1303 381 
Q 1247 156 1055 32 
Q 863 -91 603 -91 
Q 550 -91 447 -80 
Q 344 -69 131 0 
L 113 391 
Q 350 294 547 294 
Q 675 294 773 325 
Q 872 356 925 472 
z
" transform="scale(0.015625)"/>
       <path id="DejaVuSerif-44c" d="M 1313 331 
L 2022 331 
Q 2338 331 2522 506 
Q 2706 681 2706 969 
Q 2706 1256 2520 1429 
Q 2334 1603 2022 1603 
L 1313 1603 
L 1313 331 
z
M 3216 963 
Q 3216 0 2019 0 
L 188 0 
L 188 331 
L 738 331 
L 738 2991 
L 188 2991 
L 188 3322 
L 1831 3322 
L 1831 2991 
L 1313 2991 
L 1313 1947 
L 1922 1947 
Q 3216 1947 3216 963 
z
" transform="scale(0.015625)"/>
       <path id="DejaVuSerif-44b" d="M 1313 331 
L 2022 331 
Q 2338 331 2522 506 
Q 2706 681 2706 969 
Q 2706 1256 2520 1429 
Q 2334 1603 2022 1603 
L 1313 1603 
L 1313 331 
z
M 3216 963 
Q 3216 0 2019 0 
L 188 0 
L 188 331 
L 738 331 
L 738 2991 
L 188 2991 
L 188 3322 
L 1831 3322 
L 1831 2991 
L 1313 2991 
L 1313 1947 
L 1922 1947 
Q 3216 1947 3216 963 
z
M 4347 2984 
L 4347 331 
L 4866 331 
L 4866 0 
L 3253 0 
L 3253 331 
L 3772 331 
L 3772 2991 
L 3253 2991 
L 3253 3322 
L 4866 3322 
L 4866 2984 
L 4347 2984 
z
" transform="scale(0.015625)"/>
       <path id="DejaVuSerif-439" d="M 1110 4564 
Q 1110 4649 1185 4724 
Q 1260 4799 1366 4799 
Q 1472 4799 1547 4724 
Q 1622 4649 1622 4536 
Q 1622 4424 1544 4352 
Q 1701 4243 2088 4243 
Q 2476 4243 2632 4352 
Q 2554 4424 2554 4536 
Q 2554 4649 2629 4724 
Q 2704 4799 2810 4799 
Q 2916 4799 2991 4724 
Q 3066 4649 3066 4564 
Q 3066 4480 2985 4225 
Q 2904 3971 2088 3971 
Q 1272 3971 1191 4225 
Q 1110 4480 1110 4564 
z
M 219 0 
L 219 331 
L 738 331 
L 738 2991 
L 219 2991 
L 219 3322 
L 1831 3322 
L 1831 2991 
L 1313 2991 
L 1313 1084 
L 2834 2694 
L 2834 2991 
L 2316 2991 
L 2316 3322 
L 3928 3322 
L 3928 2991 
L 3409 2991 
L 3409 331 
L 3928 331 
L 3928 0 
L 2316 0 
L 2316 331 
L 2834 331 
L 2834 2188 
L 1313 578 
L 1313 331 
L 1831 331 
L 1831 0 
L 219 0 
z
" transform="scale(0.015625)"/>
       <path id="DejaVuSerif-43f" d="M 3928 3322 
L 3928 2991 
L 3409 2991 
L 3409 331 
L 3928 331 
L 3928 0 
L 2316 0 
L 2316 331 
L 2834 331 
L 2834 2938 
L 1313 2938 
L 1313 331 
L 1831 331 
L 1831 0 
L 219 0 
L 219 331 
L 738 331 
L 738 2991 
L 219 2991 
L 219 3322 
L 3928 3322 
z
" transform="scale(0.015625)"/>
       <path id="DejaVuSerif-43e" d="M 1925 219 
Q 2388 219 2623 584 
Q 2859 950 2859 1663 
Q 2859 2375 2623 2739 
Q 2388 3103 1925 3103 
Q 1463 3103 1227 2739 
Q 991 2375 991 1663 
Q 991 950 1228 584 
Q 1466 219 1925 219 
z
M 1925 -91 
Q 1200 -91 759 389 
Q 319 869 319 1663 
Q 319 2456 758 2934 
Q 1197 3413 1925 3413 
Q 2653 3413 3092 2934 
Q 3531 2456 3531 1663 
Q 3531 869 3092 389 
Q 2653 -91 1925 -91 
z
" transform="scale(0.015625)"/>
       <path id="DejaVuSerif-43a" d="M 1831 3322 
L 1831 2991 
L 1313 2991 
L 1313 1697 
L 2713 2991 
L 2234 2991 
L 2234 3322 
L 3738 3322 
L 3738 2991 
L 3169 2991 
L 2181 2075 
L 3444 331 
L 3922 331 
L 3922 0 
L 2284 0 
L 2284 331 
L 2759 331 
L 1766 1697 
L 1313 1275 
L 1313 331 
L 1831 331 
L 1831 0 
L 219 0 
L 219 331 
L 738 331 
L 738 2991 
L 219 2991 
L 219 3322 
L 1831 3322 
z
" transform="scale(0.015625)"/>
       <path id="DejaVuSerif-51" d="M 2700 -91 
Q 1628 -91 993 567 
Q 359 1225 359 2328 
Q 359 2894 529 3339 
Q 700 3784 1050 4134 
Q 1356 4441 1750 4595 
Q 2144 4750 2625 4750 
Q 3641 4750 4266 4084 
Q 4891 3419 4891 2328 
Q 4891 1403 4422 773 
Q 3953 144 3128 -38 
Q 3297 -247 3539 -347 
Q 3781 -447 4122 -447 
L 4219 -447 
L 4219 -1025 
Q 3691 -1000 3314 -767 
Q 2938 -534 2700 -91 
z
M 2625 244 
Q 3391 244 3781 770 
Q 4172 1297 4172 2328 
Q 4172 3363 3781 3889 
Q 3391 4416 2625 4416 
Q 1856 4416 1465 3889 
Q 1075 3363 1075 2328 
Q 1075 1297 1465 770 
Q 1856 244 2625 244 
z
" transform="scale(0.015625)"/>
      </defs>
      <use xlink:href="#DejaVuSerif-418"/>
      <use xlink:href="#DejaVuSerif-43d" transform="translate(87.207031 0)"/>
      <use xlink:href="#DejaVuSerif-442" transform="translate(153.857422 0)"/>
      <use xlink:href="#DejaVuSerif-435" transform="translate(209.179688 0)"/>
      <use xlink:href="#DejaVuSerif-433" transform="translate(268.359375 0)"/>
      <use xlink:href="#DejaVuSerif-440" transform="translate(320.751953 0)"/>
      <use xlink:href="#DejaVuSerif-430" transform="translate(384.765625 0)"/>
      <use xlink:href="#DejaVuSerif-43b" transform="translate(444.384766 0)"/>
      <use xlink:href="#DejaVuSerif-44c" transform="translate(507.910156 0)"/>
      <use xlink:href="#DejaVuSerif-43d" transform="translate(562.353516 0)"/>
      <use xlink:href="#DejaVuSerif-44b" transform="translate(629.003906 0)"/>
      <use xlink:href="#DejaVuSerif-439" transform="translate(708.59375 0)"/>
      <use xlink:href="#DejaVuSerif-20" transform="translate(775.244141 0)"/>
      <use xlink:href="#DejaVuSerif-43f" transform="translate(807.03125 0)"/>
      <use xlink:href="#DejaVuSerif-43e" transform="translate(873.681641 0)"/>
      <use xlink:href="#DejaVuSerif-43a" transform="translate(933.886719 0)"/>
      <use xlink:href="#DejaVuSerif-430" transform="translate(996.386719 0)"/>
      <use xlink:href="#DejaVuSerif-437" transform="translate(1056.005859 0)"/>
      <use xlink:href="#DejaVuSerif-430" transform="translate(1110.546875 0)"/>
      <use xlink:href="#DejaVuSerif-442" transform="translate(1170.166016 0)"/>
      <use xlink:href="#DejaVuSerif-435" transform="translate(1225.488281 0)"/>
      <use xlink:href="#DejaVuSerif-43b" transform="translate(1284.667969 0)"/>
      <use xlink:href="#DejaVuSerif-44c" transform="translate(1348.193359 0)"/>
      <use xlink:href="#DejaVuSerif-20" transform="translate(1402.636719 0)"/>
      <use xlink:href="#DejaVuSerif-51" transform="translate(1434.423828 0)"/>
     </g>
    </g>
   </g>
   <g id="patch_3">
    <path d="M 40.298438 531.353125 
L 40.298438 22.318125 
" style="fill: none; stroke: #000000; stroke-width: 0.8; stroke-linejoin: miter; stroke-linecap: square"/>
   </g>
   <g id="patch_4">
    <path d="M 683.982074 531.353125 
L 683.982074 22.318125 
" style="fill: none; stroke: #000000; stroke-width: 0.8; stroke-linejoin: miter; stroke-linecap: square"/>
   </g>
   <g id="patch_5">
    <path d="M 40.298438 531.353125 
L 683.982074 531.353125 
" style="fill: none; stroke: #000000; stroke-width: 0.8; stroke-linejoin: miter; stroke-linecap: square"/>
   </g>
   <g id="patch_6">
    <path d="M 40.298438 22.318125 
L 683.982074 22.318125 
" style="fill: none; stroke: #000000; stroke-width: 0.8; stroke-linejoin: miter; stroke-linecap: square"/>
   </g>
   <g id="text_15">
    <!-- B1 -->
    <g transform="translate(659.723727 102.031474) scale(0.07 -0.07)">
     <defs>
      <path id="DejaVuSerif-42" d="M 1581 331 
L 2516 331 
Q 3078 331 3337 575 
Q 3597 819 3597 1350 
Q 3597 1878 3339 2120 
Q 3081 2363 2516 2363 
L 1581 2363 
L 1581 331 
z
M 1581 2694 
L 2375 2694 
Q 2888 2694 3123 2891 
Q 3359 3088 3359 3513 
Q 3359 3941 3123 4136 
Q 2888 4331 2375 4331 
L 1581 4331 
L 1581 2694 
z
M 353 0 
L 353 331 
L 947 331 
L 947 4331 
L 353 4331 
L 353 4666 
L 2656 4666 
Q 3363 4666 3720 4377 
Q 4078 4088 4078 3513 
Q 4078 3097 3829 2850 
Q 3581 2603 3103 2547 
Q 3697 2472 4005 2167 
Q 4313 1863 4313 1350 
Q 4313 656 3875 328 
Q 3438 0 2509 0 
L 353 0 
z
" transform="scale(0.015625)"/>
     </defs>
     <use xlink:href="#DejaVuSerif-42"/>
     <use xlink:href="#DejaVuSerif-31" transform="translate(73.486328 0)"/>
    </g>
    <!-- Claude Opu -->
    <g transform="translate(659.723727 109.869943) scale(0.07 -0.07)">
     <defs>
      <path id="DejaVuSerif-43" d="M 4513 1234 
Q 4306 581 3820 245 
Q 3334 -91 2591 -91 
Q 2134 -91 1743 65 
Q 1353 222 1050 525 
Q 700 875 529 1320 
Q 359 1766 359 2328 
Q 359 3416 987 4083 
Q 1616 4750 2644 4750 
Q 3025 4750 3456 4650 
Q 3888 4550 4384 4347 
L 4384 3272 
L 4031 3272 
Q 3916 3859 3567 4137 
Q 3219 4416 2591 4416 
Q 1844 4416 1459 3886 
Q 1075 3356 1075 2328 
Q 1075 1303 1459 773 
Q 1844 244 2591 244 
Q 3113 244 3450 492 
Q 3788 741 3938 1234 
L 4513 1234 
z
" transform="scale(0.015625)"/>
      <path id="DejaVuSerif-6c" d="M 1313 331 
L 1856 331 
L 1856 0 
L 184 0 
L 184 331 
L 738 331 
L 738 4531 
L 184 4531 
L 184 4863 
L 1313 4863 
L 1313 331 
z
" transform="scale(0.015625)"/>
      <path id="DejaVuSerif-61" d="M 2547 1044 
L 2547 1747 
L 1806 1747 
Q 1378 1747 1168 1562 
Q 959 1378 959 997 
Q 959 650 1171 447 
Q 1384 244 1747 244 
Q 2106 244 2326 466 
Q 2547 688 2547 1044 
z
M 3122 2075 
L 3122 331 
L 3634 331 
L 3634 0 
L 2547 0 
L 2547 359 
Q 2356 128 2106 18 
Q 1856 -91 1522 -91 
Q 969 -91 644 203 
Q 319 497 319 997 
Q 319 1513 691 1797 
Q 1063 2081 1741 2081 
L 2547 2081 
L 2547 2309 
Q 2547 2688 2317 2895 
Q 2088 3103 1672 3103 
Q 1328 3103 1125 2947 
Q 922 2791 872 2484 
L 575 2484 
L 575 3156 
Q 875 3284 1158 3348 
Q 1441 3413 1709 3413 
Q 2400 3413 2761 3070 
Q 3122 2728 3122 2075 
z
" transform="scale(0.015625)"/>
      <path id="DejaVuSerif-75" d="M 2266 3322 
L 3341 3322 
L 3341 331 
L 3884 331 
L 3884 0 
L 2766 0 
L 2766 588 
Q 2606 256 2353 82 
Q 2100 -91 1766 -91 
Q 1213 -91 952 223 
Q 691 538 691 1209 
L 691 2988 
L 172 2988 
L 172 3322 
L 1269 3322 
L 1269 1388 
Q 1269 781 1417 556 
Q 1566 331 1947 331 
Q 2347 331 2556 625 
Q 2766 919 2766 1478 
L 2766 2988 
L 2266 2988 
L 2266 3322 
z
" transform="scale(0.015625)"/>
      <path id="DejaVuSerif-64" d="M 3359 331 
L 3909 331 
L 3909 0 
L 2784 0 
L 2784 519 
Q 2616 206 2355 57 
Q 2094 -91 1709 -91 
Q 1097 -91 708 395 
Q 319 881 319 1663 
Q 319 2444 706 2928 
Q 1094 3413 1709 3413 
Q 2094 3413 2355 3264 
Q 2616 3116 2784 2803 
L 2784 4531 
L 2241 4531 
L 2241 4863 
L 3359 4863 
L 3359 331 
z
M 2784 1497 
L 2784 1825 
Q 2784 2422 2554 2737 
Q 2325 3053 1888 3053 
Q 1444 3053 1217 2703 
Q 991 2353 991 1663 
Q 991 975 1217 622 
Q 1444 269 1888 269 
Q 2325 269 2554 583 
Q 2784 897 2784 1497 
z
" transform="scale(0.015625)"/>
      <path id="DejaVuSerif-65" d="M 3469 1600 
L 991 1600 
L 991 1575 
Q 991 903 1244 561 
Q 1497 219 1991 219 
Q 2369 219 2611 417 
Q 2853 616 2950 1006 
L 3413 1006 
Q 3275 459 2904 184 
Q 2534 -91 1931 -91 
Q 1203 -91 761 389 
Q 319 869 319 1663 
Q 319 2450 753 2931 
Q 1188 3413 1894 3413 
Q 2647 3413 3050 2948 
Q 3453 2484 3469 1600 
z
M 2791 1931 
Q 2772 2513 2545 2808 
Q 2319 3103 1894 3103 
Q 1497 3103 1269 2806 
Q 1041 2509 991 1931 
L 2791 1931 
z
" transform="scale(0.015625)"/>
      <path id="DejaVuSerif-4f" d="M 2625 244 
Q 3391 244 3781 770 
Q 4172 1297 4172 2328 
Q 4172 3363 3781 3889 
Q 3391 4416 2625 4416 
Q 1856 4416 1465 3889 
Q 1075 3363 1075 2328 
Q 1075 1297 1465 770 
Q 1856 244 2625 244 
z
M 2625 -91 
Q 2150 -91 1751 65 
Q 1353 222 1050 525 
Q 700 875 529 1319 
Q 359 1763 359 2328 
Q 359 2894 529 3339 
Q 700 3784 1050 4134 
Q 1356 4441 1750 4595 
Q 2144 4750 2625 4750 
Q 3641 4750 4266 4084 
Q 4891 3419 4891 2328 
Q 4891 1769 4719 1320 
Q 4547 872 4197 525 
Q 3891 219 3497 64 
Q 3103 -91 2625 -91 
z
" transform="scale(0.015625)"/>
      <path id="DejaVuSerif-70" d="M 1313 1825 
L 1313 1497 
Q 1313 897 1542 583 
Q 1772 269 2209 269 
Q 2650 269 2876 622 
Q 3103 975 3103 1663 
Q 3103 2353 2876 2703 
Q 2650 3053 2209 3053 
Q 1772 3053 1542 2737 
Q 1313 2422 1313 1825 
z
M 738 2988 
L 184 2988 
L 184 3322 
L 1313 3322 
L 1313 2803 
Q 1481 3116 1742 3264 
Q 2003 3413 2388 3413 
Q 3000 3413 3387 2928 
Q 3775 2444 3775 1663 
Q 3775 881 3387 395 
Q 3000 -91 2388 -91 
Q 2003 -91 1742 57 
Q 1481 206 1313 519 
L 1313 -997 
L 1856 -997 
L 1856 -1331 
L 184 -1331 
L 184 -997 
L 738 -997 
L 738 2988 
z
" transform="scale(0.015625)"/>
     </defs>
     <use xlink:href="#DejaVuSerif-43"/>
     <use xlink:href="#DejaVuSerif-6c" transform="translate(76.513672 0)"/>
     <use xlink:href="#DejaVuSerif-61" transform="translate(108.496094 0)"/>
     <use xlink:href="#DejaVuSerif-75" transform="translate(168.115234 0)"/>
     <use xlink:href="#DejaVuSerif-64" transform="translate(232.519531 0)"/>
     <use xlink:href="#DejaVuSerif-65" transform="translate(296.533203 0)"/>
     <use xlink:href="#DejaVuSerif-20" transform="translate(355.712891 0)"/>
     <use xlink:href="#DejaVuSerif-4f" transform="translate(387.5 0)"/>
     <use xlink:href="#DejaVuSerif-70" transform="translate(469.482422 0)"/>
     <use xlink:href="#DejaVuSerif-75" transform="translate(533.496094 0)"/>
    </g>
   </g>
   <g id="text_16">
    <!-- B1 -->
    <g transform="translate(659.723727 263.997156) scale(0.07 -0.07)">
     <use xlink:href="#DejaVuSerif-42"/>
     <use xlink:href="#DejaVuSerif-31" transform="translate(73.486328 0)"/>
    </g>
    <!-- GPT-5.2 Co -->
    <g transform="translate(659.723727 271.835625) scale(0.07 -0.07)">
     <defs>
      <path id="DejaVuSerif-47" d="M 4097 3272 
Q 3988 3856 3641 4136 
Q 3294 4416 2675 4416 
Q 1869 4416 1472 3897 
Q 1075 3378 1075 2328 
Q 1075 1300 1484 772 
Q 1894 244 2688 244 
Q 3041 244 3362 331 
Q 3684 419 3975 594 
L 3975 1797 
L 3097 1797 
L 3097 2131 
L 4609 2131 
L 4609 391 
Q 4194 150 3714 29 
Q 3234 -91 2688 -91 
Q 1631 -91 995 570 
Q 359 1231 359 2328 
Q 359 3434 996 4092 
Q 1634 4750 2713 4750 
Q 3113 4750 3539 4658 
Q 3966 4566 4447 4378 
L 4447 3272 
L 4097 3272 
z
" transform="scale(0.015625)"/>
      <path id="DejaVuSerif-50" d="M 1581 2375 
L 2406 2375 
Q 2872 2375 3115 2626 
Q 3359 2878 3359 3353 
Q 3359 3831 3115 4081 
Q 2872 4331 2406 4331 
L 1581 4331 
L 1581 2375 
z
M 353 0 
L 353 331 
L 947 331 
L 947 4331 
L 353 4331 
L 353 4666 
L 2559 4666 
Q 3259 4666 3668 4311 
Q 4078 3956 4078 3353 
Q 4078 2753 3668 2397 
Q 3259 2041 2559 2041 
L 1581 2041 
L 1581 331 
L 2303 331 
L 2303 0 
L 353 0 
z
" transform="scale(0.015625)"/>
      <path id="DejaVuSerif-54" d="M 1222 0 
L 1222 331 
L 1819 331 
L 1819 4294 
L 447 4294 
L 447 3566 
L 63 3566 
L 63 4666 
L 4206 4666 
L 4206 3566 
L 3822 3566 
L 3822 4294 
L 2450 4294 
L 2450 331 
L 3047 331 
L 3047 0 
L 1222 0 
z
" transform="scale(0.015625)"/>
      <path id="DejaVuSerif-2d" d="M 281 1959 
L 1881 1959 
L 1881 1472 
L 281 1472 
L 281 1959 
z
" transform="scale(0.015625)"/>
      <path id="DejaVuSerif-35" d="M 3219 4666 
L 3219 4153 
L 1081 4153 
L 1081 2816 
Q 1244 2928 1461 2984 
Q 1678 3041 1947 3041 
Q 2703 3041 3140 2622 
Q 3578 2203 3578 1478 
Q 3578 738 3136 323 
Q 2694 -91 1894 -91 
Q 1572 -91 1234 -12 
Q 897 66 544 225 
L 544 1131 
L 897 1131 
Q 925 688 1179 453 
Q 1434 219 1894 219 
Q 2388 219 2653 544 
Q 2919 869 2919 1478 
Q 2919 2084 2655 2407 
Q 2391 2731 1894 2731 
Q 1613 2731 1398 2631 
Q 1184 2531 1019 2322 
L 750 2322 
L 750 4666 
L 3219 4666 
z
" transform="scale(0.015625)"/>
      <path id="DejaVuSerif-2e" d="M 603 325 
Q 603 500 722 622 
Q 841 744 1019 744 
Q 1191 744 1312 622 
Q 1434 500 1434 325 
Q 1434 153 1312 31 
Q 1191 -91 1019 -91 
Q 841 -91 722 29 
Q 603 150 603 325 
z
" transform="scale(0.015625)"/>
      <path id="DejaVuSerif-6f" d="M 1925 219 
Q 2388 219 2623 584 
Q 2859 950 2859 1663 
Q 2859 2375 2623 2739 
Q 2388 3103 1925 3103 
Q 1463 3103 1227 2739 
Q 991 2375 991 1663 
Q 991 950 1228 584 
Q 1466 219 1925 219 
z
M 1925 -91 
Q 1200 -91 759 389 
Q 319 869 319 1663 
Q 319 2456 758 2934 
Q 1197 3413 1925 3413 
Q 2653 3413 3092 2934 
Q 3531 2456 3531 1663 
Q 3531 869 3092 389 
Q 2653 -91 1925 -91 
z
" transform="scale(0.015625)"/>
     </defs>
     <use xlink:href="#DejaVuSerif-47"/>
     <use xlink:href="#DejaVuSerif-50" transform="translate(79.882812 0)"/>
     <use xlink:href="#DejaVuSerif-54" transform="translate(147.167969 0)"/>
     <use xlink:href="#DejaVuSerif-2d" transform="translate(200.992188 0)"/>
     <use xlink:href="#DejaVuSerif-35" transform="translate(234.78125 0)"/>
     <use xlink:href="#DejaVuSerif-2e" transform="translate(298.404297 0)"/>
     <use xlink:href="#DejaVuSerif-32" transform="translate(330.191406 0)"/>
     <use xlink:href="#DejaVuSerif-20" transform="translate(393.814453 0)"/>
     <use xlink:href="#DejaVuSerif-43" transform="translate(425.601562 0)"/>
     <use xlink:href="#DejaVuSerif-6f" transform="translate(502.115234 0)"/>
    </g>
   </g>
   <g id="text_17">
    <!-- B1 -->
    <g transform="translate(659.723727 148.307384) scale(0.07 -0.07)">
     <use xlink:href="#DejaVuSerif-42"/>
     <use xlink:href="#DejaVuSerif-31" transform="translate(73.486328 0)"/>
    </g>
    <!-- Gemini 3 F -->
    <g transform="translate(659.723727 156.145852) scale(0.07 -0.07)">
     <defs>
      <path id="DejaVuSerif-6d" d="M 3316 2675 
Q 3481 3041 3739 3227 
Q 3997 3413 4341 3413 
Q 4863 3413 5119 3089 
Q 5375 2766 5375 2113 
L 5375 331 
L 5894 331 
L 5894 0 
L 4300 0 
L 4300 331 
L 4800 331 
L 4800 2047 
Q 4800 2556 4650 2772 
Q 4500 2988 4153 2988 
Q 3769 2988 3567 2697 
Q 3366 2406 3366 1850 
L 3366 331 
L 3866 331 
L 3866 0 
L 2291 0 
L 2291 331 
L 2791 331 
L 2791 2069 
Q 2791 2566 2641 2777 
Q 2491 2988 2144 2988 
Q 1759 2988 1557 2697 
Q 1356 2406 1356 1850 
L 1356 331 
L 1856 331 
L 1856 0 
L 263 0 
L 263 331 
L 781 331 
L 781 2994 
L 231 2994 
L 231 3322 
L 1356 3322 
L 1356 2731 
Q 1516 3063 1762 3238 
Q 2009 3413 2322 3413 
Q 2709 3413 2968 3220 
Q 3228 3028 3316 2675 
z
" transform="scale(0.015625)"/>
      <path id="DejaVuSerif-69" d="M 622 4353 
Q 622 4497 726 4603 
Q 831 4709 978 4709 
Q 1122 4709 1226 4603 
Q 1331 4497 1331 4353 
Q 1331 4206 1228 4103 
Q 1125 4000 978 4000 
Q 831 4000 726 4103 
Q 622 4206 622 4353 
z
M 1356 331 
L 1900 331 
L 1900 0 
L 231 0 
L 231 331 
L 781 331 
L 781 2988 
L 231 2988 
L 231 3322 
L 1356 3322 
L 1356 331 
z
" transform="scale(0.015625)"/>
      <path id="DejaVuSerif-6e" d="M 263 0 
L 263 331 
L 781 331 
L 781 2988 
L 231 2988 
L 231 3322 
L 1356 3322 
L 1356 2731 
Q 1516 3069 1770 3241 
Q 2025 3413 2363 3413 
Q 2913 3413 3172 3097 
Q 3431 2781 3431 2113 
L 3431 331 
L 3944 331 
L 3944 0 
L 2356 0 
L 2356 331 
L 2853 331 
L 2853 1931 
Q 2853 2541 2703 2767 
Q 2553 2994 2175 2994 
Q 1775 2994 1565 2701 
Q 1356 2409 1356 1850 
L 1356 331 
L 1856 331 
L 1856 0 
L 263 0 
z
" transform="scale(0.015625)"/>
      <path id="DejaVuSerif-33" d="M 622 4469 
Q 988 4606 1323 4678 
Q 1659 4750 1953 4750 
Q 2638 4750 3022 4454 
Q 3406 4159 3406 3634 
Q 3406 3213 3140 2930 
Q 2875 2647 2388 2547 
Q 2963 2466 3280 2130 
Q 3597 1794 3597 1259 
Q 3597 606 3158 257 
Q 2719 -91 1894 -91 
Q 1528 -91 1179 -12 
Q 831 66 488 225 
L 488 1131 
L 838 1131 
Q 869 681 1141 450 
Q 1413 219 1906 219 
Q 2384 219 2661 495 
Q 2938 772 2938 1253 
Q 2938 1803 2653 2086 
Q 2369 2369 1819 2369 
L 1522 2369 
L 1522 2688 
L 1678 2688 
Q 2225 2688 2498 2914 
Q 2772 3141 2772 3597 
Q 2772 4006 2547 4223 
Q 2322 4441 1900 4441 
Q 1478 4441 1245 4241 
Q 1013 4041 972 3647 
L 622 3647 
L 622 4469 
z
" transform="scale(0.015625)"/>
      <path id="DejaVuSerif-46" d="M 353 0 
L 353 331 
L 947 331 
L 947 4331 
L 353 4331 
L 353 4666 
L 4172 4666 
L 4172 3628 
L 3788 3628 
L 3788 4281 
L 1581 4281 
L 1581 2719 
L 3175 2719 
L 3175 3303 
L 3559 3303 
L 3559 1753 
L 3175 1753 
L 3175 2338 
L 1581 2338 
L 1581 331 
L 2328 331 
L 2328 0 
L 353 0 
z
" transform="scale(0.015625)"/>
     </defs>
     <use xlink:href="#DejaVuSerif-47"/>
     <use xlink:href="#DejaVuSerif-65" transform="translate(79.882812 0)"/>
     <use xlink:href="#DejaVuSerif-6d" transform="translate(139.0625 0)"/>
     <use xlink:href="#DejaVuSerif-69" transform="translate(233.886719 0)"/>
     <use xlink:href="#DejaVuSerif-6e" transform="translate(265.869141 0)"/>
     <use xlink:href="#DejaVuSerif-69" transform="translate(330.273438 0)"/>
     <use xlink:href="#DejaVuSerif-20" transform="translate(362.255859 0)"/>
     <use xlink:href="#DejaVuSerif-33" transform="translate(394.042969 0)"/>
     <use xlink:href="#DejaVuSerif-20" transform="translate(457.666016 0)"/>
     <use xlink:href="#DejaVuSerif-46" transform="translate(489.453125 0)"/>
    </g>
   </g>
   <g id="text_18">
    <!-- B2 -->
    <g transform="translate(659.723727 148.307384) scale(0.07 -0.07)">
     <use xlink:href="#DejaVuSerif-42"/>
     <use xlink:href="#DejaVuSerif-32" transform="translate(73.486328 0)"/>
    </g>
    <!-- Claude Opu -->
    <g transform="translate(659.723727 156.145852) scale(0.07 -0.07)">
     <use xlink:href="#DejaVuSerif-43"/>
     <use xlink:href="#DejaVuSerif-6c" transform="translate(76.513672 0)"/>
     <use xlink:href="#DejaVuSerif-61" transform="translate(108.496094 0)"/>
     <use xlink:href="#DejaVuSerif-75" transform="translate(168.115234 0)"/>
     <use xlink:href="#DejaVuSerif-64" transform="translate(232.519531 0)"/>
     <use xlink:href="#DejaVuSerif-65" transform="translate(296.533203 0)"/>
     <use xlink:href="#DejaVuSerif-20" transform="translate(355.712891 0)"/>
     <use xlink:href="#DejaVuSerif-4f" transform="translate(387.5 0)"/>
     <use xlink:href="#DejaVuSerif-70" transform="translate(469.482422 0)"/>
     <use xlink:href="#DejaVuSerif-75" transform="translate(533.496094 0)"/>
    </g>
   </g>
   <g id="text_19">
    <!-- B2 -->
    <g transform="translate(659.723727 217.721247) scale(0.07 -0.07)">
     <use xlink:href="#DejaVuSerif-42"/>
     <use xlink:href="#DejaVuSerif-32" transform="translate(73.486328 0)"/>
    </g>
    <!-- GPT-5.2 Co -->
    <g transform="translate(659.723727 225.559716) scale(0.07 -0.07)">
     <use xlink:href="#DejaVuSerif-47"/>
     <use xlink:href="#DejaVuSerif-50" transform="translate(79.882812 0)"/>
     <use xlink:href="#DejaVuSerif-54" transform="translate(147.167969 0)"/>
     <use xlink:href="#DejaVuSerif-2d" transform="translate(200.992188 0)"/>
     <use xlink:href="#DejaVuSerif-35" transform="translate(234.78125 0)"/>
     <use xlink:href="#DejaVuSerif-2e" transform="translate(298.404297 0)"/>
     <use xlink:href="#DejaVuSerif-32" transform="translate(330.191406 0)"/>
     <use xlink:href="#DejaVuSerif-20" transform="translate(393.814453 0)"/>
     <use xlink:href="#DejaVuSerif-43" transform="translate(425.601562 0)"/>
     <use xlink:href="#DejaVuSerif-6f" transform="translate(502.115234 0)"/>
    </g>
   </g>
   <g id="text_20">
    <!-- B2 -->
    <g transform="translate(659.723727 194.583293) scale(0.07 -0.07)">
     <use xlink:href="#DejaVuSerif-42"/>
     <use xlink:href="#DejaVuSerif-32" transform="translate(73.486328 0)"/>
    </g>
    <!-- Gemini 3 F -->
    <g transform="translate(659.723727 202.421761) scale(0.07 -0.07)">
     <use xlink:href="#DejaVuSerif-47"/>
     <use xlink:href="#DejaVuSerif-65" transform="translate(79.882812 0)"/>
     <use xlink:href="#DejaVuSerif-6d" transform="translate(139.0625 0)"/>
     <use xlink:href="#DejaVuSerif-69" transform="translate(233.886719 0)"/>
     <use xlink:href="#DejaVuSerif-6e" transform="translate(265.869141 0)"/>
     <use xlink:href="#DejaVuSerif-69" transform="translate(330.273438 0)"/>
     <use xlink:href="#DejaVuSerif-20" transform="translate(362.255859 0)"/>
     <use xlink:href="#DejaVuSerif-33" transform="translate(394.042969 0)"/>
     <use xlink:href="#DejaVuSerif-20" transform="translate(457.666016 0)"/>
     <use xlink:href="#DejaVuSerif-46" transform="translate(489.453125 0)"/>
    </g>
   </g>
   <g id="text_21">
    <!-- B3 -->
    <g transform="translate(659.723727 102.031474) scale(0.07 -0.07)">
     <use xlink:href="#DejaVuSerif-42"/>
     <use xlink:href="#DejaVuSerif-33" transform="translate(73.486328 0)"/>
    </g>
    <!-- Claude Opu -->
    <g transform="translate(659.723727 109.869943) scale(0.07 -0.07)">
     <use xlink:href="#DejaVuSerif-43"/>
     <use xlink:href="#DejaVuSerif-6c" transform="translate(76.513672 0)"/>
     <use xlink:href="#DejaVuSerif-61" transform="translate(108.496094 0)"/>
     <use xlink:href="#DejaVuSerif-75" transform="translate(168.115234 0)"/>
     <use xlink:href="#DejaVuSerif-64" transform="translate(232.519531 0)"/>
     <use xlink:href="#DejaVuSerif-65" transform="translate(296.533203 0)"/>
     <use xlink:href="#DejaVuSerif-20" transform="translate(355.712891 0)"/>
     <use xlink:href="#DejaVuSerif-4f" transform="translate(387.5 0)"/>
     <use xlink:href="#DejaVuSerif-70" transform="translate(469.482422 0)"/>
     <use xlink:href="#DejaVuSerif-75" transform="translate(533.496094 0)"/>
    </g>
   </g>
   <g id="text_22">
    <!-- B3 -->
    <g transform="translate(659.723727 425.962838) scale(0.07 -0.07)">
     <use xlink:href="#DejaVuSerif-42"/>
     <use xlink:href="#DejaVuSerif-33" transform="translate(73.486328 0)"/>
    </g>
    <!-- GPT-5.2 Co -->
    <g transform="translate(659.723727 433.801307) scale(0.07 -0.07)">
     <use xlink:href="#DejaVuSerif-47"/>
     <use xlink:href="#DejaVuSerif-50" transform="translate(79.882812 0)"/>
     <use xlink:href="#DejaVuSerif-54" transform="translate(147.167969 0)"/>
     <use xlink:href="#DejaVuSerif-2d" transform="translate(200.992188 0)"/>
     <use xlink:href="#DejaVuSerif-35" transform="translate(234.78125 0)"/>
     <use xlink:href="#DejaVuSerif-2e" transform="translate(298.404297 0)"/>
     <use xlink:href="#DejaVuSerif-32" transform="translate(330.191406 0)"/>
     <use xlink:href="#DejaVuSerif-20" transform="translate(393.814453 0)"/>
     <use xlink:href="#DejaVuSerif-43" transform="translate(425.601562 0)"/>
     <use xlink:href="#DejaVuSerif-6f" transform="translate(502.115234 0)"/>
    </g>
   </g>
   <g id="text_23">
    <!-- B3 -->
    <g transform="translate(659.723727 287.135111) scale(0.07 -0.07)">
     <use xlink:href="#DejaVuSerif-42"/>
     <use xlink:href="#DejaVuSerif-33" transform="translate(73.486328 0)"/>
    </g>
    <!-- Gemini 3 F -->
    <g transform="translate(659.723727 294.97358) scale(0.07 -0.07)">
     <use xlink:href="#DejaVuSerif-47"/>
     <use xlink:href="#DejaVuSerif-65" transform="translate(79.882812 0)"/>
     <use xlink:href="#DejaVuSerif-6d" transform="translate(139.0625 0)"/>
     <use xlink:href="#DejaVuSerif-69" transform="translate(233.886719 0)"/>
     <use xlink:href="#DejaVuSerif-6e" transform="translate(265.869141 0)"/>
     <use xlink:href="#DejaVuSerif-69" transform="translate(330.273438 0)"/>
     <use xlink:href="#DejaVuSerif-20" transform="translate(362.255859 0)"/>
     <use xlink:href="#DejaVuSerif-33" transform="translate(394.042969 0)"/>
     <use xlink:href="#DejaVuSerif-20" transform="translate(457.666016 0)"/>
     <use xlink:href="#DejaVuSerif-46" transform="translate(489.453125 0)"/>
    </g>
   </g>
   <g id="text_24">
    <!-- B4 -->
    <g transform="translate(659.723727 194.583293) scale(0.07 -0.07)">
     <use xlink:href="#DejaVuSerif-42"/>
     <use xlink:href="#DejaVuSerif-34" transform="translate(73.486328 0)"/>
    </g>
    <!-- Claude Opu -->
    <g transform="translate(659.723727 202.421761) scale(0.07 -0.07)">
     <use xlink:href="#DejaVuSerif-43"/>
     <use xlink:href="#DejaVuSerif-6c" transform="translate(76.513672 0)"/>
     <use xlink:href="#DejaVuSerif-61" transform="translate(108.496094 0)"/>
     <use xlink:href="#DejaVuSerif-75" transform="translate(168.115234 0)"/>
     <use xlink:href="#DejaVuSerif-64" transform="translate(232.519531 0)"/>
     <use xlink:href="#DejaVuSerif-65" transform="translate(296.533203 0)"/>
     <use xlink:href="#DejaVuSerif-20" transform="translate(355.712891 0)"/>
     <use xlink:href="#DejaVuSerif-4f" transform="translate(387.5 0)"/>
     <use xlink:href="#DejaVuSerif-70" transform="translate(469.482422 0)"/>
     <use xlink:href="#DejaVuSerif-75" transform="translate(533.496094 0)"/>
    </g>
   </g>
   <g id="text_25">
    <!-- B4 -->
    <g transform="translate(659.723727 310.273065) scale(0.07 -0.07)">
     <use xlink:href="#DejaVuSerif-42"/>
     <use xlink:href="#DejaVuSerif-34" transform="translate(73.486328 0)"/>
    </g>
    <!-- GPT-5.2 Co -->
    <g transform="translate(659.723727 318.111534) scale(0.07 -0.07)">
     <use xlink:href="#DejaVuSerif-47"/>
     <use xlink:href="#DejaVuSerif-50" transform="translate(79.882812 0)"/>
     <use xlink:href="#DejaVuSerif-54" transform="translate(147.167969 0)"/>
     <use xlink:href="#DejaVuSerif-2d" transform="translate(200.992188 0)"/>
     <use xlink:href="#DejaVuSerif-35" transform="translate(234.78125 0)"/>
     <use xlink:href="#DejaVuSerif-2e" transform="translate(298.404297 0)"/>
     <use xlink:href="#DejaVuSerif-32" transform="translate(330.191406 0)"/>
     <use xlink:href="#DejaVuSerif-20" transform="translate(393.814453 0)"/>
     <use xlink:href="#DejaVuSerif-43" transform="translate(425.601562 0)"/>
     <use xlink:href="#DejaVuSerif-6f" transform="translate(502.115234 0)"/>
    </g>
   </g>
   <g id="text_26">
    <!-- B4 -->
    <g transform="translate(659.723727 148.307384) scale(0.07 -0.07)">
     <use xlink:href="#DejaVuSerif-42"/>
     <use xlink:href="#DejaVuSerif-34" transform="translate(73.486328 0)"/>
    </g>
    <!-- Gemini 3 F -->
    <g transform="translate(659.723727 156.145852) scale(0.07 -0.07)">
     <use xlink:href="#DejaVuSerif-47"/>
     <use xlink:href="#DejaVuSerif-65" transform="translate(79.882812 0)"/>
     <use xlink:href="#DejaVuSerif-6d" transform="translate(139.0625 0)"/>
     <use xlink:href="#DejaVuSerif-69" transform="translate(233.886719 0)"/>
     <use xlink:href="#DejaVuSerif-6e" transform="translate(265.869141 0)"/>
     <use xlink:href="#DejaVuSerif-69" transform="translate(330.273438 0)"/>
     <use xlink:href="#DejaVuSerif-20" transform="translate(362.255859 0)"/>
     <use xlink:href="#DejaVuSerif-33" transform="translate(394.042969 0)"/>
     <use xlink:href="#DejaVuSerif-20" transform="translate(457.666016 0)"/>
     <use xlink:href="#DejaVuSerif-46" transform="translate(489.453125 0)"/>
    </g>
   </g>
   <g id="text_27">
    <!-- B5 -->
    <g transform="translate(659.723727 102.031474) scale(0.07 -0.07)">
     <use xlink:href="#DejaVuSerif-42"/>
     <use xlink:href="#DejaVuSerif-35" transform="translate(73.486328 0)"/>
    </g>
    <!-- Claude Opu -->
    <g transform="translate(659.723727 109.869943) scale(0.07 -0.07)">
     <use xlink:href="#DejaVuSerif-43"/>
     <use xlink:href="#DejaVuSerif-6c" transform="translate(76.513672 0)"/>
     <use xlink:href="#DejaVuSerif-61" transform="translate(108.496094 0)"/>
     <use xlink:href="#DejaVuSerif-75" transform="translate(168.115234 0)"/>
     <use xlink:href="#DejaVuSerif-64" transform="translate(232.519531 0)"/>
     <use xlink:href="#DejaVuSerif-65" transform="translate(296.533203 0)"/>
     <use xlink:href="#DejaVuSerif-20" transform="translate(355.712891 0)"/>
     <use xlink:href="#DejaVuSerif-4f" transform="translate(387.5 0)"/>
     <use xlink:href="#DejaVuSerif-70" transform="translate(469.482422 0)"/>
     <use xlink:href="#DejaVuSerif-75" transform="translate(533.496094 0)"/>
    </g>
   </g>
   <g id="text_28">
    <!-- B5 -->
    <g transform="translate(659.723727 240.859202) scale(0.07 -0.07)">
     <use xlink:href="#DejaVuSerif-42"/>
     <use xlink:href="#DejaVuSerif-35" transform="translate(73.486328 0)"/>
    </g>
    <!-- GPT-5.2 Co -->
    <g transform="translate(659.723727 248.69767) scale(0.07 -0.07)">
     <use xlink:href="#DejaVuSerif-47"/>
     <use xlink:href="#DejaVuSerif-50" transform="translate(79.882812 0)"/>
     <use xlink:href="#DejaVuSerif-54" transform="translate(147.167969 0)"/>
     <use xlink:href="#DejaVuSerif-2d" transform="translate(200.992188 0)"/>
     <use xlink:href="#DejaVuSerif-35" transform="translate(234.78125 0)"/>
     <use xlink:href="#DejaVuSerif-2e" transform="translate(298.404297 0)"/>
     <use xlink:href="#DejaVuSerif-32" transform="translate(330.191406 0)"/>
     <use xlink:href="#DejaVuSerif-20" transform="translate(393.814453 0)"/>
     <use xlink:href="#DejaVuSerif-43" transform="translate(425.601562 0)"/>
     <use xlink:href="#DejaVuSerif-6f" transform="translate(502.115234 0)"/>
    </g>
   </g>
   <g id="text_29">
    <!-- B5 -->
    <g transform="translate(659.723727 171.445338) scale(0.07 -0.07)">
     <use xlink:href="#DejaVuSerif-42"/>
     <use xlink:href="#DejaVuSerif-35" transform="translate(73.486328 0)"/>
    </g>
    <!-- Gemini 3 F -->
    <g transform="translate(659.723727 179.283807) scale(0.07 -0.07)">
     <use xlink:href="#DejaVuSerif-47"/>
     <use xlink:href="#DejaVuSerif-65" transform="translate(79.882812 0)"/>
     <use xlink:href="#DejaVuSerif-6d" transform="translate(139.0625 0)"/>
     <use xlink:href="#DejaVuSerif-69" transform="translate(233.886719 0)"/>
     <use xlink:href="#DejaVuSerif-6e" transform="translate(265.869141 0)"/>
     <use xlink:href="#DejaVuSerif-69" transform="translate(330.273438 0)"/>
     <use xlink:href="#DejaVuSerif-20" transform="translate(362.255859 0)"/>
     <use xlink:href="#DejaVuSerif-33" transform="translate(394.042969 0)"/>
     <use xlink:href="#DejaVuSerif-20" transform="translate(457.666016 0)"/>
     <use xlink:href="#DejaVuSerif-46" transform="translate(489.453125 0)"/>
    </g>
   </g>
   <g id="text_30">
    <!-- Связь детерминизма и качества генерации -->
    <g transform="translate(208.099631 16.318125) scale(0.12 -0.12)">
     <defs>
      <path id="DejaVuSerif-Bold-421" d="M 4769 1331 
Q 4584 609 4106 259 
Q 3628 -91 2822 -91 
Q 1641 -91 955 561 
Q 269 1213 269 2328 
Q 269 3447 955 4098 
Q 1641 4750 2822 4750 
Q 3238 4750 3688 4650 
Q 4138 4550 4641 4347 
L 4641 3200 
L 4244 3200 
Q 4122 3788 3800 4080 
Q 3478 4372 2950 4372 
Q 2269 4372 1937 3870 
Q 1606 3369 1606 2328 
Q 1606 1288 1937 788 
Q 2269 288 2956 288 
Q 3422 288 3717 547 
Q 4013 806 4147 1331 
L 4769 1331 
z
" transform="scale(0.015625)"/>
      <path id="DejaVuSerif-Bold-432" d="M 1797 378 
L 2078 378 
Q 2447 378 2748 517 
Q 3050 656 3050 963 
Q 3050 1253 2775 1406 
Q 2500 1559 2078 1559 
L 1797 1559 
L 1797 378 
z
M 1797 2044 
L 2044 2044 
Q 2391 2044 2667 2159 
Q 2944 2275 2944 2500 
Q 2944 2713 2680 2828 
Q 2416 2944 2044 2944 
L 1797 2944 
L 1797 2044 
z
M 219 0 
L 219 378 
L 691 378 
L 691 2944 
L 219 2944 
L 219 3322 
L 2463 3322 
Q 3944 3322 3944 2500 
Q 3944 2203 3673 2028 
Q 3403 1853 2944 1813 
Q 3513 1769 3852 1547 
Q 4191 1325 4191 963 
Q 4191 469 3720 234 
Q 3250 0 2306 0 
L 219 0 
z
" transform="scale(0.015625)"/>
      <path id="DejaVuSerif-Bold-44f" d="M 1773 2787 
Q 1581 2631 1581 2422 
Q 1581 2213 1767 2039 
Q 1953 1866 2272 1866 
L 2931 1866 
L 2931 2944 
L 2272 2944 
Q 1966 2944 1773 2787 
z
M 156 0 
L 156 378 
L 659 378 
L 1416 1613 
Q 1119 1709 831 1882 
Q 544 2056 544 2453 
Q 544 2850 947 3086 
Q 1350 3322 2000 3322 
L 4509 3322 
L 4509 2944 
L 4038 2944 
L 4038 378 
L 4509 378 
L 4509 0 
L 2522 0 
L 2522 378 
L 2931 378 
L 2931 1488 
L 2484 1488 
L 1572 0 
L 156 0 
z
" transform="scale(0.015625)"/>
      <path id="DejaVuSerif-Bold-437" d="M 219 809 
L 738 809 
Q 803 691 1017 477 
Q 1231 263 1800 263 
Q 2197 263 2450 466 
Q 2691 619 2691 872 
Q 2691 1563 1494 1563 
L 1303 1563 
L 1303 1991 
L 1453 1991 
Q 2181 1991 2394 2144 
Q 2547 2253 2576 2342 
Q 2606 2431 2606 2525 
Q 2606 3059 1675 3059 
Q 1216 3059 1011 2914 
Q 806 2769 765 2714 
Q 725 2659 709 2547 
L 359 2547 
L 359 3213 
Q 1569 3413 1916 3413 
Q 3609 3413 3609 2538 
Q 3609 2234 3356 2037 
Q 3103 1841 2747 1800 
Q 3269 1750 3548 1511 
Q 3828 1272 3828 884 
Q 3828 400 3325 154 
Q 2822 -91 1984 -91 
Q 688 -91 219 809 
z
" transform="scale(0.015625)"/>
      <path id="DejaVuSerif-Bold-44c" d="M 266 0 
L 266 378 
L 738 378 
L 738 2944 
L 266 2944 
L 266 3322 
L 2316 3322 
L 2316 2944 
L 1844 2944 
L 1844 1919 
L 2334 1919 
Q 3213 1919 3650 1686 
Q 4088 1453 4088 959 
Q 4088 466 3650 233 
Q 3213 0 2334 0 
L 266 0 
z
M 1844 378 
L 2256 378 
Q 2500 378 2723 528 
Q 2947 678 2947 959 
Q 2947 1241 2723 1391 
Q 2500 1541 2256 1541 
L 1844 1541 
L 1844 378 
z
" transform="scale(0.015625)"/>
      <path id="DejaVuSerif-Bold-20" transform="scale(0.015625)"/>
      <path id="DejaVuSerif-Bold-434" d="M 219 -884 
L 219 378 
L 425 378 
Q 759 378 892 939 
Q 1025 1500 1025 2403 
L 1025 2944 
L 553 2944 
L 553 3322 
L 4003 3322 
L 4003 2944 
L 3531 2944 
L 3531 378 
L 4047 378 
L 4047 -884 
L 3675 -884 
L 3625 -444 
Q 3575 0 3263 0 
L 1003 0 
Q 691 0 641 -444 
L 591 -884 
L 219 -884 
z
M 1188 422 
Q 1188 378 1291 378 
L 2425 378 
L 2425 2944 
L 1431 2944 
L 1431 2400 
Q 1431 1519 1309 973 
Q 1188 428 1188 422 
z
" transform="scale(0.015625)"/>
      <path id="DejaVuSerif-Bold-435" d="M 2566 1875 
Q 2566 2531 2444 2795 
Q 2322 3059 2028 3059 
Q 1744 3059 1620 2800 
Q 1497 2541 1497 1931 
L 1497 1875 
L 2566 1875 
z
M 3781 1503 
L 1497 1503 
L 1497 1478 
Q 1497 834 1690 548 
Q 1884 263 2316 263 
Q 2675 263 2897 453 
Q 3119 644 3181 1006 
L 3700 1006 
Q 3566 441 3166 175 
Q 2766 -91 2047 -91 
Q 1184 -91 723 364 
Q 263 819 263 1663 
Q 263 2488 734 2950 
Q 1206 3413 2047 3413 
Q 2872 3413 3312 2927 
Q 3753 2441 3781 1503 
z
" transform="scale(0.015625)"/>
      <path id="DejaVuSerif-Bold-442" d="M 206 2419 
L 206 3322 
L 3669 3322 
L 3669 2419 
L 3291 2419 
L 3291 2944 
L 2491 2944 
L 2491 378 
L 2897 378 
L 2897 0 
L 913 0 
L 913 378 
L 1384 378 
L 1384 2944 
L 584 2944 
L 584 2419 
L 206 2419 
z
" transform="scale(0.015625)"/>
      <path id="DejaVuSerif-Bold-440" d="M 1728 1825 
L 1728 1497 
Q 1728 916 1876 656 
Q 2025 397 2356 397 
Q 2697 397 2836 672 
Q 2975 947 2975 1663 
Q 2975 2378 2836 2651 
Q 2697 2925 2356 2925 
Q 2025 2925 1876 2665 
Q 1728 2406 1728 1825 
z
M 622 2944 
L 147 2944 
L 147 3322 
L 1728 3322 
L 1728 2900 
Q 1869 3159 2106 3286 
Q 2344 3413 2694 3413 
Q 3403 3413 3811 2945 
Q 4219 2478 4219 1663 
Q 4219 847 3811 378 
Q 3403 -91 2694 -91 
Q 2344 -91 2106 36 
Q 1869 163 1728 422 
L 1728 -953 
L 2241 -953 
L 2241 -1331 
L 147 -1331 
L 147 -953 
L 622 -953 
L 622 2944 
z
" transform="scale(0.015625)"/>
      <path id="DejaVuSerif-Bold-43c" d="M 219 0 
L 219 378 
L 691 378 
L 691 2944 
L 219 2944 
L 219 3322 
L 1991 3322 
L 2788 1334 
L 3581 3322 
L 5341 3322 
L 5341 2944 
L 4869 2944 
L 4869 366 
L 5341 366 
L 5341 0 
L 3291 0 
L 3291 366 
L 3763 366 
L 3763 2709 
L 2875 491 
L 1988 491 
L 1097 2709 
L 1097 378 
L 1569 378 
L 1569 0 
L 219 0 
z
" transform="scale(0.015625)"/>
      <path id="DejaVuSerif-Bold-438" d="M 219 0 
L 219 378 
L 691 378 
L 691 2944 
L 219 2944 
L 219 3322 
L 2203 3322 
L 2203 2944 
L 1797 2944 
L 1797 1438 
L 2950 2572 
L 2950 2944 
L 2541 2944 
L 2541 3322 
L 4531 3322 
L 4531 2944 
L 4056 2944 
L 4056 378 
L 4531 378 
L 4531 0 
L 2541 0 
L 2541 378 
L 2950 378 
L 2950 1866 
L 1797 731 
L 1797 378 
L 2203 378 
L 2203 0 
L 219 0 
z
" transform="scale(0.015625)"/>
      <path id="DejaVuSerif-Bold-43d" d="M 219 0 
L 219 378 
L 691 378 
L 691 2944 
L 219 2944 
L 219 3322 
L 2203 3322 
L 2203 2944 
L 1797 2944 
L 1797 1947 
L 2888 1947 
L 2888 2944 
L 2478 2944 
L 2478 3322 
L 4469 3322 
L 4469 2944 
L 3994 2944 
L 3994 378 
L 4469 378 
L 4469 0 
L 2478 0 
L 2478 378 
L 2888 378 
L 2888 1569 
L 1797 1569 
L 1797 378 
L 2203 378 
L 2203 0 
L 219 0 
z
" transform="scale(0.015625)"/>
      <path id="DejaVuSerif-Bold-430" d="M 3525 2041 
L 3525 378 
L 4000 378 
L 4000 0 
L 2419 0 
L 2419 422 
Q 2200 159 1931 34 
Q 1663 -91 1319 -91 
Q 809 -91 536 182 
Q 263 456 263 966 
Q 263 1525 655 1803 
Q 1047 2081 1838 2081 
L 2419 2081 
L 2419 2278 
Q 2419 2681 2228 2873 
Q 2038 3066 1638 3066 
Q 1306 3066 1126 2930 
Q 947 2794 872 2484 
L 519 2484 
L 519 3200 
Q 816 3306 1134 3359 
Q 1453 3413 1806 3413 
Q 2697 3413 3111 3081 
Q 3525 2750 3525 2041 
z
M 2419 1044 
L 2419 1709 
L 2003 1709 
Q 1694 1709 1528 1540 
Q 1363 1372 1363 1056 
Q 1363 741 1483 584 
Q 1603 428 1850 428 
Q 2106 428 2262 597 
Q 2419 766 2419 1044 
z
" transform="scale(0.015625)"/>
      <path id="DejaVuSerif-Bold-43a" d="M 219 0 
L 219 378 
L 691 378 
L 691 2947 
L 219 2947 
L 219 3322 
L 2203 3322 
L 2203 2947 
L 1797 2947 
L 1797 1741 
L 3138 2944 
L 2741 2944 
L 2741 3322 
L 4256 3322 
L 4256 2944 
L 3641 2944 
L 2784 2175 
L 4184 378 
L 4544 378 
L 4544 0 
L 2638 0 
L 2638 378 
L 3028 378 
L 2106 1563 
L 1797 1288 
L 1797 378 
L 2203 378 
L 2203 0 
L 219 0 
z
" transform="scale(0.015625)"/>
      <path id="DejaVuSerif-Bold-447" d="M 219 2944 
L 219 3322 
L 2203 3322 
L 2203 2944 
L 1797 2944 
L 1797 2000 
Q 1797 1788 1889 1709 
Q 1981 1631 2203 1631 
L 2888 1631 
L 2888 2944 
L 2478 2944 
L 2478 3322 
L 4466 3322 
L 4466 2944 
L 3994 2944 
L 3994 378 
L 4466 378 
L 4466 0 
L 2447 0 
L 2447 378 
L 2888 378 
L 2888 1253 
L 2084 1253 
Q 1463 1253 1077 1420 
Q 691 1588 691 2050 
L 691 2944 
L 219 2944 
z
" transform="scale(0.015625)"/>
      <path id="DejaVuSerif-Bold-441" d="M 3609 1038 
Q 3491 469 3123 189 
Q 2756 -91 2125 -91 
Q 1238 -91 750 368 
Q 263 828 263 1663 
Q 263 2488 744 2950 
Q 1225 3413 2081 3413 
Q 2428 3413 2781 3347 
Q 3134 3281 3500 3150 
L 3500 2228 
L 3150 2228 
Q 3100 2650 2903 2854 
Q 2706 3059 2350 3059 
Q 1888 3059 1692 2746 
Q 1497 2434 1497 1663 
Q 1497 909 1687 586 
Q 1878 263 2309 263 
Q 2644 263 2845 463 
Q 3047 663 3091 1038 
L 3609 1038 
z
" transform="scale(0.015625)"/>
      <path id="DejaVuSerif-Bold-433" d="M 219 0 
L 219 378 
L 691 378 
L 691 2944 
L 219 2944 
L 219 3322 
L 3513 3322 
L 3513 2419 
L 3134 2419 
L 3134 2944 
L 1797 2944 
L 1797 378 
L 2269 378 
L 2269 0 
L 219 0 
z
" transform="scale(0.015625)"/>
      <path id="DejaVuSerif-Bold-446" d="M 219 0 
L 219 378 
L 691 378 
L 691 2944 
L 219 2944 
L 219 3322 
L 2203 3322 
L 2203 2944 
L 1797 2944 
L 1797 378 
L 2888 378 
L 2888 2944 
L 2478 2944 
L 2478 3322 
L 4466 3322 
L 4466 2944 
L 3994 2944 
L 3994 378 
L 4509 378 
L 4509 -884 
L 4138 -884 
L 4088 -444 
Q 4038 0 3725 0 
L 219 0 
z
" transform="scale(0.015625)"/>
     </defs>
     <use xlink:href="#DejaVuSerif-Bold-421"/>
     <use xlink:href="#DejaVuSerif-Bold-432" transform="translate(79.589844 0)"/>
     <use xlink:href="#DejaVuSerif-Bold-44f" transform="translate(149.072266 0)"/>
     <use xlink:href="#DejaVuSerif-Bold-437" transform="translate(222.949219 0)"/>
     <use xlink:href="#DejaVuSerif-Bold-44c" transform="translate(286.767578 0)"/>
     <use xlink:href="#DejaVuSerif-Bold-20" transform="translate(354.638672 0)"/>
     <use xlink:href="#DejaVuSerif-Bold-434" transform="translate(389.453125 0)"/>
     <use xlink:href="#DejaVuSerif-Bold-435" transform="translate(456.103516 0)"/>
     <use xlink:href="#DejaVuSerif-Bold-442" transform="translate(519.726562 0)"/>
     <use xlink:href="#DejaVuSerif-Bold-435" transform="translate(581.689453 0)"/>
     <use xlink:href="#DejaVuSerif-Bold-440" transform="translate(645.3125 0)"/>
     <use xlink:href="#DejaVuSerif-Bold-43c" transform="translate(715.234375 0)"/>
     <use xlink:href="#DejaVuSerif-Bold-438" transform="translate(802.099609 0)"/>
     <use xlink:href="#DejaVuSerif-Bold-43d" transform="translate(876.269531 0)"/>
     <use xlink:href="#DejaVuSerif-Bold-438" transform="translate(949.462891 0)"/>
     <use xlink:href="#DejaVuSerif-Bold-437" transform="translate(1023.632812 0)"/>
     <use xlink:href="#DejaVuSerif-Bold-43c" transform="translate(1087.451172 0)"/>
     <use xlink:href="#DejaVuSerif-Bold-430" transform="translate(1174.316406 0)"/>
     <use xlink:href="#DejaVuSerif-Bold-20" transform="translate(1239.111328 0)"/>
     <use xlink:href="#DejaVuSerif-Bold-438" transform="translate(1273.925781 0)"/>
     <use xlink:href="#DejaVuSerif-Bold-20" transform="translate(1348.095703 0)"/>
     <use xlink:href="#DejaVuSerif-Bold-43a" transform="translate(1382.910156 0)"/>
     <use xlink:href="#DejaVuSerif-Bold-430" transform="translate(1455.126953 0)"/>
     <use xlink:href="#DejaVuSerif-Bold-447" transform="translate(1519.921875 0)"/>
     <use xlink:href="#DejaVuSerif-Bold-435" transform="translate(1593.115234 0)"/>
     <use xlink:href="#DejaVuSerif-Bold-441" transform="translate(1656.738281 0)"/>
     <use xlink:href="#DejaVuSerif-Bold-442" transform="translate(1717.626953 0)"/>
     <use xlink:href="#DejaVuSerif-Bold-432" transform="translate(1779.589844 0)"/>
     <use xlink:href="#DejaVuSerif-Bold-430" transform="translate(1849.072266 0)"/>
     <use xlink:href="#DejaVuSerif-Bold-20" transform="translate(1913.867188 0)"/>
     <use xlink:href="#DejaVuSerif-Bold-433" transform="translate(1948.681641 0)"/>
     <use xlink:href="#DejaVuSerif-Bold-435" transform="translate(2009.960938 0)"/>
     <use xlink:href="#DejaVuSerif-Bold-43d" transform="translate(2073.583984 0)"/>
     <use xlink:href="#DejaVuSerif-Bold-435" transform="translate(2146.777344 0)"/>
     <use xlink:href="#DejaVuSerif-Bold-440" transform="translate(2210.400391 0)"/>
     <use xlink:href="#DejaVuSerif-Bold-430" transform="translate(2280.322266 0)"/>
     <use xlink:href="#DejaVuSerif-Bold-446" transform="translate(2345.117188 0)"/>
     <use xlink:href="#DejaVuSerif-Bold-438" transform="translate(2418.994141 0)"/>
     <use xlink:href="#DejaVuSerif-Bold-438" transform="translate(2493.164062 0)"/>
    </g>
   </g>
  </g>
 </g>
 <defs>
  <clipPath id="p42f2216692">
   <rect x="40.298438" y="22.318125" width="643.683636" height="509.035"/>
  </clipPath>
 </defs>
</svg>
