<?xml version="1.0" encoding="utf-8" standalone="no"?>
<!DOCTYPE svg PUBLIC "-//W3C//DTD SVG 1.1//EN"
  "http://www.w3.org/Graphics/SVG/1.1/DTD/svg11.dtd">
<svg xmlns:xlink="http://www.w3.org/1999/xlink" width="712.878437pt" height="425.143529pt" viewBox="0 0 712.878437 425.143529" xmlns="http://www.w3.org/2000/svg" version="1.1">
 <metadata>
  <rdf:RDF xmlns:dc="http://purl.org/dc/elements/1.1/" xmlns:cc="http://creativecommons.org/ns#" xmlns:rdf="http://www.w3.org/1999/02/22-rdf-syntax-ns#">
   <cc:Work>
    <dc:type rdf:resource="http://purl.org/dc/dcmitype/StillImage"/>
    <dc:date>2026-03-02T12:04:43.405842</dc:date>
    <dc:format>image/svg+xml</dc:format>
    <dc:creator>
     <cc:Agent>
      <dc:title>Matplotlib v3.10.8, https://matplotlib.org/</dc:title>
     </cc:Agent>
    </dc:creator>
   </cc:Work>
  </rdf:RDF>
 </metadata>
 <defs>
  <style type="text/css">*{stroke-linejoin: round; stroke-linecap: butt}</style>
 </defs>
 <g id="figure_1">
  <g id="patch_1">
   <path d="M -0 425.143529 
L 712.878437 425.143529 
L 712.878437 0 
L -0 0 
z
" style="fill: #ffffff"/>
  </g>
  <g id="axes_1">
   <g id="patch_2">
    <path d="M 40.298438 382.962202 
L 705.678438 382.962202 
L 705.678438 22.516875 
L 40.298438 22.516875 
z
" style="fill: #ffffff"/>
   </g>
   <g id="matplotlib.axis_1">
    <g id="xtick_1">
     <g id="line2d_1">
      <defs>
       <path id="m14b11407d1" d="M 0 0 
L 0 3.5 
" style="stroke: #000000; stroke-width: 0.8"/>
      </defs>
      <g>
       <use xlink:href="#m14b11407d1" x="151.195104" y="382.962202" style="stroke: #000000; stroke-width: 0.8"/>
      </g>
     </g>
     <g id="text_1">
      <!-- Claude Opus 4.5 -->
      <g transform="translate(77.6826 416.135588) rotate(-15) scale(0.09 -0.09)">
       <defs>
        <path id="DejaVuSerif-43" d="M 4513 1234 
Q 4306 581 3820 245 
Q 3334 -91 2591 -91 
Q 2134 -91 1743 65 
Q 1353 222 1050 525 
Q 700 875 529 1320 
Q 359 1766 359 2328 
Q 359 3416 987 4083 
Q 1616 4750 2644 4750 
Q 3025 4750 3456 4650 
Q 3888 4550 4384 4347 
L 4384 3272 
L 4031 3272 
Q 3916 3859 3567 4137 
Q 3219 4416 2591 4416 
Q 1844 4416 1459 3886 
Q 1075 3356 1075 2328 
Q 1075 1303 1459 773 
Q 1844 244 2591 244 
Q 3113 244 3450 492 
Q 3788 741 3938 1234 
L 4513 1234 
z
" transform="scale(0.015625)"/>
        <path id="DejaVuSerif-6c" d="M 1313 331 
L 1856 331 
L 1856 0 
L 184 0 
L 184 331 
L 738 331 
L 738 4531 
L 184 4531 
L 184 4863 
L 1313 4863 
L 1313 331 
z
" transform="scale(0.015625)"/>
        <path id="DejaVuSerif-61" d="M 2547 1044 
L 2547 1747 
L 1806 1747 
Q 1378 1747 1168 1562 
Q 959 1378 959 997 
Q 959 650 1171 447 
Q 1384 244 1747 244 
Q 2106 244 2326 466 
Q 2547 688 2547 1044 
z
M 3122 2075 
L 3122 331 
L 3634 331 
L 3634 0 
L 2547 0 
L 2547 359 
Q 2356 128 2106 18 
Q 1856 -91 1522 -91 
Q 969 -91 644 203 
Q 319 497 319 997 
Q 319 1513 691 1797 
Q 1063 2081 1741 2081 
L 2547 2081 
L 2547 2309 
Q 2547 2688 2317 2895 
Q 2088 3103 1672 3103 
Q 1328 3103 1125 2947 
Q 922 2791 872 2484 
L 575 2484 
L 575 3156 
Q 875 3284 1158 3348 
Q 1441 3413 1709 3413 
Q 2400 3413 2761 3070 
Q 3122 2728 3122 2075 
z
" transform="scale(0.015625)"/>
        <path id="DejaVuSerif-75" d="M 2266 3322 
L 3341 3322 
L 3341 331 
L 3884 331 
L 3884 0 
L 2766 0 
L 2766 588 
Q 2606 256 2353 82 
Q 2100 -91 1766 -91 
Q 1213 -91 952 223 
Q 691 538 691 1209 
L 691 2988 
L 172 2988 
L 172 3322 
L 1269 3322 
L 1269 1388 
Q 1269 781 1417 556 
Q 1566 331 1947 331 
Q 2347 331 2556 625 
Q 2766 919 2766 1478 
L 2766 2988 
L 2266 2988 
L 2266 3322 
z
" transform="scale(0.015625)"/>
        <path id="DejaVuSerif-64" d="M 3359 331 
L 3909 331 
L 3909 0 
L 2784 0 
L 2784 519 
Q 2616 206 2355 57 
Q 2094 -91 1709 -91 
Q 1097 -91 708 395 
Q 319 881 319 1663 
Q 319 2444 706 2928 
Q 1094 3413 1709 3413 
Q 2094 3413 2355 3264 
Q 2616 3116 2784 2803 
L 2784 4531 
L 2241 4531 
L 2241 4863 
L 3359 4863 
L 3359 331 
z
M 2784 1497 
L 2784 1825 
Q 2784 2422 2554 2737 
Q 2325 3053 1888 3053 
Q 1444 3053 1217 2703 
Q 991 2353 991 1663 
Q 991 975 1217 622 
Q 1444 269 1888 269 
Q 2325 269 2554 583 
Q 2784 897 2784 1497 
z
" transform="scale(0.015625)"/>
        <path id="DejaVuSerif-65" d="M 3469 1600 
L 991 1600 
L 991 1575 
Q 991 903 1244 561 
Q 1497 219 1991 219 
Q 2369 219 2611 417 
Q 2853 616 2950 1006 
L 3413 1006 
Q 3275 459 2904 184 
Q 2534 -91 1931 -91 
Q 1203 -91 761 389 
Q 319 869 319 1663 
Q 319 2450 753 2931 
Q 1188 3413 1894 3413 
Q 2647 3413 3050 2948 
Q 3453 2484 3469 1600 
z
M 2791 1931 
Q 2772 2513 2545 2808 
Q 2319 3103 1894 3103 
Q 1497 3103 1269 2806 
Q 1041 2509 991 1931 
L 2791 1931 
z
" transform="scale(0.015625)"/>
        <path id="DejaVuSerif-20" transform="scale(0.015625)"/>
        <path id="DejaVuSerif-4f" d="M 2625 244 
Q 3391 244 3781 770 
Q 4172 1297 4172 2328 
Q 4172 3363 3781 3889 
Q 3391 4416 2625 4416 
Q 1856 4416 1465 3889 
Q 1075 3363 1075 2328 
Q 1075 1297 1465 770 
Q 1856 244 2625 244 
z
M 2625 -91 
Q 2150 -91 1751 65 
Q 1353 222 1050 525 
Q 700 875 529 1319 
Q 359 1763 359 2328 
Q 359 2894 529 3339 
Q 700 3784 1050 4134 
Q 1356 4441 1750 4595 
Q 2144 4750 2625 4750 
Q 3641 4750 4266 4084 
Q 4891 3419 4891 2328 
Q 4891 1769 4719 1320 
Q 4547 872 4197 525 
Q 3891 219 3497 64 
Q 3103 -91 2625 -91 
z
" transform="scale(0.015625)"/>
        <path id="DejaVuSerif-70" d="M 1313 1825 
L 1313 1497 
Q 1313 897 1542 583 
Q 1772 269 2209 269 
Q 2650 269 2876 622 
Q 3103 975 3103 1663 
Q 3103 2353 2876 2703 
Q 2650 3053 2209 3053 
Q 1772 3053 1542 2737 
Q 1313 2422 1313 1825 
z
M 738 2988 
L 184 2988 
L 184 3322 
L 1313 3322 
L 1313 2803 
Q 1481 3116 1742 3264 
Q 2003 3413 2388 3413 
Q 3000 3413 3387 2928 
Q 3775 2444 3775 1663 
Q 3775 881 3387 395 
Q 3000 -91 2388 -91 
Q 2003 -91 1742 57 
Q 1481 206 1313 519 
L 1313 -997 
L 1856 -997 
L 1856 -1331 
L 184 -1331 
L 184 -997 
L 738 -997 
L 738 2988 
z
" transform="scale(0.015625)"/>
        <path id="DejaVuSerif-73" d="M 359 184 
L 359 959 
L 691 959 
Q 703 588 923 403 
Q 1144 219 1575 219 
Q 1963 219 2166 364 
Q 2369 509 2369 788 
Q 2369 1006 2220 1140 
Q 2072 1275 1594 1428 
L 1178 1569 
Q 750 1706 558 1912 
Q 366 2119 366 2438 
Q 366 2894 700 3153 
Q 1034 3413 1625 3413 
Q 1888 3413 2178 3344 
Q 2469 3275 2778 3144 
L 2778 2419 
L 2447 2419 
Q 2434 2741 2221 2922 
Q 2009 3103 1644 3103 
Q 1281 3103 1095 2975 
Q 909 2847 909 2591 
Q 909 2381 1050 2254 
Q 1191 2128 1613 1997 
L 2069 1856 
Q 2541 1709 2748 1489 
Q 2956 1269 2956 922 
Q 2956 450 2595 179 
Q 2234 -91 1600 -91 
Q 1278 -91 972 -22 
Q 666 47 359 184 
z
" transform="scale(0.015625)"/>
        <path id="DejaVuSerif-34" d="M 2234 1581 
L 2234 4063 
L 641 1581 
L 2234 1581 
z
M 3609 0 
L 1484 0 
L 1484 331 
L 2234 331 
L 2234 1247 
L 197 1247 
L 197 1588 
L 2241 4750 
L 2859 4750 
L 2859 1581 
L 3750 1581 
L 3750 1247 
L 2859 1247 
L 2859 331 
L 3609 331 
L 3609 0 
z
" transform="scale(0.015625)"/>
        <path id="DejaVuSerif-2e" d="M 603 325 
Q 603 500 722 622 
Q 841 744 1019 744 
Q 1191 744 1312 622 
Q 1434 500 1434 325 
Q 1434 153 1312 31 
Q 1191 -91 1019 -91 
Q 841 -91 722 29 
Q 603 150 603 325 
z
" transform="scale(0.015625)"/>
        <path id="DejaVuSerif-35" d="M 3219 4666 
L 3219 4153 
L 1081 4153 
L 1081 2816 
Q 1244 2928 1461 2984 
Q 1678 3041 1947 3041 
Q 2703 3041 3140 2622 
Q 3578 2203 3578 1478 
Q 3578 738 3136 323 
Q 2694 -91 1894 -91 
Q 1572 -91 1234 -12 
Q 897 66 544 225 
L 544 1131 
L 897 1131 
Q 925 688 1179 453 
Q 1434 219 1894 219 
Q 2388 219 2653 544 
Q 2919 869 2919 1478 
Q 2919 2084 2655 2407 
Q 2391 2731 1894 2731 
Q 1613 2731 1398 2631 
Q 1184 2531 1019 2322 
L 750 2322 
L 750 4666 
L 3219 4666 
z
" transform="scale(0.015625)"/>
       </defs>
       <use xlink:href="#DejaVuSerif-43"/>
       <use xlink:href="#DejaVuSerif-6c" transform="translate(76.513672 0)"/>
       <use xlink:href="#DejaVuSerif-61" transform="translate(108.496094 0)"/>
       <use xlink:href="#DejaVuSerif-75" transform="translate(168.115234 0)"/>
       <use xlink:href="#DejaVuSerif-64" transform="translate(232.519531 0)"/>
       <use xlink:href="#DejaVuSerif-65" transform="translate(296.533203 0)"/>
       <use xlink:href="#DejaVuSerif-20" transform="translate(355.712891 0)"/>
       <use xlink:href="#DejaVuSerif-4f" transform="translate(387.5 0)"/>
       <use xlink:href="#DejaVuSerif-70" transform="translate(469.482422 0)"/>
       <use xlink:href="#DejaVuSerif-75" transform="translate(533.496094 0)"/>
       <use xlink:href="#DejaVuSerif-73" transform="translate(597.900391 0)"/>
       <use xlink:href="#DejaVuSerif-20" transform="translate(649.21875 0)"/>
       <use xlink:href="#DejaVuSerif-34" transform="translate(681.005859 0)"/>
       <use xlink:href="#DejaVuSerif-2e" transform="translate(744.628906 0)"/>
       <use xlink:href="#DejaVuSerif-35" transform="translate(776.416016 0)"/>
      </g>
     </g>
    </g>
    <g id="xtick_2">
     <g id="line2d_2">
      <g>
       <use xlink:href="#m14b11407d1" x="372.988438" y="382.962202" style="stroke: #000000; stroke-width: 0.8"/>
      </g>
     </g>
     <g id="text_2">
      <!-- GPT-5.2 Codex -->
      <g transform="translate(308.006266 413.849892) rotate(-15) scale(0.09 -0.09)">
       <defs>
        <path id="DejaVuSerif-47" d="M 4097 3272 
Q 3988 3856 3641 4136 
Q 3294 4416 2675 4416 
Q 1869 4416 1472 3897 
Q 1075 3378 1075 2328 
Q 1075 1300 1484 772 
Q 1894 244 2688 244 
Q 3041 244 3362 331 
Q 3684 419 3975 594 
L 3975 1797 
L 3097 1797 
L 3097 2131 
L 4609 2131 
L 4609 391 
Q 4194 150 3714 29 
Q 3234 -91 2688 -91 
Q 1631 -91 995 570 
Q 359 1231 359 2328 
Q 359 3434 996 4092 
Q 1634 4750 2713 4750 
Q 3113 4750 3539 4658 
Q 3966 4566 4447 4378 
L 4447 3272 
L 4097 3272 
z
" transform="scale(0.015625)"/>
        <path id="DejaVuSerif-50" d="M 1581 2375 
L 2406 2375 
Q 2872 2375 3115 2626 
Q 3359 2878 3359 3353 
Q 3359 3831 3115 4081 
Q 2872 4331 2406 4331 
L 1581 4331 
L 1581 2375 
z
M 353 0 
L 353 331 
L 947 331 
L 947 4331 
L 353 4331 
L 353 4666 
L 2559 4666 
Q 3259 4666 3668 4311 
Q 4078 3956 4078 3353 
Q 4078 2753 3668 2397 
Q 3259 2041 2559 2041 
L 1581 2041 
L 1581 331 
L 2303 331 
L 2303 0 
L 353 0 
z
" transform="scale(0.015625)"/>
        <path id="DejaVuSerif-54" d="M 1222 0 
L 1222 331 
L 1819 331 
L 1819 4294 
L 447 4294 
L 447 3566 
L 63 3566 
L 63 4666 
L 4206 4666 
L 4206 3566 
L 3822 3566 
L 3822 4294 
L 2450 4294 
L 2450 331 
L 3047 331 
L 3047 0 
L 1222 0 
z
" transform="scale(0.015625)"/>
        <path id="DejaVuSerif-2d" d="M 281 1959 
L 1881 1959 
L 1881 1472 
L 281 1472 
L 281 1959 
z
" transform="scale(0.015625)"/>
        <path id="DejaVuSerif-32" d="M 819 3553 
L 469 3553 
L 469 4384 
Q 803 4563 1142 4656 
Q 1481 4750 1806 4750 
Q 2534 4750 2956 4397 
Q 3378 4044 3378 3438 
Q 3378 2753 2422 1800 
Q 2347 1728 2309 1691 
L 1131 513 
L 3078 513 
L 3078 1088 
L 3444 1088 
L 3444 0 
L 434 0 
L 434 341 
L 1850 1753 
Q 2319 2222 2519 2614 
Q 2719 3006 2719 3438 
Q 2719 3909 2473 4175 
Q 2228 4441 1797 4441 
Q 1350 4441 1106 4219 
Q 863 3997 819 3553 
z
" transform="scale(0.015625)"/>
        <path id="DejaVuSerif-6f" d="M 1925 219 
Q 2388 219 2623 584 
Q 2859 950 2859 1663 
Q 2859 2375 2623 2739 
Q 2388 3103 1925 3103 
Q 1463 3103 1227 2739 
Q 991 2375 991 1663 
Q 991 950 1228 584 
Q 1466 219 1925 219 
z
M 1925 -91 
Q 1200 -91 759 389 
Q 319 869 319 1663 
Q 319 2456 758 2934 
Q 1197 3413 1925 3413 
Q 2653 3413 3092 2934 
Q 3531 2456 3531 1663 
Q 3531 869 3092 389 
Q 2653 -91 1925 -91 
z
" transform="scale(0.015625)"/>
        <path id="DejaVuSerif-78" d="M 1863 2028 
L 2559 2988 
L 2113 2988 
L 2113 3322 
L 3391 3322 
L 3391 2988 
L 2950 2988 
L 2059 1759 
L 3097 331 
L 3531 331 
L 3531 0 
L 1997 0 
L 1997 331 
L 2419 331 
L 1697 1325 
L 972 331 
L 1403 331 
L 1403 0 
L 141 0 
L 141 331 
L 581 331 
L 1497 1594 
L 488 2988 
L 78 2988 
L 78 3322 
L 1563 3322 
L 1563 2988 
L 1166 2988 
L 1863 2028 
z
" transform="scale(0.015625)"/>
       </defs>
       <use xlink:href="#DejaVuSerif-47"/>
       <use xlink:href="#DejaVuSerif-50" transform="translate(79.882812 0)"/>
       <use xlink:href="#DejaVuSerif-54" transform="translate(147.167969 0)"/>
       <use xlink:href="#DejaVuSerif-2d" transform="translate(200.992188 0)"/>
       <use xlink:href="#DejaVuSerif-35" transform="translate(234.78125 0)"/>
       <use xlink:href="#DejaVuSerif-2e" transform="translate(298.404297 0)"/>
       <use xlink:href="#DejaVuSerif-32" transform="translate(330.191406 0)"/>
       <use xlink:href="#DejaVuSerif-20" transform="translate(393.814453 0)"/>
       <use xlink:href="#DejaVuSerif-43" transform="translate(425.601562 0)"/>
       <use xlink:href="#DejaVuSerif-6f" transform="translate(502.115234 0)"/>
       <use xlink:href="#DejaVuSerif-64" transform="translate(562.320312 0)"/>
       <use xlink:href="#DejaVuSerif-65" transform="translate(626.333984 0)"/>
       <use xlink:href="#DejaVuSerif-78" transform="translate(685.513672 0)"/>
      </g>
     </g>
    </g>
    <g id="xtick_3">
     <g id="line2d_3">
      <g>
       <use xlink:href="#m14b11407d1" x="594.781771" y="382.962202" style="stroke: #000000; stroke-width: 0.8"/>
      </g>
     </g>
     <g id="text_3">
      <!-- Gemini 3 Flash -->
      <g transform="translate(527.690108 414.415129) rotate(-15) scale(0.09 -0.09)">
       <defs>
        <path id="DejaVuSerif-6d" d="M 3316 2675 
Q 3481 3041 3739 3227 
Q 3997 3413 4341 3413 
Q 4863 3413 5119 3089 
Q 5375 2766 5375 2113 
L 5375 331 
L 5894 331 
L 5894 0 
L 4300 0 
L 4300 331 
L 4800 331 
L 4800 2047 
Q 4800 2556 4650 2772 
Q 4500 2988 4153 2988 
Q 3769 2988 3567 2697 
Q 3366 2406 3366 1850 
L 3366 331 
L 3866 331 
L 3866 0 
L 2291 0 
L 2291 331 
L 2791 331 
L 2791 2069 
Q 2791 2566 2641 2777 
Q 2491 2988 2144 2988 
Q 1759 2988 1557 2697 
Q 1356 2406 1356 1850 
L 1356 331 
L 1856 331 
L 1856 0 
L 263 0 
L 263 331 
L 781 331 
L 781 2994 
L 231 2994 
L 231 3322 
L 1356 3322 
L 1356 2731 
Q 1516 3063 1762 3238 
Q 2009 3413 2322 3413 
Q 2709 3413 2968 3220 
Q 3228 3028 3316 2675 
z
" transform="scale(0.015625)"/>
        <path id="DejaVuSerif-69" d="M 622 4353 
Q 622 4497 726 4603 
Q 831 4709 978 4709 
Q 1122 4709 1226 4603 
Q 1331 4497 1331 4353 
Q 1331 4206 1228 4103 
Q 1125 4000 978 4000 
Q 831 4000 726 4103 
Q 622 4206 622 4353 
z
M 1356 331 
L 1900 331 
L 1900 0 
L 231 0 
L 231 331 
L 781 331 
L 781 2988 
L 231 2988 
L 231 3322 
L 1356 3322 
L 1356 331 
z
" transform="scale(0.015625)"/>
        <path id="DejaVuSerif-6e" d="M 263 0 
L 263 331 
L 781 331 
L 781 2988 
L 231 2988 
L 231 3322 
L 1356 3322 
L 1356 2731 
Q 1516 3069 1770 3241 
Q 2025 3413 2363 3413 
Q 2913 3413 3172 3097 
Q 3431 2781 3431 2113 
L 3431 331 
L 3944 331 
L 3944 0 
L 2356 0 
L 2356 331 
L 2853 331 
L 2853 1931 
Q 2853 2541 2703 2767 
Q 2553 2994 2175 2994 
Q 1775 2994 1565 2701 
Q 1356 2409 1356 1850 
L 1356 331 
L 1856 331 
L 1856 0 
L 263 0 
z
" transform="scale(0.015625)"/>
        <path id="DejaVuSerif-33" d="M 622 4469 
Q 988 4606 1323 4678 
Q 1659 4750 1953 4750 
Q 2638 4750 3022 4454 
Q 3406 4159 3406 3634 
Q 3406 3213 3140 2930 
Q 2875 2647 2388 2547 
Q 2963 2466 3280 2130 
Q 3597 1794 3597 1259 
Q 3597 606 3158 257 
Q 2719 -91 1894 -91 
Q 1528 -91 1179 -12 
Q 831 66 488 225 
L 488 1131 
L 838 1131 
Q 869 681 1141 450 
Q 1413 219 1906 219 
Q 2384 219 2661 495 
Q 2938 772 2938 1253 
Q 2938 1803 2653 2086 
Q 2369 2369 1819 2369 
L 1522 2369 
L 1522 2688 
L 1678 2688 
Q 2225 2688 2498 2914 
Q 2772 3141 2772 3597 
Q 2772 4006 2547 4223 
Q 2322 4441 1900 4441 
Q 1478 4441 1245 4241 
Q 1013 4041 972 3647 
L 622 3647 
L 622 4469 
z
" transform="scale(0.015625)"/>
        <path id="DejaVuSerif-46" d="M 353 0 
L 353 331 
L 947 331 
L 947 4331 
L 353 4331 
L 353 4666 
L 4172 4666 
L 4172 3628 
L 3788 3628 
L 3788 4281 
L 1581 4281 
L 1581 2719 
L 3175 2719 
L 3175 3303 
L 3559 3303 
L 3559 1753 
L 3175 1753 
L 3175 2338 
L 1581 2338 
L 1581 331 
L 2328 331 
L 2328 0 
L 353 0 
z
" transform="scale(0.015625)"/>
        <path id="DejaVuSerif-68" d="M 263 0 
L 263 331 
L 781 331 
L 781 4531 
L 231 4531 
L 231 4863 
L 1356 4863 
L 1356 2731 
Q 1516 3069 1770 3241 
Q 2025 3413 2363 3413 
Q 2913 3413 3172 3097 
Q 3431 2781 3431 2113 
L 3431 331 
L 3944 331 
L 3944 0 
L 2356 0 
L 2356 331 
L 2853 331 
L 2853 1931 
Q 2853 2541 2704 2764 
Q 2556 2988 2175 2988 
Q 1775 2988 1565 2697 
Q 1356 2406 1356 1850 
L 1356 331 
L 1856 331 
L 1856 0 
L 263 0 
z
" transform="scale(0.015625)"/>
       </defs>
       <use xlink:href="#DejaVuSerif-47"/>
       <use xlink:href="#DejaVuSerif-65" transform="translate(79.882812 0)"/>
       <use xlink:href="#DejaVuSerif-6d" transform="translate(139.0625 0)"/>
       <use xlink:href="#DejaVuSerif-69" transform="translate(233.886719 0)"/>
       <use xlink:href="#DejaVuSerif-6e" transform="translate(265.869141 0)"/>
       <use xlink:href="#DejaVuSerif-69" transform="translate(330.273438 0)"/>
       <use xlink:href="#DejaVuSerif-20" transform="translate(362.255859 0)"/>
       <use xlink:href="#DejaVuSerif-33" transform="translate(394.042969 0)"/>
       <use xlink:href="#DejaVuSerif-20" transform="translate(457.666016 0)"/>
       <use xlink:href="#DejaVuSerif-46" transform="translate(489.453125 0)"/>
       <use xlink:href="#DejaVuSerif-6c" transform="translate(558.837891 0)"/>
       <use xlink:href="#DejaVuSerif-61" transform="translate(590.820312 0)"/>
       <use xlink:href="#DejaVuSerif-73" transform="translate(650.439453 0)"/>
       <use xlink:href="#DejaVuSerif-68" transform="translate(701.757812 0)"/>
      </g>
     </g>
    </g>
   </g>
   <g id="matplotlib.axis_2">
    <g id="ytick_1">
     <g id="line2d_4">
      <path d="M 40.298438 382.962202 
L 705.678438 382.962202 
" clip-path="url(#p3e517282c1)" style="fill: none; stroke-dasharray: 2.96,1.28; stroke-dashoffset: 0; stroke: #b0b0b0; stroke-opacity: 0.5; stroke-width: 0.8"/>
     </g>
     <g id="line2d_5">
      <defs>
       <path id="m609416d9fb" d="M 0 0 
L -3.5 0 
" style="stroke: #000000; stroke-width: 0.8"/>
      </defs>
      <g>
       <use xlink:href="#m609416d9fb" x="40.298438" y="382.962202" style="stroke: #000000; stroke-width: 0.8"/>
      </g>
     </g>
     <g id="text_4">
      <!-- 0 -->
      <g transform="translate(27.572188 386.381499) scale(0.09 -0.09)">
       <defs>
        <path id="DejaVuSerif-30" d="M 2034 219 
Q 2513 219 2750 744 
Q 2988 1269 2988 2328 
Q 2988 3391 2750 3916 
Q 2513 4441 2034 4441 
Q 1556 4441 1318 3916 
Q 1081 3391 1081 2328 
Q 1081 1269 1318 744 
Q 1556 219 2034 219 
z
M 2034 -91 
Q 1275 -91 848 546 
Q 422 1184 422 2328 
Q 422 3475 848 4112 
Q 1275 4750 2034 4750 
Q 2797 4750 3222 4112 
Q 3647 3475 3647 2328 
Q 3647 1184 3222 546 
Q 2797 -91 2034 -91 
z
" transform="scale(0.015625)"/>
       </defs>
       <use xlink:href="#DejaVuSerif-30"/>
      </g>
     </g>
    </g>
    <g id="ytick_2">
     <g id="line2d_6">
      <path d="M 40.298438 317.426688 
L 705.678438 317.426688 
" clip-path="url(#p3e517282c1)" style="fill: none; stroke-dasharray: 2.96,1.28; stroke-dashoffset: 0; stroke: #b0b0b0; stroke-opacity: 0.5; stroke-width: 0.8"/>
     </g>
     <g id="line2d_7">
      <g>
       <use xlink:href="#m609416d9fb" x="40.298438" y="317.426688" style="stroke: #000000; stroke-width: 0.8"/>
      </g>
     </g>
     <g id="text_5">
      <!-- 2 -->
      <g transform="translate(27.572188 320.845985) scale(0.09 -0.09)">
       <use xlink:href="#DejaVuSerif-32"/>
      </g>
     </g>
    </g>
    <g id="ytick_3">
     <g id="line2d_8">
      <path d="M 40.298438 251.891174 
L 705.678438 251.891174 
" clip-path="url(#p3e517282c1)" style="fill: none; stroke-dasharray: 2.96,1.28; stroke-dashoffset: 0; stroke: #b0b0b0; stroke-opacity: 0.5; stroke-width: 0.8"/>
     </g>
     <g id="line2d_9">
      <g>
       <use xlink:href="#m609416d9fb" x="40.298438" y="251.891174" style="stroke: #000000; stroke-width: 0.8"/>
      </g>
     </g>
     <g id="text_6">
      <!-- 4 -->
      <g transform="translate(27.572188 255.310471) scale(0.09 -0.09)">
       <use xlink:href="#DejaVuSerif-34"/>
      </g>
     </g>
    </g>
    <g id="ytick_4">
     <g id="line2d_10">
      <path d="M 40.298438 186.35566 
L 705.678438 186.35566 
" clip-path="url(#p3e517282c1)" style="fill: none; stroke-dasharray: 2.96,1.28; stroke-dashoffset: 0; stroke: #b0b0b0; stroke-opacity: 0.5; stroke-width: 0.8"/>
     </g>
     <g id="line2d_11">
      <g>
       <use xlink:href="#m609416d9fb" x="40.298438" y="186.35566" style="stroke: #000000; stroke-width: 0.8"/>
      </g>
     </g>
     <g id="text_7">
      <!-- 6 -->
      <g transform="translate(27.572188 189.774957) scale(0.09 -0.09)">
       <defs>
        <path id="DejaVuSerif-36" d="M 2094 219 
Q 2534 219 2771 542 
Q 3009 866 3009 1472 
Q 3009 2078 2771 2401 
Q 2534 2725 2094 2725 
Q 1647 2725 1412 2412 
Q 1178 2100 1178 1509 
Q 1178 888 1415 553 
Q 1653 219 2094 219 
z
M 1075 2569 
Q 1288 2803 1556 2918 
Q 1825 3034 2163 3034 
Q 2859 3034 3264 2615 
Q 3669 2197 3669 1472 
Q 3669 763 3233 336 
Q 2797 -91 2069 -91 
Q 1278 -91 853 498 
Q 428 1088 428 2181 
Q 428 3406 931 4078 
Q 1434 4750 2350 4750 
Q 2597 4750 2869 4703 
Q 3141 4656 3425 4563 
L 3425 3794 
L 3072 3794 
Q 3034 4109 2831 4275 
Q 2628 4441 2284 4441 
Q 1678 4441 1381 3981 
Q 1084 3522 1075 2569 
z
" transform="scale(0.015625)"/>
       </defs>
       <use xlink:href="#DejaVuSerif-36"/>
      </g>
     </g>
    </g>
    <g id="ytick_5">
     <g id="line2d_12">
      <path d="M 40.298438 120.820146 
L 705.678438 120.820146 
" clip-path="url(#p3e517282c1)" style="fill: none; stroke-dasharray: 2.96,1.28; stroke-dashoffset: 0; stroke: #b0b0b0; stroke-opacity: 0.5; stroke-width: 0.8"/>
     </g>
     <g id="line2d_13">
      <g>
       <use xlink:href="#m609416d9fb" x="40.298438" y="120.820146" style="stroke: #000000; stroke-width: 0.8"/>
      </g>
     </g>
     <g id="text_8">
      <!-- 8 -->
      <g transform="translate(27.572188 124.239443) scale(0.09 -0.09)">
       <defs>
        <path id="DejaVuSerif-38" d="M 2981 1275 
Q 2981 1775 2732 2051 
Q 2484 2328 2034 2328 
Q 1584 2328 1336 2051 
Q 1088 1775 1088 1275 
Q 1088 772 1336 495 
Q 1584 219 2034 219 
Q 2484 219 2732 495 
Q 2981 772 2981 1275 
z
M 2853 3541 
Q 2853 3966 2637 4203 
Q 2422 4441 2034 4441 
Q 1650 4441 1433 4203 
Q 1216 3966 1216 3541 
Q 1216 3113 1433 2875 
Q 1650 2638 2034 2638 
Q 2422 2638 2637 2875 
Q 2853 3113 2853 3541 
z
M 2516 2484 
Q 3047 2413 3344 2092 
Q 3641 1772 3641 1275 
Q 3641 619 3225 264 
Q 2809 -91 2034 -91 
Q 1263 -91 845 264 
Q 428 619 428 1275 
Q 428 1772 725 2092 
Q 1022 2413 1556 2484 
Q 1084 2569 832 2842 
Q 581 3116 581 3541 
Q 581 4103 968 4426 
Q 1356 4750 2034 4750 
Q 2713 4750 3100 4426 
Q 3488 4103 3488 3541 
Q 3488 3116 3236 2842 
Q 2984 2569 2516 2484 
z
" transform="scale(0.015625)"/>
       </defs>
       <use xlink:href="#DejaVuSerif-38"/>
      </g>
     </g>
    </g>
    <g id="ytick_6">
     <g id="line2d_14">
      <path d="M 40.298438 55.284632 
L 705.678438 55.284632 
" clip-path="url(#p3e517282c1)" style="fill: none; stroke-dasharray: 2.96,1.28; stroke-dashoffset: 0; stroke: #b0b0b0; stroke-opacity: 0.5; stroke-width: 0.8"/>
     </g>
     <g id="line2d_15">
      <g>
       <use xlink:href="#m609416d9fb" x="40.298438" y="55.284632" style="stroke: #000000; stroke-width: 0.8"/>
      </g>
     </g>
     <g id="text_9">
      <!-- 10 -->
      <g transform="translate(21.845938 58.703929) scale(0.09 -0.09)">
       <defs>
        <path id="DejaVuSerif-31" d="M 909 0 
L 909 331 
L 1722 331 
L 1722 4213 
L 781 3603 
L 781 4013 
L 1919 4750 
L 2350 4750 
L 2350 331 
L 3163 331 
L 3163 0 
L 909 0 
z
" transform="scale(0.015625)"/>
       </defs>
       <use xlink:href="#DejaVuSerif-31"/>
       <use xlink:href="#DejaVuSerif-30" transform="translate(63.623047 0)"/>
      </g>
     </g>
    </g>
    <g id="text_10">
     <!-- Интегральный показатель Q -->
     <g transform="translate(15.558281 286.14532) rotate(-90) scale(0.11 -0.11)">
      <defs>
       <path id="DejaVuSerif-418" d="M 353 0 
L 353 331 
L 947 331 
L 947 4331 
L 353 4331 
L 353 4666 
L 2175 4666 
L 2175 4331 
L 1581 4331 
L 1581 1447 
L 4000 3803 
L 4000 4331 
L 3406 4331 
L 3406 4666 
L 5228 4666 
L 5228 4331 
L 4634 4331 
L 4634 331 
L 5228 331 
L 5228 0 
L 3406 0 
L 3406 331 
L 4000 331 
L 4000 3216 
L 1581 859 
L 1581 331 
L 2175 331 
L 2175 0 
L 353 0 
z
" transform="scale(0.015625)"/>
       <path id="DejaVuSerif-43d" d="M 3409 2991 
L 3409 331 
L 3928 331 
L 3928 0 
L 2316 0 
L 2316 331 
L 2834 331 
L 2834 1613 
L 1313 1613 
L 1313 331 
L 1831 331 
L 1831 0 
L 219 0 
L 219 331 
L 738 331 
L 738 2991 
L 219 2991 
L 219 3322 
L 1831 3322 
L 1831 2991 
L 1313 2991 
L 1313 2000 
L 2834 2000 
L 2834 2991 
L 2316 2991 
L 2316 3322 
L 3928 3322 
L 3928 2991 
L 3409 2991 
z
" transform="scale(0.015625)"/>
       <path id="DejaVuSerif-442" d="M 3297 3322 
L 3297 2419 
L 2969 2419 
L 2969 2938 
L 2066 2938 
L 2066 331 
L 2584 331 
L 2584 0 
L 972 0 
L 972 331 
L 1491 331 
L 1491 2938 
L 588 2938 
L 588 2419 
L 259 2419 
L 259 3322 
L 3297 3322 
z
" transform="scale(0.015625)"/>
       <path id="DejaVuSerif-435" d="M 3469 1600 
L 991 1600 
L 991 1575 
Q 991 903 1244 561 
Q 1497 219 1991 219 
Q 2369 219 2611 417 
Q 2853 616 2950 1006 
L 3413 1006 
Q 3275 459 2904 184 
Q 2534 -91 1931 -91 
Q 1203 -91 761 389 
Q 319 869 319 1663 
Q 319 2450 753 2931 
Q 1188 3413 1894 3413 
Q 2647 3413 3050 2948 
Q 3453 2484 3469 1600 
z
M 2791 1931 
Q 2772 2513 2545 2808 
Q 2319 3103 1894 3103 
Q 1497 3103 1269 2806 
Q 1041 2509 991 1931 
L 2791 1931 
z
" transform="scale(0.015625)"/>
       <path id="DejaVuSerif-433" d="M 3075 3322 
L 3075 2419 
L 2744 2419 
L 2744 2938 
L 1313 2938 
L 1313 331 
L 1759 331 
L 1759 0 
L 219 0 
L 219 331 
L 738 331 
L 738 2991 
L 184 2991 
L 184 3322 
L 3075 3322 
z
" transform="scale(0.015625)"/>
       <path id="DejaVuSerif-440" d="M 1313 1825 
L 1313 1497 
Q 1313 897 1542 583 
Q 1772 269 2209 269 
Q 2650 269 2876 622 
Q 3103 975 3103 1663 
Q 3103 2353 2876 2703 
Q 2650 3053 2209 3053 
Q 1772 3053 1542 2737 
Q 1313 2422 1313 1825 
z
M 738 2988 
L 184 2988 
L 184 3322 
L 1313 3322 
L 1313 2803 
Q 1481 3116 1742 3264 
Q 2003 3413 2388 3413 
Q 3000 3413 3387 2928 
Q 3775 2444 3775 1663 
Q 3775 881 3387 395 
Q 3000 -91 2388 -91 
Q 2003 -91 1742 57 
Q 1481 206 1313 519 
L 1313 -997 
L 1856 -997 
L 1856 -1331 
L 184 -1331 
L 184 -997 
L 738 -997 
L 738 2988 
z
" transform="scale(0.015625)"/>
       <path id="DejaVuSerif-430" d="M 2547 1044 
L 2547 1747 
L 1806 1747 
Q 1378 1747 1168 1562 
Q 959 1378 959 997 
Q 959 650 1171 447 
Q 1384 244 1747 244 
Q 2106 244 2326 466 
Q 2547 688 2547 1044 
z
M 3122 2075 
L 3122 331 
L 3634 331 
L 3634 0 
L 2547 0 
L 2547 359 
Q 2356 128 2106 18 
Q 1856 -91 1522 -91 
Q 969 -91 644 203 
Q 319 497 319 997 
Q 319 1513 691 1797 
Q 1063 2081 1741 2081 
L 2547 2081 
L 2547 2309 
Q 2547 2688 2317 2895 
Q 2088 3103 1672 3103 
Q 1328 3103 1125 2947 
Q 922 2791 872 2484 
L 575 2484 
L 575 3156 
Q 875 3284 1158 3348 
Q 1441 3413 1709 3413 
Q 2400 3413 2761 3070 
Q 3122 2728 3122 2075 
z
" transform="scale(0.015625)"/>
       <path id="DejaVuSerif-43b" d="M 925 472 
Q 981 603 1034 908 
Q 1088 1213 1131 1538 
Q 1163 1778 1163 2403 
L 1163 2991 
L 644 2991 
L 644 3322 
L 3834 3322 
L 3834 2991 
L 3319 2991 
L 3319 331 
L 3834 331 
L 3834 0 
L 2225 0 
L 2225 331 
L 2744 331 
L 2744 2944 
L 1547 2944 
L 1547 2400 
Q 1547 1903 1516 1538 
Q 1494 1278 1431 954 
Q 1369 631 1303 381 
Q 1247 156 1055 32 
Q 863 -91 603 -91 
Q 550 -91 447 -80 
Q 344 -69 131 0 
L 113 391 
Q 350 294 547 294 
Q 675 294 773 325 
Q 872 356 925 472 
z
" transform="scale(0.015625)"/>
       <path id="DejaVuSerif-44c" d="M 1313 331 
L 2022 331 
Q 2338 331 2522 506 
Q 2706 681 2706 969 
Q 2706 1256 2520 1429 
Q 2334 1603 2022 1603 
L 1313 1603 
L 1313 331 
z
M 3216 963 
Q 3216 0 2019 0 
L 188 0 
L 188 331 
L 738 331 
L 738 2991 
L 188 2991 
L 188 3322 
L 1831 3322 
L 1831 2991 
L 1313 2991 
L 1313 1947 
L 1922 1947 
Q 3216 1947 3216 963 
z
" transform="scale(0.015625)"/>
       <path id="DejaVuSerif-44b" d="M 1313 331 
L 2022 331 
Q 2338 331 2522 506 
Q 2706 681 2706 969 
Q 2706 1256 2520 1429 
Q 2334 1603 2022 1603 
L 1313 1603 
L 1313 331 
z
M 3216 963 
Q 3216 0 2019 0 
L 188 0 
L 188 331 
L 738 331 
L 738 2991 
L 188 2991 
L 188 3322 
L 1831 3322 
L 1831 2991 
L 1313 2991 
L 1313 1947 
L 1922 1947 
Q 3216 1947 3216 963 
z
M 4347 2984 
L 4347 331 
L 4866 331 
L 4866 0 
L 3253 0 
L 3253 331 
L 3772 331 
L 3772 2991 
L 3253 2991 
L 3253 3322 
L 4866 3322 
L 4866 2984 
L 4347 2984 
z
" transform="scale(0.015625)"/>
       <path id="DejaVuSerif-439" d="M 1110 4564 
Q 1110 4649 1185 4724 
Q 1260 4799 1366 4799 
Q 1472 4799 1547 4724 
Q 1622 4649 1622 4536 
Q 1622 4424 1544 4352 
Q 1701 4243 2088 4243 
Q 2476 4243 2632 4352 
Q 2554 4424 2554 4536 
Q 2554 4649 2629 4724 
Q 2704 4799 2810 4799 
Q 2916 4799 2991 4724 
Q 3066 4649 3066 4564 
Q 3066 4480 2985 4225 
Q 2904 3971 2088 3971 
Q 1272 3971 1191 4225 
Q 1110 4480 1110 4564 
z
M 219 0 
L 219 331 
L 738 331 
L 738 2991 
L 219 2991 
L 219 3322 
L 1831 3322 
L 1831 2991 
L 1313 2991 
L 1313 1084 
L 2834 2694 
L 2834 2991 
L 2316 2991 
L 2316 3322 
L 3928 3322 
L 3928 2991 
L 3409 2991 
L 3409 331 
L 3928 331 
L 3928 0 
L 2316 0 
L 2316 331 
L 2834 331 
L 2834 2188 
L 1313 578 
L 1313 331 
L 1831 331 
L 1831 0 
L 219 0 
z
" transform="scale(0.015625)"/>
       <path id="DejaVuSerif-43f" d="M 3928 3322 
L 3928 2991 
L 3409 2991 
L 3409 331 
L 3928 331 
L 3928 0 
L 2316 0 
L 2316 331 
L 2834 331 
L 2834 2938 
L 1313 2938 
L 1313 331 
L 1831 331 
L 1831 0 
L 219 0 
L 219 331 
L 738 331 
L 738 2991 
L 219 2991 
L 219 3322 
L 3928 3322 
z
" transform="scale(0.015625)"/>
       <path id="DejaVuSerif-43e" d="M 1925 219 
Q 2388 219 2623 584 
Q 2859 950 2859 1663 
Q 2859 2375 2623 2739 
Q 2388 3103 1925 3103 
Q 1463 3103 1227 2739 
Q 991 2375 991 1663 
Q 991 950 1228 584 
Q 1466 219 1925 219 
z
M 1925 -91 
Q 1200 -91 759 389 
Q 319 869 319 1663 
Q 319 2456 758 2934 
Q 1197 3413 1925 3413 
Q 2653 3413 3092 2934 
Q 3531 2456 3531 1663 
Q 3531 869 3092 389 
Q 2653 -91 1925 -91 
z
" transform="scale(0.015625)"/>
       <path id="DejaVuSerif-43a" d="M 1831 3322 
L 1831 2991 
L 1313 2991 
L 1313 1697 
L 2713 2991 
L 2234 2991 
L 2234 3322 
L 3738 3322 
L 3738 2991 
L 3169 2991 
L 2181 2075 
L 3444 331 
L 3922 331 
L 3922 0 
L 2284 0 
L 2284 331 
L 2759 331 
L 1766 1697 
L 1313 1275 
L 1313 331 
L 1831 331 
L 1831 0 
L 219 0 
L 219 331 
L 738 331 
L 738 2991 
L 219 2991 
L 219 3322 
L 1831 3322 
z
" transform="scale(0.015625)"/>
       <path id="DejaVuSerif-437" d="M 409 3181 
Q 956 3413 1672 3413 
Q 2991 3413 2991 2531 
Q 2991 2038 2658 1900 
Q 2325 1763 2247 1756 
Q 2709 1694 2940 1517 
Q 3172 1341 3172 869 
Q 3172 400 2748 154 
Q 2325 -91 1694 -91 
Q 1119 -91 742 170 
Q 366 431 281 809 
L 744 809 
Q 950 219 1713 219 
Q 2097 219 2350 417 
Q 2603 616 2603 894 
Q 2603 1175 2329 1376 
Q 2056 1578 1513 1578 
L 1225 1578 
L 1225 1909 
L 1375 1909 
Q 1922 1909 2183 2068 
Q 2444 2228 2444 2478 
Q 2444 2763 2222 2922 
Q 2000 3081 1622 3081 
Q 816 3081 747 2547 
L 409 2547 
L 409 3181 
z
" transform="scale(0.015625)"/>
       <path id="DejaVuSerif-51" d="M 2700 -91 
Q 1628 -91 993 567 
Q 359 1225 359 2328 
Q 359 2894 529 3339 
Q 700 3784 1050 4134 
Q 1356 4441 1750 4595 
Q 2144 4750 2625 4750 
Q 3641 4750 4266 4084 
Q 4891 3419 4891 2328 
Q 4891 1403 4422 773 
Q 3953 144 3128 -38 
Q 3297 -247 3539 -347 
Q 3781 -447 4122 -447 
L 4219 -447 
L 4219 -1025 
Q 3691 -1000 3314 -767 
Q 2938 -534 2700 -91 
z
M 2625 244 
Q 3391 244 3781 770 
Q 4172 1297 4172 2328 
Q 4172 3363 3781 3889 
Q 3391 4416 2625 4416 
Q 1856 4416 1465 3889 
Q 1075 3363 1075 2328 
Q 1075 1297 1465 770 
Q 1856 244 2625 244 
z
" transform="scale(0.015625)"/>
      </defs>
      <use xlink:href="#DejaVuSerif-418"/>
      <use xlink:href="#DejaVuSerif-43d" transform="translate(87.207031 0)"/>
      <use xlink:href="#DejaVuSerif-442" transform="translate(153.857422 0)"/>
      <use xlink:href="#DejaVuSerif-435" transform="translate(209.179688 0)"/>
      <use xlink:href="#DejaVuSerif-433" transform="translate(268.359375 0)"/>
      <use xlink:href="#DejaVuSerif-440" transform="translate(320.751953 0)"/>
      <use xlink:href="#DejaVuSerif-430" transform="translate(384.765625 0)"/>
      <use xlink:href="#DejaVuSerif-43b" transform="translate(444.384766 0)"/>
      <use xlink:href="#DejaVuSerif-44c" transform="translate(507.910156 0)"/>
      <use xlink:href="#DejaVuSerif-43d" transform="translate(562.353516 0)"/>
      <use xlink:href="#DejaVuSerif-44b" transform="translate(629.003906 0)"/>
      <use xlink:href="#DejaVuSerif-439" transform="translate(708.59375 0)"/>
      <use xlink:href="#DejaVuSerif-20" transform="translate(775.244141 0)"/>
      <use xlink:href="#DejaVuSerif-43f" transform="translate(807.03125 0)"/>
      <use xlink:href="#DejaVuSerif-43e" transform="translate(873.681641 0)"/>
      <use xlink:href="#DejaVuSerif-43a" transform="translate(933.886719 0)"/>
      <use xlink:href="#DejaVuSerif-430" transform="translate(996.386719 0)"/>
      <use xlink:href="#DejaVuSerif-437" transform="translate(1056.005859 0)"/>
      <use xlink:href="#DejaVuSerif-430" transform="translate(1110.546875 0)"/>
      <use xlink:href="#DejaVuSerif-442" transform="translate(1170.166016 0)"/>
      <use xlink:href="#DejaVuSerif-435" transform="translate(1225.488281 0)"/>
      <use xlink:href="#DejaVuSerif-43b" transform="translate(1284.667969 0)"/>
      <use xlink:href="#DejaVuSerif-44c" transform="translate(1348.193359 0)"/>
      <use xlink:href="#DejaVuSerif-20" transform="translate(1402.636719 0)"/>
      <use xlink:href="#DejaVuSerif-51" transform="translate(1434.423828 0)"/>
     </g>
    </g>
   </g>
   <g id="patch_3">
    <path d="M 117.926104 120.820146 
L 184.464104 120.820146 
L 184.464104 88.052389 
L 117.926104 88.052389 
L 117.926104 120.820146 
z
" clip-path="url(#p3e517282c1)" style="fill: #2e86ab; opacity: 0.7; stroke: #000000; stroke-linejoin: miter"/>
   </g>
   <g id="line2d_16">
    <path d="M 151.195104 120.820146 
L 151.195104 153.587903 
" clip-path="url(#p3e517282c1)" style="fill: none; stroke: #000000; stroke-linecap: square"/>
   </g>
   <g id="line2d_17">
    <path d="M 151.195104 88.052389 
L 151.195104 88.052389 
" clip-path="url(#p3e517282c1)" style="fill: none; stroke: #000000; stroke-linecap: square"/>
   </g>
   <g id="line2d_18">
    <path d="M 134.560604 153.587903 
L 167.829604 153.587903 
" clip-path="url(#p3e517282c1)" style="fill: none; stroke: #000000; stroke-linecap: square"/>
   </g>
   <g id="line2d_19">
    <path d="M 134.560604 88.052389 
L 167.829604 88.052389 
" clip-path="url(#p3e517282c1)" style="fill: none; stroke: #000000; stroke-linecap: square"/>
   </g>
   <g id="line2d_20"/>
   <g id="patch_4">
    <path d="M 339.719438 235.507295 
L 406.257438 235.507295 
L 406.257438 186.35566 
L 339.719438 186.35566 
L 339.719438 235.507295 
z
" clip-path="url(#p3e517282c1)" style="fill: #a23b72; opacity: 0.7; stroke: #000000; stroke-linejoin: miter"/>
   </g>
   <g id="line2d_21">
    <path d="M 372.988438 235.507295 
L 372.988438 235.507295 
" clip-path="url(#p3e517282c1)" style="fill: none; stroke: #000000; stroke-linecap: square"/>
   </g>
   <g id="line2d_22">
    <path d="M 372.988438 186.35566 
L 372.988438 169.971781 
" clip-path="url(#p3e517282c1)" style="fill: none; stroke: #000000; stroke-linecap: square"/>
   </g>
   <g id="line2d_23">
    <path d="M 356.353938 235.507295 
L 389.622938 235.507295 
" clip-path="url(#p3e517282c1)" style="fill: none; stroke: #000000; stroke-linecap: square"/>
   </g>
   <g id="line2d_24">
    <path d="M 356.353938 169.971781 
L 389.622938 169.971781 
" clip-path="url(#p3e517282c1)" style="fill: none; stroke: #000000; stroke-linecap: square"/>
   </g>
   <g id="line2d_25">
    <defs>
     <path id="mf62e5a875b" d="M 0 3 
C 0.795609 3 1.55874 2.683901 2.12132 2.12132 
C 2.683901 1.55874 3 0.795609 3 0 
C 3 -0.795609 2.683901 -1.55874 2.12132 -2.12132 
C 1.55874 -2.683901 0.795609 -3 0 -3 
C -0.795609 -3 -1.55874 -2.683901 -2.12132 -2.12132 
C -2.683901 -1.55874 -3 -0.795609 -3 0 
C -3 0.795609 -2.683901 1.55874 -2.12132 2.12132 
C -1.55874 2.683901 -0.795609 3 0 3 
z
" style="stroke: #000000"/>
    </defs>
    <g clip-path="url(#p3e517282c1)">
     <use xlink:href="#mf62e5a875b" x="372.988438" y="317.426688" style="fill-opacity: 0; stroke: #000000"/>
    </g>
   </g>
   <g id="patch_5">
    <path d="M 561.512771 153.587903 
L 628.050771 153.587903 
L 628.050771 120.820146 
L 561.512771 120.820146 
L 561.512771 153.587903 
z
" clip-path="url(#p3e517282c1)" style="fill: #28a745; opacity: 0.7; stroke: #000000; stroke-linejoin: miter"/>
   </g>
   <g id="line2d_26">
    <path d="M 594.781771 153.587903 
L 594.781771 153.587903 
" clip-path="url(#p3e517282c1)" style="fill: none; stroke: #000000; stroke-linecap: square"/>
   </g>
   <g id="line2d_27">
    <path d="M 594.781771 120.820146 
L 594.781771 120.820146 
" clip-path="url(#p3e517282c1)" style="fill: none; stroke: #000000; stroke-linecap: square"/>
   </g>
   <g id="line2d_28">
    <path d="M 578.147271 153.587903 
L 611.416271 153.587903 
" clip-path="url(#p3e517282c1)" style="fill: none; stroke: #000000; stroke-linecap: square"/>
   </g>
   <g id="line2d_29">
    <path d="M 578.147271 120.820146 
L 611.416271 120.820146 
" clip-path="url(#p3e517282c1)" style="fill: none; stroke: #000000; stroke-linecap: square"/>
   </g>
   <g id="line2d_30">
    <g clip-path="url(#p3e517282c1)">
     <use xlink:href="#mf62e5a875b" x="594.781771" y="219.123417" style="fill-opacity: 0; stroke: #000000"/>
    </g>
   </g>
   <g id="line2d_31">
    <path d="M 40.298438 120.820146 
L 705.678438 120.820146 
" clip-path="url(#p3e517282c1)" style="fill: none; stroke-dasharray: 3.7,1.6; stroke-dashoffset: 0; stroke: #28a745; stroke-opacity: 0.7"/>
   </g>
   <g id="line2d_32">
    <path d="M 40.298438 219.123417 
L 705.678438 219.123417 
" clip-path="url(#p3e517282c1)" style="fill: none; stroke-dasharray: 3.7,1.6; stroke-dashoffset: 0; stroke: #ffc107; stroke-opacity: 0.7"/>
   </g>
   <g id="line2d_33">
    <path d="M 117.926104 88.052389 
L 184.464104 88.052389 
" clip-path="url(#p3e517282c1)" style="fill: none; stroke: #000000; stroke-width: 2"/>
   </g>
   <g id="line2d_34">
    <path d="M 339.719438 202.739538 
L 406.257438 202.739538 
" clip-path="url(#p3e517282c1)" style="fill: none; stroke: #000000; stroke-width: 2"/>
   </g>
   <g id="line2d_35">
    <path d="M 561.512771 137.204024 
L 628.050771 137.204024 
" clip-path="url(#p3e517282c1)" style="fill: none; stroke: #000000; stroke-width: 2"/>
   </g>
   <g id="patch_6">
    <path d="M 40.298438 382.962202 
L 40.298438 22.516875 
" style="fill: none; stroke: #000000; stroke-width: 0.8; stroke-linejoin: miter; stroke-linecap: square"/>
   </g>
   <g id="patch_7">
    <path d="M 705.678438 382.962202 
L 705.678438 22.516875 
" style="fill: none; stroke: #000000; stroke-width: 0.8; stroke-linejoin: miter; stroke-linecap: square"/>
   </g>
   <g id="patch_8">
    <path d="M 40.298438 382.962202 
L 705.678438 382.962202 
" style="fill: none; stroke: #000000; stroke-width: 0.8; stroke-linejoin: miter; stroke-linecap: square"/>
   </g>
   <g id="patch_9">
    <path d="M 40.298438 22.516875 
L 705.678438 22.516875 
" style="fill: none; stroke: #000000; stroke-width: 0.8; stroke-linejoin: miter; stroke-linecap: square"/>
   </g>
   <g id="text_11">
    <!-- Разброс Q по моделям (boxplot) -->
    <g transform="translate(261.325625 16.516875) scale(0.12 -0.12)">
     <defs>
      <path id="DejaVuSerif-Bold-420" d="M 300 0 
L 300 378 
L 897 378 
L 897 4288 
L 300 4288 
L 300 4666 
L 2956 4666 
Q 3734 4666 4193 4295 
Q 4653 3925 4653 3303 
Q 4653 2678 4192 2304 
Q 3731 1931 2956 1931 
L 2100 1931 
L 2100 378 
L 2853 378 
L 2853 0 
L 300 0 
z
M 2100 2309 
L 2450 2309 
Q 2856 2309 3098 2579 
Q 3341 2850 3341 3303 
Q 3341 3753 3100 4020 
Q 2859 4288 2450 4288 
L 2100 4288 
L 2100 2309 
z
" transform="scale(0.015625)"/>
      <path id="DejaVuSerif-Bold-430" d="M 3525 2041 
L 3525 378 
L 4000 378 
L 4000 0 
L 2419 0 
L 2419 422 
Q 2200 159 1931 34 
Q 1663 -91 1319 -91 
Q 809 -91 536 182 
Q 263 456 263 966 
Q 263 1525 655 1803 
Q 1047 2081 1838 2081 
L 2419 2081 
L 2419 2278 
Q 2419 2681 2228 2873 
Q 2038 3066 1638 3066 
Q 1306 3066 1126 2930 
Q 947 2794 872 2484 
L 519 2484 
L 519 3200 
Q 816 3306 1134 3359 
Q 1453 3413 1806 3413 
Q 2697 3413 3111 3081 
Q 3525 2750 3525 2041 
z
M 2419 1044 
L 2419 1709 
L 2003 1709 
Q 1694 1709 1528 1540 
Q 1363 1372 1363 1056 
Q 1363 741 1483 584 
Q 1603 428 1850 428 
Q 2106 428 2262 597 
Q 2419 766 2419 1044 
z
" transform="scale(0.015625)"/>
      <path id="DejaVuSerif-Bold-437" d="M 219 809 
L 738 809 
Q 803 691 1017 477 
Q 1231 263 1800 263 
Q 2197 263 2450 466 
Q 2691 619 2691 872 
Q 2691 1563 1494 1563 
L 1303 1563 
L 1303 1991 
L 1453 1991 
Q 2181 1991 2394 2144 
Q 2547 2253 2576 2342 
Q 2606 2431 2606 2525 
Q 2606 3059 1675 3059 
Q 1216 3059 1011 2914 
Q 806 2769 765 2714 
Q 725 2659 709 2547 
L 359 2547 
L 359 3213 
Q 1569 3413 1916 3413 
Q 3609 3413 3609 2538 
Q 3609 2234 3356 2037 
Q 3103 1841 2747 1800 
Q 3269 1750 3548 1511 
Q 3828 1272 3828 884 
Q 3828 400 3325 154 
Q 2822 -91 1984 -91 
Q 688 -91 219 809 
z
" transform="scale(0.015625)"/>
      <path id="DejaVuSerif-Bold-431" d="M 216 2663 
Q 216 3166 453 3613 
Q 775 4225 1259 4456 
Q 1666 4650 2669 4725 
Q 3153 4763 3292 4853 
Q 3431 4944 3434 4969 
L 3841 4969 
Q 3813 4681 3425 4300 
Q 3216 4094 2772 4044 
Q 1744 3928 1369 3803 
Q 1156 3731 856 3388 
Q 703 3213 666 2850 
Q 1156 3413 2087 3413 
Q 3019 3413 3516 2948 
Q 4013 2484 4013 1663 
Q 4013 844 3514 376 
Q 3016 -91 2137 -91 
Q 1259 -91 786 353 
Q 313 797 263 1663 
L 231 2213 
Q 216 2488 216 2663 
z
M 1640 2757 
Q 1497 2456 1497 1662 
Q 1497 869 1640 566 
Q 1784 263 2138 263 
Q 2488 263 2630 563 
Q 2772 863 2772 1663 
Q 2772 2463 2631 2761 
Q 2491 3059 2137 3059 
Q 1784 3059 1640 2757 
z
" transform="scale(0.015625)"/>
      <path id="DejaVuSerif-Bold-440" d="M 1728 1825 
L 1728 1497 
Q 1728 916 1876 656 
Q 2025 397 2356 397 
Q 2697 397 2836 672 
Q 2975 947 2975 1663 
Q 2975 2378 2836 2651 
Q 2697 2925 2356 2925 
Q 2025 2925 1876 2665 
Q 1728 2406 1728 1825 
z
M 622 2944 
L 147 2944 
L 147 3322 
L 1728 3322 
L 1728 2900 
Q 1869 3159 2106 3286 
Q 2344 3413 2694 3413 
Q 3403 3413 3811 2945 
Q 4219 2478 4219 1663 
Q 4219 847 3811 378 
Q 3403 -91 2694 -91 
Q 2344 -91 2106 36 
Q 1869 163 1728 422 
L 1728 -953 
L 2241 -953 
L 2241 -1331 
L 147 -1331 
L 147 -953 
L 622 -953 
L 622 2944 
z
" transform="scale(0.015625)"/>
      <path id="DejaVuSerif-Bold-43e" d="M 2138 263 
Q 2488 263 2630 563 
Q 2772 863 2772 1663 
Q 2772 2463 2631 2761 
Q 2491 3059 2138 3059 
Q 1784 3059 1640 2757 
Q 1497 2456 1497 1663 
Q 1497 869 1640 566 
Q 1784 263 2138 263 
z
M 2138 -91 
Q 1259 -91 761 376 
Q 263 844 263 1663 
Q 263 2484 761 2948 
Q 1259 3413 2138 3413 
Q 3019 3413 3516 2948 
Q 4013 2484 4013 1663 
Q 4013 844 3514 376 
Q 3016 -91 2138 -91 
z
" transform="scale(0.015625)"/>
      <path id="DejaVuSerif-Bold-441" d="M 3609 1038 
Q 3491 469 3123 189 
Q 2756 -91 2125 -91 
Q 1238 -91 750 368 
Q 263 828 263 1663 
Q 263 2488 744 2950 
Q 1225 3413 2081 3413 
Q 2428 3413 2781 3347 
Q 3134 3281 3500 3150 
L 3500 2228 
L 3150 2228 
Q 3100 2650 2903 2854 
Q 2706 3059 2350 3059 
Q 1888 3059 1692 2746 
Q 1497 2434 1497 1663 
Q 1497 909 1687 586 
Q 1878 263 2309 263 
Q 2644 263 2845 463 
Q 3047 663 3091 1038 
L 3609 1038 
z
" transform="scale(0.015625)"/>
      <path id="DejaVuSerif-Bold-20" transform="scale(0.015625)"/>
      <path id="DejaVuSerif-Bold-51" d="M 2766 -91 
Q 1584 -72 926 565 
Q 269 1203 269 2328 
Q 269 3459 939 4104 
Q 1609 4750 2784 4750 
Q 3963 4750 4631 4106 
Q 5300 3463 5300 2328 
Q 5300 1334 4786 715 
Q 4272 97 3322 -50 
Q 3488 -228 3725 -306 
Q 3963 -384 4341 -384 
L 4500 -384 
L 4500 -1153 
L 4409 -1153 
Q 3816 -1153 3419 -897 
Q 3022 -641 2766 -91 
z
M 2784 288 
Q 3381 288 3672 791 
Q 3963 1294 3963 2328 
Q 3963 3366 3672 3869 
Q 3381 4372 2784 4372 
Q 2191 4372 1898 3864 
Q 1606 3356 1606 2328 
Q 1606 1303 1898 795 
Q 2191 288 2784 288 
z
" transform="scale(0.015625)"/>
      <path id="DejaVuSerif-Bold-43f" d="M 219 0 
L 219 378 
L 691 378 
L 691 2944 
L 219 2944 
L 219 3322 
L 4469 3322 
L 4469 2944 
L 3994 2944 
L 3994 378 
L 4469 378 
L 4469 0 
L 2478 0 
L 2478 378 
L 2888 378 
L 2888 2944 
L 1797 2944 
L 1797 378 
L 2203 378 
L 2203 0 
L 219 0 
z
" transform="scale(0.015625)"/>
      <path id="DejaVuSerif-Bold-43c" d="M 219 0 
L 219 378 
L 691 378 
L 691 2944 
L 219 2944 
L 219 3322 
L 1991 3322 
L 2788 1334 
L 3581 3322 
L 5341 3322 
L 5341 2944 
L 4869 2944 
L 4869 366 
L 5341 366 
L 5341 0 
L 3291 0 
L 3291 366 
L 3763 366 
L 3763 2709 
L 2875 491 
L 1988 491 
L 1097 2709 
L 1097 378 
L 1569 378 
L 1569 0 
L 219 0 
z
" transform="scale(0.015625)"/>
      <path id="DejaVuSerif-Bold-434" d="M 219 -884 
L 219 378 
L 425 378 
Q 759 378 892 939 
Q 1025 1500 1025 2403 
L 1025 2944 
L 553 2944 
L 553 3322 
L 4003 3322 
L 4003 2944 
L 3531 2944 
L 3531 378 
L 4047 378 
L 4047 -884 
L 3675 -884 
L 3625 -444 
Q 3575 0 3263 0 
L 1003 0 
Q 691 0 641 -444 
L 591 -884 
L 219 -884 
z
M 1188 422 
Q 1188 378 1291 378 
L 2425 378 
L 2425 2944 
L 1431 2944 
L 1431 2400 
Q 1431 1519 1309 973 
Q 1188 428 1188 422 
z
" transform="scale(0.015625)"/>
      <path id="DejaVuSerif-Bold-435" d="M 2566 1875 
Q 2566 2531 2444 2795 
Q 2322 3059 2028 3059 
Q 1744 3059 1620 2800 
Q 1497 2541 1497 1931 
L 1497 1875 
L 2566 1875 
z
M 3781 1503 
L 1497 1503 
L 1497 1478 
Q 1497 834 1690 548 
Q 1884 263 2316 263 
Q 2675 263 2897 453 
Q 3119 644 3181 1006 
L 3700 1006 
Q 3566 441 3166 175 
Q 2766 -91 2047 -91 
Q 1184 -91 723 364 
Q 263 819 263 1663 
Q 263 2488 734 2950 
Q 1206 3413 2047 3413 
Q 2872 3413 3312 2927 
Q 3753 2441 3781 1503 
z
" transform="scale(0.015625)"/>
      <path id="DejaVuSerif-Bold-43b" d="M 609 -91 
Q 413 -91 131 0 
L 113 391 
Q 347 294 544 294 
Q 738 294 838 409 
Q 1066 678 1136 1018 
Q 1206 1359 1229 1615 
Q 1253 1872 1253 2403 
L 1253 2944 
L 781 2944 
L 781 3322 
L 4294 3322 
L 4294 2944 
L 3822 2944 
L 3822 378 
L 4294 378 
L 4294 0 
L 2244 0 
L 2244 378 
L 2716 378 
L 2716 2944 
L 1659 2944 
L 1659 2400 
Q 1659 1556 1534 959 
Q 1316 -91 609 -91 
z
" transform="scale(0.015625)"/>
      <path id="DejaVuSerif-Bold-44f" d="M 1773 2787 
Q 1581 2631 1581 2422 
Q 1581 2213 1767 2039 
Q 1953 1866 2272 1866 
L 2931 1866 
L 2931 2944 
L 2272 2944 
Q 1966 2944 1773 2787 
z
M 156 0 
L 156 378 
L 659 378 
L 1416 1613 
Q 1119 1709 831 1882 
Q 544 2056 544 2453 
Q 544 2850 947 3086 
Q 1350 3322 2000 3322 
L 4509 3322 
L 4509 2944 
L 4038 2944 
L 4038 378 
L 4509 378 
L 4509 0 
L 2522 0 
L 2522 378 
L 2931 378 
L 2931 1488 
L 2484 1488 
L 1572 0 
L 156 0 
z
" transform="scale(0.015625)"/>
      <path id="DejaVuSerif-Bold-28" d="M 2694 -997 
Q 1641 -606 1122 122 
Q 603 850 603 1931 
Q 603 3013 1115 3731 
Q 1628 4450 2694 4863 
L 2694 4488 
Q 2200 4188 1983 3598 
Q 1766 3009 1766 1931 
Q 1766 856 1983 267 
Q 2200 -322 2694 -622 
L 2694 -997 
z
" transform="scale(0.015625)"/>
      <path id="DejaVuSerif-Bold-62" d="M 622 378 
L 622 4488 
L 147 4488 
L 147 4863 
L 1728 4863 
L 1728 2900 
Q 1869 3159 2106 3286 
Q 2344 3413 2694 3413 
Q 3403 3413 3811 2945 
Q 4219 2478 4219 1663 
Q 4219 847 3811 378 
Q 3403 -91 2694 -91 
Q 2344 -91 2106 36 
Q 1869 163 1728 422 
L 1728 0 
L 147 0 
L 147 378 
L 622 378 
z
M 1728 1497 
Q 1728 916 1876 656 
Q 2025 397 2356 397 
Q 2697 397 2836 672 
Q 2975 947 2975 1663 
Q 2975 2378 2836 2651 
Q 2697 2925 2356 2925 
Q 2025 2925 1876 2665 
Q 1728 2406 1728 1825 
L 1728 1497 
z
" transform="scale(0.015625)"/>
      <path id="DejaVuSerif-Bold-6f" d="M 2138 263 
Q 2488 263 2630 563 
Q 2772 863 2772 1663 
Q 2772 2463 2631 2761 
Q 2491 3059 2138 3059 
Q 1784 3059 1640 2757 
Q 1497 2456 1497 1663 
Q 1497 869 1640 566 
Q 1784 263 2138 263 
z
M 2138 -91 
Q 1259 -91 761 376 
Q 263 844 263 1663 
Q 263 2484 761 2948 
Q 1259 3413 2138 3413 
Q 3019 3413 3516 2948 
Q 4013 2484 4013 1663 
Q 4013 844 3514 376 
Q 3016 -91 2138 -91 
z
" transform="scale(0.015625)"/>
      <path id="DejaVuSerif-Bold-78" d="M 2247 2119 
L 2834 2944 
L 2425 2944 
L 2425 3322 
L 3719 3322 
L 3719 2944 
L 3278 2944 
L 2431 1759 
L 3419 378 
L 3859 378 
L 3859 0 
L 1747 0 
L 1747 378 
L 2175 378 
L 1550 1253 
L 922 378 
L 1369 378 
L 1369 0 
L 0 0 
L 0 378 
L 475 378 
L 1356 1619 
L 403 2944 
L 31 2944 
L 31 3322 
L 2059 3322 
L 2059 2944 
L 1656 2944 
L 2247 2119 
z
" transform="scale(0.015625)"/>
      <path id="DejaVuSerif-Bold-70" d="M 1728 1825 
L 1728 1497 
Q 1728 916 1876 656 
Q 2025 397 2356 397 
Q 2697 397 2836 672 
Q 2975 947 2975 1663 
Q 2975 2378 2836 2651 
Q 2697 2925 2356 2925 
Q 2025 2925 1876 2665 
Q 1728 2406 1728 1825 
z
M 622 2944 
L 147 2944 
L 147 3322 
L 1728 3322 
L 1728 2900 
Q 1869 3159 2106 3286 
Q 2344 3413 2694 3413 
Q 3403 3413 3811 2945 
Q 4219 2478 4219 1663 
Q 4219 847 3811 378 
Q 3403 -91 2694 -91 
Q 2344 -91 2106 36 
Q 1869 163 1728 422 
L 1728 -953 
L 2241 -953 
L 2241 -1331 
L 147 -1331 
L 147 -953 
L 622 -953 
L 622 2944 
z
" transform="scale(0.015625)"/>
      <path id="DejaVuSerif-Bold-6c" d="M 1797 378 
L 2272 378 
L 2272 0 
L 219 0 
L 219 378 
L 691 378 
L 691 4488 
L 219 4488 
L 219 4863 
L 1797 4863 
L 1797 378 
z
" transform="scale(0.015625)"/>
      <path id="DejaVuSerif-Bold-74" d="M 634 2944 
L 153 2944 
L 153 3322 
L 634 3322 
L 634 4353 
L 1741 4353 
L 1741 3322 
L 2663 3322 
L 2663 2944 
L 1741 2944 
L 1741 909 
Q 1741 475 1809 369 
Q 1878 263 2059 263 
Q 2259 263 2356 397 
Q 2453 531 2459 813 
L 2925 813 
Q 2897 313 2651 111 
Q 2406 -91 1806 -91 
Q 1122 -91 878 123 
Q 634 338 634 909 
L 634 2944 
z
" transform="scale(0.015625)"/>
      <path id="DejaVuSerif-Bold-29" d="M 325 -997 
L 325 -622 
Q 819 -322 1036 267 
Q 1253 856 1253 1931 
Q 1253 3009 1036 3598 
Q 819 4188 325 4488 
L 325 4863 
Q 1391 4450 1905 3731 
Q 2419 3013 2419 1931 
Q 2419 850 1898 122 
Q 1378 -606 325 -997 
z
" transform="scale(0.015625)"/>
     </defs>
     <use xlink:href="#DejaVuSerif-Bold-420"/>
     <use xlink:href="#DejaVuSerif-Bold-430" transform="translate(75.195312 0)"/>
     <use xlink:href="#DejaVuSerif-Bold-437" transform="translate(139.990234 0)"/>
     <use xlink:href="#DejaVuSerif-Bold-431" transform="translate(203.808594 0)"/>
     <use xlink:href="#DejaVuSerif-Bold-440" transform="translate(270.507812 0)"/>
     <use xlink:href="#DejaVuSerif-Bold-43e" transform="translate(340.429688 0)"/>
     <use xlink:href="#DejaVuSerif-Bold-441" transform="translate(407.128906 0)"/>
     <use xlink:href="#DejaVuSerif-Bold-20" transform="translate(468.017578 0)"/>
     <use xlink:href="#DejaVuSerif-Bold-51" transform="translate(502.832031 0)"/>
     <use xlink:href="#DejaVuSerif-Bold-20" transform="translate(589.941406 0)"/>
     <use xlink:href="#DejaVuSerif-Bold-43f" transform="translate(624.755859 0)"/>
     <use xlink:href="#DejaVuSerif-Bold-43e" transform="translate(697.949219 0)"/>
     <use xlink:href="#DejaVuSerif-Bold-20" transform="translate(764.648438 0)"/>
     <use xlink:href="#DejaVuSerif-Bold-43c" transform="translate(799.462891 0)"/>
     <use xlink:href="#DejaVuSerif-Bold-43e" transform="translate(886.328125 0)"/>
     <use xlink:href="#DejaVuSerif-Bold-434" transform="translate(953.027344 0)"/>
     <use xlink:href="#DejaVuSerif-Bold-435" transform="translate(1019.677734 0)"/>
     <use xlink:href="#DejaVuSerif-Bold-43b" transform="translate(1083.300781 0)"/>
     <use xlink:href="#DejaVuSerif-Bold-44f" transform="translate(1153.808594 0)"/>
     <use xlink:href="#DejaVuSerif-Bold-43c" transform="translate(1227.685547 0)"/>
     <use xlink:href="#DejaVuSerif-Bold-20" transform="translate(1314.550781 0)"/>
     <use xlink:href="#DejaVuSerif-Bold-28" transform="translate(1349.365234 0)"/>
     <use xlink:href="#DejaVuSerif-Bold-62" transform="translate(1396.679688 0)"/>
     <use xlink:href="#DejaVuSerif-Bold-6f" transform="translate(1466.601562 0)"/>
     <use xlink:href="#DejaVuSerif-Bold-78" transform="translate(1533.300781 0)"/>
     <use xlink:href="#DejaVuSerif-Bold-70" transform="translate(1592.919922 0)"/>
     <use xlink:href="#DejaVuSerif-Bold-6c" transform="translate(1662.841797 0)"/>
     <use xlink:href="#DejaVuSerif-Bold-6f" transform="translate(1700.830078 0)"/>
     <use xlink:href="#DejaVuSerif-Bold-74" transform="translate(1767.529297 0)"/>
     <use xlink:href="#DejaVuSerif-Bold-29" transform="translate(1813.720703 0)"/>
    </g>
   </g>
  </g>
 </g>
 <defs>
  <clipPath id="p3e517282c1">
   <rect x="40.298438" y="22.516875" width="665.38" height="360.445327"/>
  </clipPath>
 </defs>
</svg>
